999
dxfrw 0.6.3
  0
SECTION
  2
HEADER
  9
$ACADVER
  1
AC1021
  9
$DWGCODEPAGE
  3
ANSI_1252
  9
$INSBASE
 10
0
 20
0
 30
0
  9
$EXTMIN
 10
-2310.984643703158
 20
1.224646799147353e-16
 30
0
  9
$EXTMAX
 10
1607.538569427094
 20
5429.198500162543
 30
0
  9
$LIMMIN
 10
0
 20
0
  9
$LIMMAX
 10
420
 20
297
  9
$ORTHOMODE
 70
    0
  9
$REGENMODE
 70
    1
  9
$FILLMODE
 70
    1
  9
$QTEXTMODE
 70
    0
  9
$MIRRTEXT
 70
    0
  9
$LTSCALE
 40
1
  9
$ATTMODE
 70
    0
  9
$TEXTSIZE
 40
2.5
  9
$TRACEWID
 40
15.68
  9
$TEXTSTYLE
  7
STANDARD
  9
$CLAYER
  8
top22
  9
$CELTYPE
  6
BYLAYER
  9
$CECOLOR
 62
  256
  9
$CELTSCALE
 40
1
  9
$DISPSILH
 70
    0
  9
$DIMSCALE
 40
5
  9
$DIMASZ
 40
2.5
  9
$DIMEXO
 40
0.625
  9
$DIMDLI
 40
3.75
  9
$DIMRND
 40
0
  9
$DIMDLE
 40
0
  9
$DIMEXE
 40
1.25
  9
$DIMTP
 40
0
  9
$DIMTM
 40
0
  9
$DIMTXT
 40
2.5
  9
$DIMCEN
 40
2.5
  9
$DIMTSZ
 40
0
  9
$DIMTOL
 70
    0
  9
$DIMLIM
 70
    0
  9
$DIMTIH
 70
    0
  9
$DIMTOH
 70
    0
  9
$DIMSE1
 70
    0
  9
$DIMSE2
 70
    0
  9
$DIMTAD
 70
    1
  9
$DIMZIN
 70
    8
  9
$DIMBLK
  1

  9
$DIMASO
 70
    1
  9
$DIMSHO
 70
    1
  9
$DIMPOST
  1

  9
$DIMAPOST
  1

  9
$DIMALT
 70
    0
  9
$DIMALTD
 70
    3
  9
$DIMALTF
 40
0.03937
  9
$DIMLFAC
 40
1
  9
$DIMTOFL
 70
    1
  9
$DIMTVP
 40
0
  9
$DIMTIX
 70
    0
  9
$DIMSOXD
 70
    0
  9
$DIMSAH
 70
    0
  9
$DIMBLK1
  1

  9
$DIMBLK2
  1

  9
$DIMSTYLE
  2
STANDARD
  9
$DIMCLRD
 70
    0
  9
$DIMCLRE
 70
    0
  9
$DIMCLRT
 70
    0
  9
$DIMTFAC
 40
1
  9
$DIMGAP
 40
0.625
  9
$DIMJUST
 70
    0
  9
$DIMSD1
 70
    0
  9
$DIMSD2
 70
    0
  9
$DIMTOLJ
 70
    0
  9
$DIMTZIN
 70
    8
  9
$DIMALTZ
 70
    0
  9
$DIMALTTZ
 70
    0
  9
$DIMUPT
 70
    0
  9
$DIMDEC
 70
    4
  9
$DIMTDEC
 70
    2
  9
$DIMALTU
 70
    2
  9
$DIMALTTD
 70
    3
  9
$DIMTXSTY
  7
standard
  9
$DIMAUNIT
 70
    0
  9
$DIMADEC
 70
    2
  9
$DIMALTRND
 40
0
  9
$DIMAZIN
 70
    0
  9
$DIMDSEP
 70
    0
  9
$DIMATFIT
 70
    3
  9
$DIMFRAC
 70
    0
  9
$DIMLDRBLK
  1
STANDARD
  9
$DIMLUNIT
 70
    2
  9
$DIMLWD
 70
   -2
  9
$DIMLWE
 70
   -2
  9
$DIMTMOVE
 70
    0
  9
$DIMFXL
 40
1
  9
$DIMFXLON
 70
    0
  9
$DIMJOGANG
 40
0.7854
  9
$DIMTFILL
 70
    0
  9
$DIMTFILLCLR
 70
    0
  9
$DIMARCSYM
 70
    0
  9
$DIMLTYPE
  6

  9
$DIMLTEX1
  6

  9
$DIMLTEX2
  6

  9
$LUNITS
 70
    2
  9
$LUPREC
 70
    4
  9
$SKETCHINC
 40
1
  9
$FILLETRAD
 40
0
  9
$AUNITS
 70
    0
  9
$AUPREC
 70
    2
  9
$MENU
  1
.
  9
$ELEVATION
 40
0
  9
$PELEVATION
 40
0
  9
$THICKNESS
 40
0
  9
$LIMCHECK
 70
    0
  9
$CHAMFERA
 40
0
  9
$CHAMFERB
 40
0
  9
$CHAMFERC
 40
0
  9
$CHAMFERD
 40
0
  9
$SKPOLY
 70
    0
  9
$USRTIMER
 70
    1
  9
$ANGBASE
 50
0
  9
$ANGDIR
 70
    0
  9
$PDMODE
 70
   34
  9
$PDSIZE
 40
0
  9
$PLINEWID
 40
0
  9
$SPLFRAME
 70
    0
  9
$SPLINETYPE
 70
    2
  9
$SPLINESEGS
 70
    8
  9
$HANDSEED
  5
20000
  9
$SURFTAB1
 70
    6
  9
$SURFTAB2
 70
    6
  9
$SURFTYPE
 70
    6
  9
$SURFU
 70
    6
  9
$SURFV
 70
    6
  9
$UCSBASE
  2

  9
$UCSNAME
  2

  9
$UCSORG
 10
0
 20
0
 30
0
  9
$UCSXDIR
 10
1
 20
0
 30
0
  9
$UCSYDIR
 10
0
 20
1
 30
0
  9
$UCSORTHOREF
  2

  9
$UCSORTHOVIEW
 70
    0
  9
$UCSORGTOP
 10
0
 20
0
 30
0
  9
$UCSORGBOTTOM
 10
0
 20
0
 30
0
  9
$UCSORGLEFT
 10
0
 20
0
 30
0
  9
$UCSORGRIGHT
 10
0
 20
0
 30
0
  9
$UCSORGFRONT
 10
0
 20
0
 30
0
  9
$UCSORGBACK
 10
0
 20
0
 30
0
  9
$PUCSBASE
  2

  9
$PUCSNAME
  2

  9
$PUCSORG
 10
0
 20
0
 30
0
  9
$PUCSXDIR
 10
1
 20
0
 30
0
  9
$PUCSYDIR
 10
0
 20
1
 30
0
  9
$PUCSORTHOREF
  2

  9
$PUCSORTHOVIEW
 70
    0
  9
$PUCSORGTOP
 10
0
 20
0
 30
0
  9
$PUCSORGBOTTOM
 10
0
 20
0
 30
0
  9
$PUCSORGLEFT
 10
0
 20
0
 30
0
  9
$PUCSORGRIGHT
 10
0
 20
0
 30
0
  9
$PUCSORGFRONT
 10
0
 20
0
 30
0
  9
$PUCSORGBACK
 10
0
 20
0
 30
0
  9
$USERI1
 70
    0
  9
$USERI2
 70
    0
  9
$USERI3
 70
    0
  9
$USERI4
 70
    0
  9
$USERI5
 70
    0
  9
$USERR1
 40
0
  9
$USERR2
 40
0
  9
$USERR3
 40
0
  9
$USERR4
 40
0
  9
$USERR5
 40
0
  9
$WORLDVIEW
 70
    1
  9
$SHADEDGE
 70
    3
  9
$SHADEDIF
 70
   70
  9
$TILEMODE
 70
    1
  9
$MAXACTVP
 70
   64
  9
$PINSBASE
 10
-614.1506216971037
 20
-4452.032554076828
 30
0
  9
$PLIMCHECK
 70
    0
  9
$PEXTMIN
 10
0
 20
0
 30
0
  9
$PEXTMAX
 10
0
 20
0
 30
0
  9
$GRIDMODE
 70
    1
  9
$SNAPSTYLE
 70
    0
  9
$GRIDUNIT
 10
0
 20
0
  9
$PLIMMIN
 10
0
 20
0
  9
$PLIMMAX
 10
297
 20
210
  9
$UNITMODE
 70
    0
  9
$VISRETAIN
 70
    1
  9
$PLINEGEN
 70
    0
  9
$PSLTSCALE
 70
    1
  9
$TREEDEPTH
 70
 3020
  9
$CMLSTYLE
  2
Standard
  9
$CMLJUST
 70
    0
  9
$CMLSCALE
 40
20
  9
$PROXYGRAPHICS
 70
    1
  9
$MEASUREMENT
 70
    1
  9
$CELWEIGHT
370
   -1
  9
$ENDCAPS
280
    0
  9
$JOINSTYLE
280
    0
  9
$LWDISPLAY
290
    0
  9
$INSUNITS
 70
    4
  9
$HYPERLINKBASE
  1

  9
$STYLESHEET
  1

  9
$XEDIT
290
    1
  9
$CEPSNTYPE
380
    0
  9
$PSTYLEMODE
290
    1
  9
$EXTNAMES
290
    1
  9
$PSVPSCALE
 40
1
  9
$OLESTARTUP
290
    0
  9
$SORTENTS
280
  127
  9
$INDEXCTL
280
    0
  9
$HIDETEXT
280
    1
  9
$XCLIPFRAME
290
    0
  9
$HALOGAP
280
    0
  9
$OBSCOLOR
 70
  257
  9
$OBSLTYPE
280
    0
  9
$INTERSECTIONDISPLAY
280
    0
  9
$INTERSECTIONCOLOR
 70
  257
  9
$DIMASSOC
280
    1
  9
$PROJECTNAME
  1

  9
$CAMERADISPLAY
290
    0
  9
$LENSLENGTH
 40
50
  9
$CAMERAHEIGHT
 40
0
  9
$STEPSPERSEC
 40
2
  9
$STEPSIZE
 40
50
  9
$3DDWFPREC
 40
2
  9
$PSOLWIDTH
 40
5
  9
$PSOLHEIGHT
 40
80
  9
$LOFTANG1
 40
1.570796326794897
  9
$LOFTANG2
 40
1.570796326794897
  9
$LOFTMAG1
 40
0
  9
$LOFTMAG2
 40
0
  9
$LOFTPARAM
 70
    7
  9
$LOFTNORMALS
280
    1
  9
$LATITUDE
 40
1
  9
$LONGITUDE
 40
1
  9
$NORTHDIRECTION
 40
0
  9
$TIMEZONE
 70
-8000
  9
$LIGHTGLYPHDISPLAY
280
    1
  9
$TILEMODELIGHTSYNCH
280
    1
  9
$SOLIDHIST
280
    1
  9
$SHOWHIST
280
    1
  9
$DWFFRAME
280
    2
  9
$DGNFRAME
280
    0
  9
$REALWORLDSCALE
290
    1
  9
$INTERFERECOLOR
 62
    1
  9
$CSHADOW
280
    0
  9
$SHADOWPLANELOCATION
 40
0
  0
ENDSEC
  0
SECTION
  2
CLASSES
  0
ENDSEC
  0
SECTION
  2
TABLES
  0
TABLE
  2
VPORT
  5
8
330
0
100
AcDbSymbolTable
 70
    1
  0
VPORT
  5
31
330
2
100
AcDbSymbolTableRecord
100
AcDbViewportTableRecord
  2
*ACTIVE
 70
    0
 10
0
 20
0
 11
1
 21
1
 12
145.0471879264076
 22
2809.678112192434
 13
0
 23
0
 14
10
 24
10
 15
10
 25
10
 16
0
 26
0
 36
1
 17
0
 27
0
 37
0
 40
1919.838060419192
 41
1.702886247877759
 42
50
 43
0
 44
0
 50
0
 51
0
 71
    0
 72
  100
 73
    1
 74
    3
 75
    0
 76
    1
 77
    0
 78
    0
281
    0
 65
    1
110
0
120
0
130
0
111
1
121
0
131
0
112
0
122
1
132
0
 79
    0
146
0
348
10020
 60
    7
 61
    5
292
1
282
    1
141
0
142
0
 63
  250
421
3358443
  0
ENDTAB
  0
TABLE
  2
LTYPE
  5
5
330
0
100
AcDbSymbolTable
 70
    4
  0
LTYPE
  5
14
330
5
100
AcDbSymbolTableRecord
100
AcDbLinetypeTableRecord
  2
ByBlock
 70
    0
  3

 72
   65
 73
    0
 40
0
  0
LTYPE
  5
15
330
5
100
AcDbSymbolTableRecord
100
AcDbLinetypeTableRecord
  2
ByLayer
 70
    0
  3

 72
   65
 73
    0
 40
0
  0
LTYPE
  5
16
330
5
100
AcDbSymbolTableRecord
100
AcDbLinetypeTableRecord
  2
Continuous
 70
    0
  3
Solid line
 72
   65
 73
    0
 40
0
  0
LTYPE
  5
32
330
5
100
AcDbSymbolTableRecord
100
AcDbLinetypeTableRecord
  2
DOT
 70
    0
  3
Dot . . . . . . . . . . . . . . . . . . . . . .
 72
   65
 73
    2
 40
6.35
 49
0
 74
    0
 49
-6.35
 74
    0
  0
LTYPE
  5
33
330
5
100
AcDbSymbolTableRecord
100
AcDbLinetypeTableRecord
  2
DOTTINY
 70
    0
  3
Dot (.15x) .....................................
 72
   65
 73
    2
 40
0.9525
 49
0
 74
    0
 49
-0.9525
 74
    0
  0
LTYPE
  5
34
330
5
100
AcDbSymbolTableRecord
100
AcDbLinetypeTableRecord
  2
DOT2
 70
    0
  3
Dot (.5x) .....................................
 72
   65
 73
    2
 40
3.175
 49
0
 74
    0
 49
-3.175
 74
    0
  0
LTYPE
  5
35
330
5
100
AcDbSymbolTableRecord
100
AcDbLinetypeTableRecord
  2
DOTX2
 70
    0
  3
Dot (2x) .  .  .  .  .  .  .  .  .  .  .  .  .
 72
   65
 73
    2
 40
12.7
 49
0
 74
    0
 49
-12.7
 74
    0
  0
LTYPE
  5
36
330
5
100
AcDbSymbolTableRecord
100
AcDbLinetypeTableRecord
  2
DASHED
 70
    0
  3
Dashed _ _ _ _ _ _ _ _ _ _ _ _ _ _ _ _ _
 72
   65
 73
    2
 40
19.05
 49
12.7
 74
    0
 49
-6.35
 74
    0
  0
LTYPE
  5
37
330
5
100
AcDbSymbolTableRecord
100
AcDbLinetypeTableRecord
  2
DASHEDTINY
 70
    0
  3
Dashed (.15x) _ _ _ _ _ _ _ _ _ _ _ _ _ _ _ _ _
 72
   65
 73
    2
 40
2.8575
 49
1.905
 74
    0
 49
-0.9525
 74
    0
  0
LTYPE
  5
38
330
5
100
AcDbSymbolTableRecord
100
AcDbLinetypeTableRecord
  2
DASHED2
 70
    0
  3
Dashed (.5x) _ _ _ _ _ _ _ _ _ _ _ _ _ _ _ _ _
 72
   65
 73
    2
 40
9.524999999999999
 49
6.35
 74
    0
 49
-3.175
 74
    0
  0
LTYPE
  5
39
330
5
100
AcDbSymbolTableRecord
100
AcDbLinetypeTableRecord
  2
DASHEDX2
 70
    0
  3
Dashed (2x) ____  ____  ____  ____  ____  ___
 72
   65
 73
    2
 40
38.09999999999999
 49
25.4
 74
    0
 49
-12.7
 74
    0
  0
LTYPE
  5
3A
330
5
100
AcDbSymbolTableRecord
100
AcDbLinetypeTableRecord
  2
DASHDOT
 70
    0
  3
Dash dot __ . __ . __ . __ . __ . __ . __ . __
 72
   65
 73
    4
 40
25.4
 49
12.7
 74
    0
 49
-6.35
 74
    0
 49
0
 74
    0
 49
-6.35
 74
    0
  0
LTYPE
  5
3B
330
5
100
AcDbSymbolTableRecord
100
AcDbLinetypeTableRecord
  2
DASHDOTTINY
 70
    0
  3
Dash dot (.15x) _._._._._._._._._._._._._._._.
 72
   65
 73
    4
 40
3.81
 49
1.905
 74
    0
 49
-0.9525
 74
    0
 49
0
 74
    0
 49
-0.9525
 74
    0
  0
LTYPE
  5
3C
330
5
100
AcDbSymbolTableRecord
100
AcDbLinetypeTableRecord
  2
DASHDOT2
 70
    0
  3
Dash dot (.5x) _._._._._._._._._._._._._._._.
 72
   65
 73
    4
 40
12.7
 49
6.35
 74
    0
 49
-3.175
 74
    0
 49
0
 74
    0
 49
-3.175
 74
    0
  0
LTYPE
  5
3D
330
5
100
AcDbSymbolTableRecord
100
AcDbLinetypeTableRecord
  2
DASHDOTX2
 70
    0
  3
Dash dot (2x) ____  .  ____  .  ____  .  ___
 72
   65
 73
    4
 40
50.8
 49
25.4
 74
    0
 49
-12.7
 74
    0
 49
0
 74
    0
 49
-12.7
 74
    0
  0
LTYPE
  5
3E
330
5
100
AcDbSymbolTableRecord
100
AcDbLinetypeTableRecord
  2
DIVIDE
 70
    0
  3
Divide ____ . . ____ . . ____ . . ____ . . ____
 72
   65
 73
    6
 40
31.75
 49
12.7
 74
    0
 49
-6.35
 74
    0
 49
0
 74
    0
 49
-6.35
 74
    0
 49
0
 74
    0
 49
-6.35
 74
    0
  0
LTYPE
  5
3F
330
5
100
AcDbSymbolTableRecord
100
AcDbLinetypeTableRecord
  2
DIVIDETINY
 70
    0
  3
Divide (.15x) __..__..__..__..__..__..__..__.._
 72
   65
 73
    6
 40
4.7625
 49
1.905
 74
    0
 49
-0.9525
 74
    0
 49
0
 74
    0
 49
-0.9525
 74
    0
 49
0
 74
    0
 49
-0.9525
 74
    0
  0
LTYPE
  5
40
330
5
100
AcDbSymbolTableRecord
100
AcDbLinetypeTableRecord
  2
DIVIDE2
 70
    0
  3
Divide (.5x) __..__..__..__..__..__..__..__.._
 72
   65
 73
    6
 40
15.875
 49
6.35
 74
    0
 49
-3.175
 74
    0
 49
0
 74
    0
 49
-3.175
 74
    0
 49
0
 74
    0
 49
-3.175
 74
    0
  0
LTYPE
  5
41
330
5
100
AcDbSymbolTableRecord
100
AcDbLinetypeTableRecord
  2
DIVIDEX2
 70
    0
  3
Divide (2x) ________  .  .  ________  .  .  _
 72
   65
 73
    6
 40
63.5
 49
25.4
 74
    0
 49
-12.7
 74
    0
 49
0
 74
    0
 49
-12.7
 74
    0
 49
0
 74
    0
 49
-12.7
 74
    0
  0
LTYPE
  5
42
330
5
100
AcDbSymbolTableRecord
100
AcDbLinetypeTableRecord
  2
BORDER
 70
    0
  3
Border __ __ . __ __ . __ __ . __ __ . __ __ .
 72
   65
 73
    6
 40
44.45
 49
12.7
 74
    0
 49
-6.35
 74
    0
 49
12.7
 74
    0
 49
-6.35
 74
    0
 49
0
 74
    0
 49
-6.35
 74
    0
  0
LTYPE
  5
43
330
5
100
AcDbSymbolTableRecord
100
AcDbLinetypeTableRecord
  2
BORDERTINY
 70
    0
  3
Border (.15x) __.__.__.__.__.__.__.__.__.__.__.
 72
   65
 73
    6
 40
6.6675
 49
1.905
 74
    0
 49
-0.9525
 74
    0
 49
1.905
 74
    0
 49
-0.9525
 74
    0
 49
0
 74
    0
 49
-0.9525
 74
    0
  0
LTYPE
  5
44
330
5
100
AcDbSymbolTableRecord
100
AcDbLinetypeTableRecord
  2
BORDER2
 70
    0
  3
Border (.5x) __.__.__.__.__.__.__.__.__.__.__.
 72
   65
 73
    6
 40
22.225
 49
6.35
 74
    0
 49
-3.175
 74
    0
 49
6.35
 74
    0
 49
-3.175
 74
    0
 49
0
 74
    0
 49
-3.175
 74
    0
  0
LTYPE
  5
45
330
5
100
AcDbSymbolTableRecord
100
AcDbLinetypeTableRecord
  2
BORDERX2
 70
    0
  3
Border (2x) ____  ____  .  ____  ____  .  ___
 72
   65
 73
    6
 40
88.89999999999999
 49
25.4
 74
    0
 49
-12.7
 74
    0
 49
25.4
 74
    0
 49
-12.7
 74
    0
 49
0
 74
    0
 49
-12.7
 74
    0
  0
LTYPE
  5
46
330
5
100
AcDbSymbolTableRecord
100
AcDbLinetypeTableRecord
  2
CENTER
 70
    0
  3
Center ____ _ ____ _ ____ _ ____ _ ____ _ ____
 72
   65
 73
    4
 40
50.8
 49
31.75
 74
    0
 49
-6.35
 74
    0
 49
6.35
 74
    0
 49
-6.35
 74
    0
  0
LTYPE
  5
47
330
5
100
AcDbSymbolTableRecord
100
AcDbLinetypeTableRecord
  2
CENTERTINY
 70
    0
  3
Center (.15x) ___ _ ___ _ ___ _ ___ _ ___ _ ___
 72
   65
 73
    4
 40
7.619999999999999
 49
4.7625
 74
    0
 49
-0.9525
 74
    0
 49
0.9525
 74
    0
 49
-0.9525
 74
    0
  0
LTYPE
  5
48
330
5
100
AcDbSymbolTableRecord
100
AcDbLinetypeTableRecord
  2
CENTER2
 70
    0
  3
Center (.5x) ___ _ ___ _ ___ _ ___ _ ___ _ ___
 72
   65
 73
    4
 40
28.575
 49
19.05
 74
    0
 49
-3.175
 74
    0
 49
3.175
 74
    0
 49
-3.175
 74
    0
  0
LTYPE
  5
49
330
5
100
AcDbSymbolTableRecord
100
AcDbLinetypeTableRecord
  2
CENTERX2
 70
    0
  3
Center (2x) ________  __  ________  __  _____
 72
   65
 73
    4
 40
101.6
 49
63.5
 74
    0
 49
-12.7
 74
    0
 49
12.7
 74
    0
 49
-12.7
 74
    0
  0
ENDTAB
  0
TABLE
  2
LAYER
  5
2
330
0
100
AcDbSymbolTable
 70
    1
  0
LAYER
  5
10
330
2
100
AcDbSymbolTableRecord
100
AcDbLayerTableRecord
  2
0
 70
    4
 62
    7
  6
CONTINUOUS
370
    0
390
F
  0
LAYER
  5
4A
330
2
100
AcDbSymbolTableRecord
100
AcDbLayerTableRecord
  2
top
 70
    5
 62
  216
420
8388736
  6
CONTINUOUS
370
    0
390
F
  0
LAYER
  5
4B
330
2
100
AcDbSymbolTableRecord
100
AcDbLayerTableRecord
  2
top2
 70
    4
 62
    3
  6
CONTINUOUS
370
    0
390
F
  0
LAYER
  5
4C
330
2
100
AcDbSymbolTableRecord
100
AcDbLayerTableRecord
  2
top22
 70
    0
 62
    5
  6
CONTINUOUS
370
    0
390
F
  0
ENDTAB
  0
TABLE
  2
STYLE
  5
3
330
0
100
AcDbSymbolTable
 70
    3
  0
STYLE
  5
4D
330
2
100
AcDbSymbolTableRecord
100
AcDbTextStyleTableRecord
  2
Standard
 70
    0
 40
0
 41
1
 50
0
 71
    0
 42
1
  3
txt
  4

  0
ENDTAB
  0
TABLE
  2
VIEW
  5
6
330
0
100
AcDbSymbolTable
 70
    0
  0
ENDTAB
  0
TABLE
  2
UCS
  5
7
330
0
100
AcDbSymbolTable
 70
    0
  0
ENDTAB
  0
TABLE
  2
APPID
  5
9
330
0
100
AcDbSymbolTable
 70
    1
  0
APPID
  5
12
330
9
100
AcDbSymbolTableRecord
100
AcDbRegAppTableRecord
  2
ACAD
 70
    0
  0
APPID
  5
4E
330
9
100
AcDbSymbolTableRecord
100
AcDbRegAppTableRecord
  2
LibreCad
 70
    0
  0
ENDTAB
  0
TABLE
  2
DIMSTYLE
  5
A
330
0
100
AcDbSymbolTable
 70
    1
100
AcDbDimStyleTable
 71
    1
  0
DIMSTYLE
105
4F
330
A
100
AcDbSymbolTableRecord
100
AcDbDimStyleTableRecord
  2
Standard
 70
    0
 40
5
 41
2.5
 42
0.625
 43
0.38
 44
1.25
 45
0
 46
0
 47
0
 48
0
 49
1
140
2.5
141
0.09
142
0
143
25.4
144
1
145
0
146
1
147
0.625
148
0
 71
    0
 72
    0
 73
    0
 74
    1
 75
    0
 76
    0
 77
    0
 78
    8
 79
    0
170
    0
171
    2
172
    0
173
    0
174
    0
175
    0
176
    0
177
    0
178
    0
179
    2
271
    4
272
    4
273
    2
274
    2
275
    0
276
    0
277
    2
278
    0
279
    0
280
    0
281
    0
282
    0
283
    1
284
    0
285
    0
286
    0
288
    0
289
    3
340
standard
341

371
   -2
372
   -2
  0
ENDTAB
  0
TABLE
  2
BLOCK_RECORD
  5
1
330
0
100
AcDbSymbolTable
 70
    2
  0
BLOCK_RECORD
  5
1F
330
1
100
AcDbSymbolTableRecord
100
AcDbBlockTableRecord
  2
*Model_Space
 70
    0
280
    1
281
    0
  0
BLOCK_RECORD
  5
1E
330
1
100
AcDbSymbolTableRecord
100
AcDbBlockTableRecord
  2
*Paper_Space
 70
    0
280
    1
281
    0
  0
BLOCK_RECORD
  5
50
330
1
100
AcDbSymbolTableRecord
100
AcDbBlockTableRecord
  2
*D2
 70
    0
280
    1
281
    0
  0
BLOCK_RECORD
  5
53
330
1
100
AcDbSymbolTableRecord
100
AcDbBlockTableRecord
  2
*D1
 70
    0
280
    1
281
    0
  0
ENDTAB
  0
ENDSEC
  0
SECTION
  2
BLOCKS
  0
BLOCK
  5
20
330
1F
100
AcDbEntity
  8
0
100
AcDbBlockBegin
  2
*Model_Space
 70
    0
 10
0
 20
0
 30
0
  3
*Model_Space
  1

  0
ENDBLK
  5
21
330
1F
100
AcDbEntity
  8
0
100
AcDbBlockEnd
  0
BLOCK
  5
1C
330
1B
100
AcDbEntity
  8
0
100
AcDbBlockBegin
  2
*Paper_Space
 70
    0
 10
0
 20
0
 30
0
  3
*Paper_Space
  1

  0
ENDBLK
  5
1D
330
1F
100
AcDbEntity
  8
0
100
AcDbBlockEnd
  0
BLOCK
  5
51
330
50
100
AcDbEntity
  8
0
100
AcDbBlockBegin
  2
*D2
 70
    1
 10
0
 20
0
  3
*D2
  1

  0
LINE
  5
56
100
AcDbEntity
  8
top
  6
ByBlock
 62
    0
370
   -2
100
AcDbLine
 10
613.7397079493911
 20
4743.140603483678
 11
631.3416609952292
 21
4760.742556529516
  0
LINE
  5
57
100
AcDbEntity
  8
top
  6
ByBlock
 62
    0
370
   -2
100
AcDbLine
 10
567.6339982114649
 20
4789.246313221605
 11
585.235951257303
 21
4806.848266267443
  0
LINE
  5
58
100
AcDbEntity
  8
top
  6
ByBlock
 62
    0
370
   -2
100
AcDbLine
 10
626.9222436128132
 20
4756.3231391471
 11
580.816533874887
 21
4802.428848885027
  0
SOLID
  5
59
100
AcDbEntity
  8
top
  6
ByBlock
 62
    0
370
   -2
100
AcDbTrace
 10
626.9222436128132
 20
4756.3231391471
 30
0
 11
616.611620325906
 21
4763.690185389856
 31
0
 12
619.5551973700569
 22
4766.633762434008
 32
0
 13
619.5551973700569
 23
4766.633762434008
 33
0
  0
SOLID
  5
5A
100
AcDbEntity
  8
top
  6
ByBlock
 62
    0
370
   -2
100
AcDbTrace
 10
580.816533874887
 20
4802.428848885027
 30
0
 11
591.1271571617942
 21
4795.061802642271
 31
0
 12
588.1835801176433
 22
4792.118225598119
 32
0
 13
588.1835801176433
 23
4792.118225598119
 33
0
  0
MTEXT
  5
5B
100
AcDbEntity
  8
top
  6
CONTINUOUS
 62
    0
370
   -2
100
AcDbMText
 10
610.4985148174741
 20
4786.005120089687
 30
0
 40
12.5
 41
58.33333333333644
 71
    5
 72
    1
  1
65.2033
  7
standard
210
0
220
0
230
1
 50
314.9999999999994
 73
    2
 44
1
  0
ENDBLK
  5
52
330
50
100
AcDbEntity
  8
0
100
AcDbBlockEnd
  0
BLOCK
  5
54
330
53
100
AcDbEntity
  8
0
100
AcDbBlockBegin
  2
*D1
 70
    1
 10
0
 20
0
  3
*D1
  1

  0
LINE
  5
5C
100
AcDbEntity
  8
0
  6
ByBlock
 62
    0
370
   -2
100
AcDbLine
 10
1239.748278118302
 20
2852.086039549461
 11
1277.409715433799
 21
2889.747476864961
  0
LINE
  5
5D
100
AcDbEntity
  8
0
  6
ByBlock
 62
    0
370
   -2
100
AcDbLine
 10
1289.748278118302
 20
2802.086039549464
 11
1327.409715433799
 21
2839.747476864964
  0
LINE
  5
5E
100
AcDbEntity
  8
0
  6
ByBlock
 62
    0
370
   -2
100
AcDbLine
 10
1272.990298051384
 20
2885.328059482545
 11
1322.990298051384
 21
2835.328059482548
  0
SOLID
  5
5F
100
AcDbEntity
  8
0
  6
ByBlock
 62
    0
370
   -2
100
AcDbTrace
 10
1272.990298051384
 20
2885.328059482545
 30
0
 11
1283.300921338291
 21
2877.961013239789
 31
0
 12
1280.35734429414
 22
2875.017436195638
 32
0
 13
1280.35734429414
 23
2875.017436195638
 33
0
  0
SOLID
  5
60
100
AcDbEntity
  8
0
  6
ByBlock
 62
    0
370
   -2
100
AcDbTrace
 10
1322.990298051384
 20
2835.328059482548
 30
0
 11
1312.679674764476
 21
2842.695105725305
 31
0
 12
1315.623251808627
 22
2845.638682769455
 32
0
 13
1315.623251808627
 23
2845.638682769455
 33
0
  0
MTEXT
  5
61
100
AcDbEntity
  8
0
  6
CONTINUOUS
 62
    0
370
   -2
100
AcDbMText
 10
1304.619424125008
 20
2866.957185556171
 30
0
 40
12.5
 41
55.55555555555556
 71
    5
 72
    1
  1
70.7107
  7
standard
210
0
220
0
230
1
 50
315.0000000000018
 73
    2
 44
1
  0
ENDBLK
  5
55
330
53
100
AcDbEntity
  8
0
100
AcDbBlockEnd
  0
ENDSEC
  0
SECTION
  2
ENTITIES
  0
CIRCLE
  5
62
100
AcDbEntity
  8
0
  6
ByLayer
 62
  256
370
   -1
100
AcDbCircle
 10
0
 20
3000
 40
150
  0
CIRCLE
  5
63
100
AcDbEntity
  8
0
  6
ByLayer
 62
  256
370
   -1
100
AcDbCircle
 10
0
 20
3000
 40
160
  0
CIRCLE
  5
64
100
AcDbEntity
  8
0
  6
ByLayer
 62
  256
370
   -1
100
AcDbCircle
 10
420
 20
3000
 40
160
  0
CIRCLE
  5
65
100
AcDbEntity
  8
0
  6
ByLayer
 62
  256
370
   -1
100
AcDbCircle
 10
420
 20
3000
 40
150
  0
CIRCLE
  5
66
100
AcDbEntity
  8
0
  6
ByLayer
 62
  256
370
   -1
100
AcDbCircle
 10
0
 20
2580
 40
150
  0
CIRCLE
  5
67
100
AcDbEntity
  8
0
  6
ByLayer
 62
  256
370
   -1
100
AcDbCircle
 10
0
 20
2580
 40
160
  0
CIRCLE
  5
68
100
AcDbEntity
  8
0
  6
ByLayer
 62
  256
370
   -1
100
AcDbCircle
 10
420
 20
2580
 40
160
  0
CIRCLE
  5
69
100
AcDbEntity
  8
0
  6
ByLayer
 62
  256
370
   -1
100
AcDbCircle
 10
420
 20
2580
 40
150
  0
ARC
  5
6A
100
AcDbEntity
  8
0
  6
ByLayer
 62
  256
370
   -1
100
AcDbCircle
 10
-20.99999999999915
 20
2999.999999999997
 40
280.9999999999991
100
AcDbArc
 50
325.2919507274773
 51
5.597776239375789e-13
  0
ARC
  5
6B
100
AcDbEntity
  8
0
  6
ByLayer
 62
  256
370
   -1
100
AcDbCircle
 10
440.9999999999968
 20
3000.000000000004
 40
280.9999999999952
100
AcDbArc
 50
180.0000000000007
 51
214.7080492725224
  0
ARC
  5
6C
100
AcDbEntity
  8
0
  6
ByLayer
 62
  256
370
   -1
100
AcDbCircle
 10
6.252776074688882e-12
 20
2558.999999999965
 40
281.0000000000326
100
AcDbArc
 50
55.29195072748043
 51
90.00000000000126
  0
ARC
  5
6D
100
AcDbEntity
  8
0
  6
ByLayer
 62
  256
370
   -1
100
AcDbCircle
 10
2.302158463862725e-12
 20
3020.999999999998
 40
280.9999999999969
100
AcDbArc
 50
269.9999999999995
 51
304.7080492725225
  0
ARC
  5
6E
100
AcDbEntity
  8
0
  6
ByLayer
 62
  256
370
   -1
100
AcDbCircle
 10
440.9999999999878
 20
2579.999999999996
 40
280.9999999999878
100
AcDbArc
 50
145.2919507274765
 51
179.9999999999993
  0
ARC
  5
6F
100
AcDbEntity
  8
0
  6
ByLayer
 62
  256
370
   -1
100
AcDbCircle
 10
-21.00000000007793
 20
2580
 40
281.0000000000641
100
AcDbArc
 50
0
 51
34.70804927251359
  0
ARC
  5
70
100
AcDbEntity
  8
0
  6
ByLayer
 62
  256
370
   -1
100
AcDbCircle
 10
419.9999999999928
 20
3021.000000000038
 40
281.0000000000356
100
AcDbArc
 50
235.2919507274804
 51
270.0000000000015
  0
ARC
  5
71
100
AcDbEntity
  8
0
  6
ByLayer
 62
  256
370
   -1
100
AcDbCircle
 10
419.9999999999934
 20
2558.999999999979
 40
281.0000000000211
100
AcDbArc
 50
89.99999999999866
 51
124.7080492725213
  0
CIRCLE
  5
72
100
AcDbEntity
  8
0
  6
ByLayer
 62
  256
370
   -1
100
AcDbCircle
 10
210
 20
2790
 40
131.5563970380448
  0
ARC
  5
73
100
AcDbEntity
  8
0
  6
ByLayer
 62
  256
370
   -1
100
AcDbCircle
 10
-1
 20
1.224646799147353e-16
 40
1
100
AcDbArc
 50
0
 51
111.9175628864932
  0
CIRCLE
  5
74
100
AcDbEntity
  8
0
  6
ByLayer
 62
  256
370
   -1
100
AcDbCircle
 10
-1010.222174722361
 20
3014.0987048601
 40
150
  0
CIRCLE
  5
75
100
AcDbEntity
  8
0
  6
ByLayer
 62
  256
370
   -1
100
AcDbCircle
 10
-590.2221747223604
 20
3014.0987048601
 40
150
  0
CIRCLE
  5
76
100
AcDbEntity
  8
0
  6
ByLayer
 62
  256
370
   -1
100
AcDbCircle
 10
-1010.222174722361
 20
2594.098704860099
 40
150
  0
CIRCLE
  5
77
100
AcDbEntity
  8
0
  6
ByLayer
 62
  256
370
   -1
100
AcDbCircle
 10
-590.2221747223604
 20
2594.098704860099
 40
150
  0
ARC
  5
78
100
AcDbEntity
  8
0
  6
ByLayer
 62
  256
370
   -1
100
AcDbCircle
 10
-1031.222174722359
 20
3014.098704860099
 40
280.9999999999991
100
AcDbArc
 50
325.2919507274773
 51
5.597776239375789e-13
  0
ARC
  5
79
100
AcDbEntity
  8
0
  6
ByLayer
 62
  256
370
   -1
100
AcDbCircle
 10
-569.2221747223633
 20
3014.098704860104
 40
280.9999999999952
100
AcDbArc
 50
180.0000000000007
 51
214.7080492725224
  0
ARC
  5
7A
100
AcDbEntity
  8
0
  6
ByLayer
 62
  256
370
   -1
100
AcDbCircle
 10
-1010.222174722354
 20
2573.098704860064
 40
281.0000000000326
100
AcDbArc
 50
55.29195072748043
 51
90.00000000000126
  0
ARC
  5
7B
100
AcDbEntity
  8
0
  6
ByLayer
 62
  256
370
   -1
100
AcDbCircle
 10
-1010.222174722357
 20
3035.098704860099
 40
280.9999999999969
100
AcDbArc
 50
269.9999999999995
 51
304.7080492725225
  0
ARC
  5
7C
100
AcDbEntity
  8
0
  6
ByLayer
 62
  256
370
   -1
100
AcDbCircle
 10
-569.2221747223722
 20
2594.098704860097
 40
280.9999999999878
100
AcDbArc
 50
145.2919507274765
 51
179.9999999999993
  0
ARC
  5
7D
100
AcDbEntity
  8
0
  6
ByLayer
 62
  256
370
   -1
100
AcDbCircle
 10
-1031.222174722439
 20
2594.098704860099
 40
281.0000000000641
100
AcDbArc
 50
0
 51
34.70804927251359
  0
ARC
  5
7E
100
AcDbEntity
  8
0
  6
ByLayer
 62
  256
370
   -1
100
AcDbCircle
 10
-590.2221747223672
 20
3035.098704860138
 40
281.0000000000356
100
AcDbArc
 50
235.2919507274804
 51
270.0000000000015
  0
ARC
  5
7F
100
AcDbEntity
  8
0
  6
ByLayer
 62
  256
370
   -1
100
AcDbCircle
 10
-590.2221747223663
 20
2573.098704860078
 40
281.0000000000211
100
AcDbArc
 50
89.99999999999866
 51
124.7080492725213
  0
ARC
  5
80
100
AcDbEntity
  8
0
  6
ByLayer
 62
  256
370
   -1
100
AcDbCircle
 10
-1010.222174722361
 20
3014.0987048601
 40
160
100
AcDbArc
 50
3.307776868722058e-13
 51
269.9999999999989
  0
ARC
  5
81
100
AcDbEntity
  8
0
  6
ByLayer
 62
  256
370
   -1
100
AcDbCircle
 10
-590.2221747223604
 20
3014.0987048601
 40
160
100
AcDbArc
 50
269.9999999999998
 51
179.999999999995
  0
ARC
  5
82
100
AcDbEntity
  8
0
  6
ByLayer
 62
  256
370
   -1
100
AcDbCircle
 10
-590.2221747223604
 20
2594.098704860099
 40
160
100
AcDbArc
 50
179.9999999999995
 51
90.00000000000172
  0
ARC
  5
83
100
AcDbEntity
  8
0
  6
ByLayer
 62
  256
370
   -1
100
AcDbCircle
 10
-1010.222174722361
 20
2594.098704860099
 40
160
100
AcDbArc
 50
89.99999999999731
 51
3.307776868722058e-13
  0
CIRCLE
  5
84
100
AcDbEntity
  8
0
  6
ByLayer
 62
  256
370
   -1
100
AcDbCircle
 10
-1920.00150225037
 20
2999.579898011163
 40
150
  0
CIRCLE
  5
85
100
AcDbEntity
  8
0
  6
ByLayer
 62
  256
370
   -1
100
AcDbCircle
 10
-1500.00150225037
 20
2999.579898011163
 40
150
  0
CIRCLE
  5
86
100
AcDbEntity
  8
0
  6
ByLayer
 62
  256
370
   -1
100
AcDbCircle
 10
-1920.00150225037
 20
2579.579898011162
 40
150
  0
CIRCLE
  5
87
100
AcDbEntity
  8
0
  6
ByLayer
 62
  256
370
   -1
100
AcDbCircle
 10
-1500.00150225037
 20
2579.579898011162
 40
150
  0
ARC
  5
88
100
AcDbEntity
  8
0
  6
ByLayer
 62
  256
370
   -1
100
AcDbCircle
 10
-1920.00150225037
 20
2999.579898011163
 40
160
100
AcDbArc
 50
3.307776868722058e-13
 51
269.9999999999989
  0
ARC
  5
89
100
AcDbEntity
  8
0
  6
ByLayer
 62
  256
370
   -1
100
AcDbCircle
 10
-1500.00150225037
 20
2999.579898011163
 40
160
100
AcDbArc
 50
269.9999999999998
 51
179.999999999995
  0
ARC
  5
8A
100
AcDbEntity
  8
0
  6
ByLayer
 62
  256
370
   -1
100
AcDbCircle
 10
-1500.00150225037
 20
2579.579898011162
 40
160
100
AcDbArc
 50
179.9999999999995
 51
90.00000000000172
  0
ARC
  5
8B
100
AcDbEntity
  8
0
  6
ByLayer
 62
  256
370
   -1
100
AcDbCircle
 10
-1920.00150225037
 20
2579.579898011162
 40
160
100
AcDbArc
 50
89.99999999999731
 51
3.307776868722058e-13
  0
ARC
  5
8C
100
AcDbEntity
  8
0
  6
ByLayer
 62
  256
370
   -1
100
AcDbCircle
 10
-1500.001502250376
 20
2558.57989801114
 40
281.0000000000211
100
AcDbArc
 50
89.99999999999866
 51
120.1279300055529
  0
ARC
  5
8D
100
AcDbEntity
  8
0
  6
ByLayer
 62
  256
370
   -1
100
AcDbCircle
 10
-1500.001502250376
 20
3020.579898011201
 40
281.0000000000356
100
AcDbArc
 50
239.8720699944491
 51
270.0000000000015
  0
ARC
  5
8E
100
AcDbEntity
  8
0
  6
ByLayer
 62
  256
370
   -1
100
AcDbCircle
 10
-1941.001502250367
 20
2999.579898011161
 40
280.9999999999991
100
AcDbArc
 50
329.872069994444
 51
5.597776239375789e-13
  0
ARC
  5
8F
100
AcDbEntity
  8
0
  6
ByLayer
 62
  256
370
   -1
100
AcDbCircle
 10
-1479.001502250372
 20
2999.579898011166
 40
280.9999999999952
100
AcDbArc
 50
180.0000000000007
 51
210.1279300055557
  0
ARC
  5
90
100
AcDbEntity
  8
0
  6
ByLayer
 62
  256
370
   -1
100
AcDbCircle
 10
-1920.001502250362
 20
2558.579898011127
 40
281.0000000000326
100
AcDbArc
 50
59.87206999444963
 51
90.00000000000126
  0
ARC
  5
91
100
AcDbEntity
  8
0
  6
ByLayer
 62
  256
370
   -1
100
AcDbCircle
 10
-1920.001502250366
 20
3020.579898011161
 40
280.9999999999969
100
AcDbArc
 50
269.9999999999995
 51
300.1279300055538
  0
ARC
  5
92
100
AcDbEntity
  8
0
  6
ByLayer
 62
  256
370
   -1
100
AcDbCircle
 10
-1479.001502250381
 20
2579.579898011159
 40
280.9999999999878
100
AcDbArc
 50
149.8720699944416
 51
179.9999999999993
  0
ARC
  5
93
100
AcDbEntity
  8
0
  6
ByLayer
 62
  256
370
   -1
100
AcDbCircle
 10
-1941.001502250446
 20
2579.579898011162
 40
281.0000000000641
100
AcDbArc
 50
0
 51
30.12793000554868
  0
POINT
  5
94
100
AcDbEntity
  8
0
  6
ByLayer
 62
  256
370
   -1
100
AcDbPoint
 10
-1710.001502250372
 20
2789.579898011164
  0
ARC
  5
95
100
AcDbEntity
  8
0
  6
ByLayer
 62
  256
370
   -1
100
AcDbCircle
 10
-1710.001502250372
 20
2789.579898011164
 40
69.99999999999933
100
AcDbArc
 50
260.0968536567025
 51
279.9031463433029
  0
ARC
  5
96
100
AcDbEntity
  8
0
  6
ByLayer
 62
  256
370
   -1
100
AcDbCircle
 10
-1710.001502250372
 20
2789.579898011164
 40
70.00000000000138
100
AcDbArc
 50
350.0968536566908
 51
9.903146343306393
  0
ARC
  5
97
100
AcDbEntity
  8
0
  6
ByLayer
 62
  256
370
   -1
100
AcDbCircle
 10
-1710.001502250372
 20
2789.579898011164
 40
69.99999999999689
100
AcDbArc
 50
80.09685365669237
 51
99.90314634330079
  0
ARC
  5
98
100
AcDbEntity
  8
0
  6
ByLayer
 62
  256
370
   -1
100
AcDbCircle
 10
-1710.001502250372
 20
2789.579898011164
 40
69.99999999999838
100
AcDbArc
 50
170.0968536566918
 51
189.903146343309
  0
CIRCLE
  5
99
100
AcDbEntity
  8
0
  6
ByLayer
 62
  256
370
   -1
100
AcDbCircle
 10
1027.538569427094
 20
3009.876330858246
 40
150
  0
CIRCLE
  5
9A
100
AcDbEntity
  8
0
  6
ByLayer
 62
  256
370
   -1
100
AcDbCircle
 10
1027.538569427094
 20
3009.876330858246
 40
160
  0
LINE
  5
9B
100
AcDbEntity
  8
0
  6
ByLayer
 62
  256
370
   -1
100
AcDbLine
 10
1027.538569427094
 20
3009.876330858246
 11
1447.538569427094
 21
3009.876330858246
  0
CIRCLE
  5
9C
100
AcDbEntity
  8
0
  6
ByLayer
 62
  256
370
   -1
100
AcDbCircle
 10
1447.538569427094
 20
3009.876330858246
 40
160
  0
CIRCLE
  5
9D
100
AcDbEntity
  8
0
  6
ByLayer
 62
  256
370
   -1
100
AcDbCircle
 10
1447.538569427094
 20
3009.876330858246
 40
150
  0
LINE
  5
9E
100
AcDbEntity
  8
0
  6
ByLayer
 62
  256
370
   -1
100
AcDbLine
 10
1027.538569427094
 20
3009.876330858246
 11
1027.538569427094
 21
2589.876330858246
  0
CIRCLE
  5
9F
100
AcDbEntity
  8
0
  6
ByLayer
 62
  256
370
   -1
100
AcDbCircle
 10
1027.538569427094
 20
2589.876330858246
 40
150
  0
CIRCLE
  5
A0
100
AcDbEntity
  8
0
  6
ByLayer
 62
  256
370
   -1
100
AcDbCircle
 10
1027.538569427094
 20
2589.876330858246
 40
160
  0
LINE
  5
A1
100
AcDbEntity
  8
0
  6
ByLayer
 62
  256
370
   -1
100
AcDbLine
 10
1027.538569427094
 20
2589.876330858246
 11
1447.538569427094
 21
2589.876330858246
  0
CIRCLE
  5
A2
100
AcDbEntity
  8
0
  6
ByLayer
 62
  256
370
   -1
100
AcDbCircle
 10
1447.538569427094
 20
2589.876330858246
 40
160
  0
CIRCLE
  5
A3
100
AcDbEntity
  8
0
  6
ByLayer
 62
  256
370
   -1
100
AcDbCircle
 10
1447.538569427094
 20
2589.876330858246
 40
150
  0
LINE
  5
A4
100
AcDbEntity
  8
0
  6
ByLayer
 62
  256
370
   -1
100
AcDbLine
 10
1447.538569427094
 20
2589.876330858246
 11
1447.538569427094
 21
3009.876330858246
  0
LINE
  5
A5
100
AcDbEntity
  8
0
  6
ByLayer
 62
  256
370
   -1
100
AcDbLine
 10
1027.538569427094
 20
2589.876330858246
 11
1447.538569427094
 21
3009.876330858246
  0
LINE
  5
A6
100
AcDbEntity
  8
0
  6
ByLayer
 62
  256
370
   -1
100
AcDbLine
 10
1027.538569427094
 20
3009.876330858246
 11
1447.538569427094
 21
2589.876330858246
  0
CIRCLE
  5
A7
100
AcDbEntity
  8
0
  6
ByLayer
 62
  256
370
   -1
100
AcDbCircle
 10
1237.538569427094
 20
2799.876330858246
 40
50
  0
LINE
  5
A8
100
AcDbEntity
  8
0
  6
ByLayer
 62
  256
370
   -1
100
AcDbLine
 10
1607.538569427094
 20
3169.876330858246
 11
1606.614689894582
 21
3169.493647425881
  0
LINE
  5
A9
100
AcDbEntity
  8
0
  6
ByLayer
 62
  256
370
   -1
100
AcDbLine
 10
1237.538569427094
 20
2429.876330858246
 11
1237.538569427094
 21
3169.876330858246
  0
LINE
  5
AA
100
AcDbEntity
  8
0
  6
ByLayer
 62
  256
370
   -1
100
AcDbLine
 10
867.5385694270929
 20
2799.876330858246
 11
1607.538569427094
 21
2799.876330858246
  0
ARC
  5
AB
100
AcDbEntity
  8
0
  6
ByLayer
 62
  256
370
   -1
100
AcDbCircle
 10
1027.538569427099
 20
2568.876330858211
 40
281.0000000000326
100
AcDbArc
 50
55.29195072748043
 51
124.7080492725196
  0
ARC
  5
AC
100
AcDbEntity
  8
0
  6
ByLayer
 62
  256
370
   -1
100
AcDbCircle
 10
1468.53856942709
 20
3009.87633085825
 40
280.9999999999952
100
AcDbArc
 50
145.2919507274776
 51
214.7080492725224
  0
ARC
  5
AD
100
AcDbEntity
  8
0
  6
ByLayer
 62
  256
370
   -1
100
AcDbCircle
 10
1006.538569427094
 20
3009.876330858243
 40
280.9999999999991
100
AcDbArc
 50
325.2919507274773
 51
34.70804927252354
  0
ARC
  5
AE
100
AcDbEntity
  8
0
  6
ByLayer
 62
  256
370
   -1
100
AcDbCircle
 10
1447.538569427087
 20
2568.876330858225
 40
281.0000000000211
100
AcDbArc
 50
55.29195072747868
 51
124.7080492725213
  0
ARC
  5
AF
100
AcDbEntity
  8
0
  6
ByLayer
 62
  256
370
   -1
100
AcDbCircle
 10
1447.538569427086
 20
3030.876330858284
 40
281.0000000000356
100
AcDbArc
 50
235.2919507274804
 51
304.7080492725194
  0
ARC
  5
B0
100
AcDbEntity
  8
0
  6
ByLayer
 62
  256
370
   -1
100
AcDbCircle
 10
1006.538569427015
 20
2589.876330858246
 40
281.0000000000641
100
AcDbArc
 50
325.2919507274864
 51
34.70804927251359
  0
ARC
  5
B1
100
AcDbEntity
  8
0
  6
ByLayer
 62
  256
370
   -1
100
AcDbCircle
 10
1468.538569427081
 20
2589.876330858242
 40
280.9999999999878
100
AcDbArc
 50
145.2919507274765
 51
214.7080492725234
  0
ARC
  5
B2
100
AcDbEntity
  8
0
  6
ByLayer
 62
  256
370
   -1
100
AcDbCircle
 10
1027.538569427095
 20
3030.876330858244
 40
280.9999999999969
100
AcDbArc
 50
235.2919507274763
 51
304.7080492725225
  0
DIMENSION
  5
B3
100
AcDbEntity
  8
0
  6
ByLayer
 62
  256
370
   -1
100
AcDbDimension
  2
*D1
 10
1322.990298051384
 20
2835.328059482548
 30
0
 11
1304.619424125008
 21
2866.957185556171
 31
0
 70
   33
 71
    5
 72
    0
  3
Standard
 53
0
210
0
220
0
230
1
100
AcDbAlignedDimension
 13
1237.538569427094
 23
2849.876330858253
 33
0
 14
1287.538569427094
 24
2799.876330858256
 34
0
  0
CIRCLE
  5
B4
100
AcDbEntity
  8
0
  6
ByLayer
 62
  256
370
   -1
100
AcDbCircle
 10
-1148.641574804411
 20
5072.096208366627
 40
150
  0
CIRCLE
  5
B5
100
AcDbEntity
  8
0
  6
ByLayer
 62
  256
370
   -1
100
AcDbCircle
 10
-728.6415748044114
 20
5072.096208366627
 40
150
  0
CIRCLE
  5
B6
100
AcDbEntity
  8
0
  6
ByLayer
 62
  256
370
   -1
100
AcDbCircle
 10
-1148.641574804411
 20
4652.096208366627
 40
150
  0
CIRCLE
  5
B7
100
AcDbEntity
  8
0
  6
ByLayer
 62
  256
370
   -1
100
AcDbCircle
 10
-728.6415748044114
 20
4652.096208366627
 40
150
  0
ARC
  5
B8
100
AcDbEntity
  8
0
  6
ByLayer
 62
  256
370
   -1
100
AcDbCircle
 10
-1148.641574804411
 20
5072.096208366627
 40
160
100
AcDbArc
 50
3.307776868722058e-13
 51
269.9999999999989
  0
ARC
  5
B9
100
AcDbEntity
  8
0
  6
ByLayer
 62
  256
370
   -1
100
AcDbCircle
 10
-728.6415748044114
 20
5072.096208366627
 40
160
100
AcDbArc
 50
269.9999999999998
 51
179.999999999995
  0
ARC
  5
BA
100
AcDbEntity
  8
0
  6
ByLayer
 62
  256
370
   -1
100
AcDbCircle
 10
-728.6415748044114
 20
4652.096208366627
 40
160
100
AcDbArc
 50
179.9999999999995
 51
90.00000000000172
  0
ARC
  5
BB
100
AcDbEntity
  8
0
  6
ByLayer
 62
  256
370
   -1
100
AcDbCircle
 10
-1148.641574804411
 20
4652.096208366627
 40
160
100
AcDbArc
 50
89.99999999999731
 51
3.307776868722058e-13
  0
POINT
  5
BC
100
AcDbEntity
  8
0
  6
ByLayer
 62
  256
370
   -1
100
AcDbPoint
 10
-938.6415748044085
 20
4862.096208366627
  0
ARC
  5
BD
100
AcDbEntity
  8
0
  6
ByLayer
 62
  256
370
   -1
100
AcDbCircle
 10
-1169.641574804411
 20
5072.096208366625
 40
280.9999999999991
100
AcDbArc
 50
336.185885727444
 51
5.597776239375789e-13
  0
ARC
  5
BE
100
AcDbEntity
  8
0
  6
ByLayer
 62
  256
370
   -1
100
AcDbCircle
 10
-707.6415748044135
 20
5072.096208366633
 40
280.9999999999952
100
AcDbArc
 50
180.0000000000007
 51
203.8141142725584
  0
ARC
  5
BF
100
AcDbEntity
  8
0
  6
ByLayer
 62
  256
370
   -1
100
AcDbCircle
 10
-1148.641574804403
 20
4631.096208366593
 40
281.0000000000326
100
AcDbArc
 50
66.18588572744729
 51
90.00000000000126
  0
ARC
  5
C0
100
AcDbEntity
  8
0
  6
ByLayer
 62
  256
370
   -1
100
AcDbCircle
 10
-1148.641574804407
 20
5093.096208366625
 40
280.9999999999969
100
AcDbArc
 50
269.9999999999995
 51
293.8141142725566
  0
ARC
  5
C1
100
AcDbEntity
  8
0
  6
ByLayer
 62
  256
370
   -1
100
AcDbCircle
 10
-707.6415748044224
 20
4652.096208366625
 40
280.9999999999878
100
AcDbArc
 50
156.185885727442
 51
179.9999999999993
  0
ARC
  5
C2
100
AcDbEntity
  8
0
  6
ByLayer
 62
  256
370
   -1
100
AcDbCircle
 10
-1169.64157480449
 20
4652.096208366627
 40
281.0000000000641
100
AcDbArc
 50
0
 51
23.8141142725501
  0
ARC
  5
C3
100
AcDbEntity
  8
0
  6
ByLayer
 62
  256
370
   -1
100
AcDbCircle
 10
-728.6415748044165
 20
4631.096208366606
 40
281.0000000000211
100
AcDbArc
 50
89.99999999999866
 51
113.8141142725534
  0
ARC
  5
C4
100
AcDbEntity
  8
0
  6
ByLayer
 62
  256
370
   -1
100
AcDbCircle
 10
-728.6415748044174
 20
5093.096208366665
 40
281.0000000000356
100
AcDbArc
 50
246.1858857274486
 51
270.0000000000015
  0
ARC
  5
C5
100
AcDbEntity
  8
0
  6
ByLayer
 62
  256
370
   -1
100
AcDbCircle
 10
-938.6415748044085
 20
4862.096208366627
 40
99.99999999999785
100
AcDbArc
 50
74.88500071647904
 51
105.1149992835212
  0
ARC
  5
C6
100
AcDbEntity
  8
0
  6
ByLayer
 62
  256
370
   -1
100
AcDbCircle
 10
-938.6415748044085
 20
4862.096208366627
 40
100.0000000000006
100
AcDbArc
 50
164.8850007164765
 51
195.1149992835212
  0
ARC
  5
C7
100
AcDbEntity
  8
0
  6
ByLayer
 62
  256
370
   -1
100
AcDbCircle
 10
-938.6415748044085
 20
4862.096208366627
 40
100.0000000000013
100
AcDbArc
 50
254.8850007164776
 51
285.1149992835163
  0
ARC
  5
C8
100
AcDbEntity
  8
0
  6
ByLayer
 62
  256
370
   -1
100
AcDbCircle
 10
-938.6415748044085
 20
4862.096208366627
 40
100.0000000000001
100
AcDbArc
 50
344.8850007164756
 51
15.11499928352512
  0
POINT
  5
C9
100
AcDbEntity
  8
0
  6
ByLayer
 62
  256
370
   -1
100
AcDbPoint
 10
-728.6415748044114
 20
4652.096208366627
  0
POINT
  5
CA
100
AcDbEntity
  8
0
  6
ByLayer
 62
  256
370
   -1
100
AcDbPoint
 10
-1148.641574804411
 20
4652.096208366627
  0
POINT
  5
CB
100
AcDbEntity
  8
0
  6
ByLayer
 62
  256
370
   -1
100
AcDbPoint
 10
-1148.641574804411
 20
5072.096208366627
  0
POINT
  5
CC
100
AcDbEntity
  8
0
  6
ByLayer
 62
  256
370
   -1
100
AcDbPoint
 10
-728.6415748044114
 20
5072.096208366627
  0
CIRCLE
  5
CD
100
AcDbEntity
  8
0
  6
ByLayer
 62
  256
370
   -1
100
AcDbCircle
 10
-988.6415748044085
 20
4862.096208366627
 40
20
  0
CIRCLE
  5
CE
100
AcDbEntity
  8
0
  6
ByLayer
 62
  256
370
   -1
100
AcDbCircle
 10
-938.6415748044085
 20
4812.096208366627
 40
20
  0
CIRCLE
  5
CF
100
AcDbEntity
  8
0
  6
ByLayer
 62
  256
370
   -1
100
AcDbCircle
 10
-888.6415748044085
 20
4862.096208366627
 40
20
  0
CIRCLE
  5
D0
100
AcDbEntity
  8
0
  6
ByLayer
 62
  256
370
   -1
100
AcDbCircle
 10
-938.6415748044085
 20
4912.096208366627
 40
20
  0
LINE
  5
D1
100
AcDbEntity
  8
top
  6
ByLayer
 62
  256
370
   -1
100
AcDbLine
 10
530.1919318527588
 20
4751.804246862903
 11
600.6566471877494
 21
4822.268962197883
  0
LINE
  5
D2
100
AcDbEntity
  8
top
  6
ByLayer
 62
  256
370
   -1
100
AcDbLine
 10
600.6566471877494
 20
4822.268962197883
 11
638.4756847364096
 21
4767.876580270697
  0
LINE
  5
D3
100
AcDbEntity
  8
top
  6
ByLayer
 62
  256
370
   -1
100
AcDbLine
 10
638.4756847364096
 20
4767.876580270697
 11
584.5843137799536
 21
4713.985209314239
  0
LINE
  5
D4
100
AcDbEntity
  8
top
  6
ByLayer
 62
  256
370
   -1
100
AcDbLine
 10
584.5843137799536
 20
4713.985209314239
 11
530.1919318527587
 21
4751.804246862902
  0
LINE
  5
D5
100
AcDbEntity
  8
top
  6
ByLayer
 62
  256
370
   -1
100
AcDbLine
 10
504.1162070743852
 20
4848.34468697627
 11
714.1162070743823
 21
4638.34468697627
  0
DIMENSION
  5
D6
100
AcDbEntity
  8
top
  6
ByLayer
 62
  256
370
   -1
100
AcDbDimension
  2
*D2
 10
580.816533874887
 20
4802.428848885027
 30
0
 11
610.4985148174741
 21
4786.005120089687
 31
0
 70
   33
 71
    5
  3
Standard
 53
0
210
0
220
0
230
1
100
AcDbAlignedDimension
 13
611.5299992581831
 23
4740.93089479247
 33
0
 14
565.4242895202569
 24
4787.036604530397
 34
0
  0
LINE
  5
D7
100
AcDbEntity
  8
top22
  6
ByLayer
 62
  256
370
   -1
100
AcDbLine
 10
-856.1938641861003
 20
4790.303550216727
 11
-840.8729753237211
 21
4777.447798022996
  0
LINE
  5
D8
100
AcDbEntity
  8
top22
  6
ByLayer
 62
  256
370
   -1
100
AcDbLine
 10
-840.8729753237211
 20
4777.447798022996
 11
-838.3018248849745
 21
4780.511975795472
  0
LINE
  5
D9
100
AcDbEntity
  8
top22
  6
ByLayer
 62
  256
370
   -1
100
AcDbLine
 10
-838.3018248849745
 20
4780.511975795472
 11
-853.6227137473539
 21
4793.367727989204
  0
LINE
  5
DA
100
AcDbEntity
  8
top22
  6
ByLayer
 62
  256
370
   -1
100
AcDbLine
 10
-853.6227137473539
 20
4793.367727989204
 11
-856.1938641861003
 21
4790.303550216727
  0
LINE
  5
DB
100
AcDbEntity
  8
top22
  6
ByLayer
 62
  256
370
   -1
100
AcDbLine
 10
-866.8489166545082
 20
4944.543918984936
 11
-853.9931644607768
 21
4959.864807847314
  0
LINE
  5
DC
100
AcDbEntity
  8
top22
  6
ByLayer
 62
  256
370
   -1
100
AcDbLine
 10
-853.9931644607768
 20
4959.864807847314
 11
-857.0573422332533
 21
4962.435958286062
  0
LINE
  5
DD
100
AcDbEntity
  8
top22
  6
ByLayer
 62
  256
370
   -1
100
AcDbLine
 10
-857.0573422332533
 20
4962.435958286062
 11
-869.9130944269847
 21
4947.115069423682
  0
LINE
  5
DE
100
AcDbEntity
  8
top22
  6
ByLayer
 62
  256
370
   -1
100
AcDbLine
 10
-869.9130944269847
 20
4947.115069423682
 11
-866.8489166545082
 21
4944.543918984936
  0
LINE
  5
DF
100
AcDbEntity
  8
top22
  6
ByLayer
 62
  256
370
   -1
100
AcDbLine
 10
-1021.089285422717
 20
4933.888866516528
 11
-1036.410174285096
 21
4946.744618710259
  0
LINE
  5
E0
100
AcDbEntity
  8
top22
  6
ByLayer
 62
  256
370
   -1
100
AcDbLine
 10
-1036.410174285096
 20
4946.744618710259
 11
-1038.981324723842
 21
4943.680440937782
  0
LINE
  5
E1
100
AcDbEntity
  8
top22
  6
ByLayer
 62
  256
370
   -1
100
AcDbLine
 10
-1038.981324723842
 20
4943.680440937782
 11
-1023.660435861463
 21
4930.824688744051
  0
LINE
  5
E2
100
AcDbEntity
  8
top22
  6
ByLayer
 62
  256
370
   -1
100
AcDbLine
 10
-1023.660435861463
 20
4930.824688744051
 11
-1021.089285422717
 21
4933.888866516528
  0
LINE
  5
E3
100
AcDbEntity
  8
top22
  6
ByLayer
 62
  256
370
   -1
100
AcDbLine
 10
-1010.434232954309
 20
4779.648497748319
 11
-1023.28998514804
 21
4764.32760888594
  0
LINE
  5
E4
100
AcDbEntity
  8
top22
  6
ByLayer
 62
  256
370
   -1
100
AcDbLine
 10
-1023.28998514804
 20
4764.32760888594
 11
-1020.225807375563
 21
4761.756458447193
  0
LINE
  5
E5
100
AcDbEntity
  8
top22
  6
ByLayer
 62
  256
370
   -1
100
AcDbLine
 10
-1020.225807375563
 20
4761.756458447193
 11
-1007.370055181832
 21
4777.077347309572
  0
LINE
  5
E6
100
AcDbEntity
  8
top22
  6
ByLayer
 62
  256
370
   -1
100
AcDbLine
 10
-1007.370055181832
 20
4777.077347309572
 11
-1010.434232954309
 21
4779.648497748319
  0
ARC
  5
E7
100
AcDbEntity
  8
0
  6
ByLayer
 62
  256
370
   -1
100
AcDbCircle
 10
-2150.984643703158
 20
5071.619523130476
 40
160
100
AcDbArc
 50
3.307776868722058e-13
 51
269.9999999999989
  0
ARC
  5
E8
100
AcDbEntity
  8
0
  6
ByLayer
 62
  256
370
   -1
100
AcDbCircle
 10
-1730.984643703158
 20
5071.619523130476
 40
160
100
AcDbArc
 50
269.9999999999998
 51
179.999999999995
  0
ARC
  5
E9
100
AcDbEntity
  8
0
  6
ByLayer
 62
  256
370
   -1
100
AcDbCircle
 10
-1730.984643703158
 20
4651.619523130476
 40
160
100
AcDbArc
 50
179.9999999999995
 51
90.00000000000172
  0
ARC
  5
EA
100
AcDbEntity
  8
0
  6
ByLayer
 62
  256
370
   -1
100
AcDbCircle
 10
-2150.984643703158
 20
4651.619523130476
 40
160
100
AcDbArc
 50
89.99999999999731
 51
3.307776868722058e-13
  0
POINT
  5
EB
100
AcDbEntity
  8
0
  6
ByLayer
 62
  256
370
   -1
100
AcDbPoint
 10
-1940.984643703155
 20
4861.619523130476
  0
ARC
  5
EC
100
AcDbEntity
  8
0
  6
ByLayer
 62
  256
370
   -1
100
AcDbCircle
 10
-2171.984643703157
 20
5071.619523130475
 40
280.9999999999991
100
AcDbArc
 50
336.185885727444
 51
5.597776239375789e-13
  0
ARC
  5
ED
100
AcDbEntity
  8
0
  6
ByLayer
 62
  256
370
   -1
100
AcDbCircle
 10
-1709.98464370316
 20
5071.619523130481
 40
280.9999999999952
100
AcDbArc
 50
180.0000000000007
 51
203.8141142725584
  0
ARC
  5
EE
100
AcDbEntity
  8
0
  6
ByLayer
 62
  256
370
   -1
100
AcDbCircle
 10
-2150.98464370315
 20
4630.619523130442
 40
281.0000000000326
100
AcDbArc
 50
66.18588572744729
 51
90.00000000000126
  0
ARC
  5
EF
100
AcDbEntity
  8
0
  6
ByLayer
 62
  256
370
   -1
100
AcDbCircle
 10
-2150.984643703154
 20
5092.619523130475
 40
280.9999999999969
100
AcDbArc
 50
269.9999999999995
 51
293.8141142725566
  0
ARC
  5
F0
100
AcDbEntity
  8
0
  6
ByLayer
 62
  256
370
   -1
100
AcDbCircle
 10
-1709.984643703169
 20
4651.619523130475
 40
280.9999999999878
100
AcDbArc
 50
156.185885727442
 51
179.9999999999993
  0
ARC
  5
F1
100
AcDbEntity
  8
0
  6
ByLayer
 62
  256
370
   -1
100
AcDbCircle
 10
-2171.984643703236
 20
4651.619523130476
 40
281.0000000000641
100
AcDbArc
 50
0
 51
23.8141142725501
  0
ARC
  5
F2
100
AcDbEntity
  8
0
  6
ByLayer
 62
  256
370
   -1
100
AcDbCircle
 10
-1730.984643703163
 20
4630.619523130455
 40
281.0000000000211
100
AcDbArc
 50
89.99999999999866
 51
113.8141142725534
  0
ARC
  5
F3
100
AcDbEntity
  8
0
  6
ByLayer
 62
  256
370
   -1
100
AcDbCircle
 10
-1730.984643703164
 20
5092.619523130515
 40
281.0000000000356
100
AcDbArc
 50
246.1858857274486
 51
270.0000000000015
  0
ARC
  5
F4
100
AcDbEntity
  8
0
  6
ByLayer
 62
  256
370
   -1
100
AcDbCircle
 10
-1940.984643703155
 20
4861.619523130476
 40
99.99999999999785
100
AcDbArc
 50
74.88500071647904
 51
105.1149992835212
  0
ARC
  5
F5
100
AcDbEntity
  8
0
  6
ByLayer
 62
  256
370
   -1
100
AcDbCircle
 10
-1940.984643703155
 20
4861.619523130476
 40
100.0000000000006
100
AcDbArc
 50
164.8850007164765
 51
195.1149992835212
  0
ARC
  5
F6
100
AcDbEntity
  8
0
  6
ByLayer
 62
  256
370
   -1
100
AcDbCircle
 10
-1940.984643703155
 20
4861.619523130476
 40
100.0000000000013
100
AcDbArc
 50
254.8850007164776
 51
285.1149992835163
  0
ARC
  5
F7
100
AcDbEntity
  8
0
  6
ByLayer
 62
  256
370
   -1
100
AcDbCircle
 10
-1940.984643703155
 20
4861.619523130476
 40
100.0000000000001
100
AcDbArc
 50
344.8850007164756
 51
15.11499928352512
  0
POINT
  5
F8
100
AcDbEntity
  8
0
  6
ByLayer
 62
  256
370
   -1
100
AcDbPoint
 10
-1730.984643703158
 20
4651.619523130476
  0
POINT
  5
F9
100
AcDbEntity
  8
0
  6
ByLayer
 62
  256
370
   -1
100
AcDbPoint
 10
-2150.984643703158
 20
4651.619523130476
  0
POINT
  5
FA
100
AcDbEntity
  8
0
  6
ByLayer
 62
  256
370
   -1
100
AcDbPoint
 10
-2150.984643703158
 20
5071.619523130476
  0
POINT
  5
FB
100
AcDbEntity
  8
0
  6
ByLayer
 62
  256
370
   -1
100
AcDbPoint
 10
-1730.984643703158
 20
5071.619523130476
  0
ARC
  5
FC
100
AcDbEntity
  8
0
  6
ByLayer
 62
  256
370
   -1
100
AcDbCircle
 10
-1304.747514514823
 20
5968.74039024743
 40
1208.276092609753
100
AcDbArc
 50
226.7064150172187
 51
233.6181797497886
  0
ARC
  5
FD
100
AcDbEntity
  8
0
  6
ByLayer
 62
  256
370
   -1
100
AcDbCircle
 10
-3048.105510820007
 20
4225.382393942184
 40
1208.276092609649
100
AcDbArc
 50
36.38182025021275
 51
43.29358498278344
  0
ARC
  5
FE
100
AcDbEntity
  8
0
  6
ByLayer
 62
  256
370
   -1
100
AcDbCircle
 10
-2577.221772890864
 20
5968.740390246358
 40
1208.276092608518
100
AcDbArc
 50
306.3818202502176
 51
313.2935849827945
  0
ARC
  5
FF
100
AcDbEntity
  8
0
  6
ByLayer
 62
  256
370
   -1
100
AcDbCircle
 10
-833.8637765867784
 20
4225.382393942403
 40
1208.276092609132
100
AcDbArc
 50
136.7064150172091
 51
143.6181797497824
  0
ARC
  5
100
100
AcDbEntity
  8
0
  6
ByLayer
 62
  256
370
   -1
100
AcDbCircle
 10
-833.8637765846636
 20
5497.85665231972
 40
1208.276092611542
100
AcDbArc
 50
216.3818202502027
 51
223.2935849827627
  0
ARC
  5
101
100
AcDbEntity
  8
0
  6
ByLayer
 62
  256
370
   -1
100
AcDbCircle
 10
-2577.221772892909
 20
3754.498656011283
 40
1208.276092612397
100
AcDbArc
 50
46.70641501724262
 51
53.61817974979747
  0
ARC
  5
102
100
AcDbEntity
  8
0
  6
ByLayer
 62
  256
370
   -1
100
AcDbCircle
 10
-1304.747514513243
 20
3754.498656010785
 40
1208.276092612908
100
AcDbArc
 50
126.3818202501948
 51
133.2935849827471
  0
ARC
  5
103
100
AcDbEntity
  8
0
  6
ByLayer
 62
  256
370
   -1
100
AcDbCircle
 10
-3048.105510823065
 20
5497.856652320586
 40
1208.276092613199
100
AcDbArc
 50
316.7064150172532
 51
323.618179749804
  0
ARC
  5
104
100
AcDbEntity
  8
0
  6
ByLayer
 62
  256
370
   -1
100
AcDbCircle
 10
-2150.984643703158
 20
4651.619523130476
 40
150
100
AcDbArc
 50
59.71708479945245
 51
30.28291520054562
  0
ARC
  5
105
100
AcDbEntity
  8
0
  6
ByLayer
 62
  256
370
   -1
100
AcDbCircle
 10
-1730.984643703158
 20
4651.619523130476
 40
150
100
AcDbArc
 50
149.7170847995342
 51
120.2829152004676
  0
ARC
  5
106
100
AcDbEntity
  8
0
  6
ByLayer
 62
  256
370
   -1
100
AcDbCircle
 10
-1730.984643703158
 20
5071.619523130476
 40
150
100
AcDbArc
 50
239.7170847994824
 51
210.2829152005199
  0
ARC
  5
107
100
AcDbEntity
  8
0
  6
ByLayer
 62
  256
370
   -1
100
AcDbCircle
 10
-2150.984643703158
 20
5071.619523130476
 40
150
100
AcDbArc
 50
329.7170847994483
 51
300.2829152005535
  0
ARC
  5
108
100
AcDbEntity
  8
0
  6
ByLayer
 62
  256
370
   -1
100
AcDbCircle
 10
-2150.984643703158
 20
4651.619523130476
 40
25
100
AcDbArc
 50
134.9999999978503
 51
315.000000001807
  0
ARC
  5
109
100
AcDbEntity
  8
0
  6
ByLayer
 62
  256
370
   -1
100
AcDbCircle
 10
-1730.984643703158
 20
4651.619523130476
 40
25
100
AcDbArc
 50
224.9999999999949
 51
45
  0
ARC
  5
10A
100
AcDbEntity
  8
0
  6
ByLayer
 62
  256
370
   -1
100
AcDbCircle
 10
-1730.984643703158
 20
5071.619523130476
 40
25
100
AcDbArc
 50
315.0000000060327
 51
135.0000000000004
  0
ARC
  5
10B
100
AcDbEntity
  8
0
  6
ByLayer
 62
  256
370
   -1
100
AcDbCircle
 10
-2150.984643703158
 20
5071.619523130476
 40
25
100
AcDbArc
 50
44.99999999999817
 51
224.999999999993
  0
CIRCLE
  5
10C
100
AcDbEntity
  8
0
  6
ByLayer
 62
  256
370
   -1
100
AcDbCircle
 10
-1990.984643703155
 20
4861.619523130476
 40
20
  0
CIRCLE
  5
10D
100
AcDbEntity
  8
0
  6
ByLayer
 62
  256
370
   -1
100
AcDbCircle
 10
-1940.984643703155
 20
4811.619523130476
 40
20
  0
CIRCLE
  5
10E
100
AcDbEntity
  8
0
  6
ByLayer
 62
  256
370
   -1
100
AcDbCircle
 10
-1890.984643703155
 20
4861.619523130476
 40
20
  0
CIRCLE
  5
10F
100
AcDbEntity
  8
0
  6
ByLayer
 62
  256
370
   -1
100
AcDbCircle
 10
-1940.984643703155
 20
4911.619523130476
 40
20
  0
CIRCLE
  5
110
100
AcDbEntity
  8
0
  6
ByLayer
 62
  256
370
   -1
100
AcDbCircle
 10
-1714.484643703158
 20
4651.619523130476
 40
1.5
  0
CIRCLE
  5
111
100
AcDbEntity
  8
0
  6
ByLayer
 62
  256
370
   -1
100
AcDbCircle
 10
-1747.484643703158
 20
4651.619523130476
 40
1.5
  0
CIRCLE
  5
112
100
AcDbEntity
  8
0
  6
ByLayer
 62
  256
370
   -1
100
AcDbCircle
 10
-1730.984643703158
 20
4668.119523130476
 40
1.5
  0
CIRCLE
  5
113
100
AcDbEntity
  8
0
  6
ByLayer
 62
  256
370
   -1
100
AcDbCircle
 10
-1730.984643703158
 20
4635.119523130476
 40
1.5
  0
CIRCLE
  5
114
100
AcDbEntity
  8
0
  6
ByLayer
 62
  256
370
   -1
100
AcDbCircle
 10
-2134.484643703158
 20
4651.619523130476
 40
1.5
  0
CIRCLE
  5
115
100
AcDbEntity
  8
0
  6
ByLayer
 62
  256
370
   -1
100
AcDbCircle
 10
-2167.484643703158
 20
4651.619523130476
 40
1.5
  0
CIRCLE
  5
116
100
AcDbEntity
  8
0
  6
ByLayer
 62
  256
370
   -1
100
AcDbCircle
 10
-2150.984643703158
 20
4668.119523130476
 40
1.5
  0
CIRCLE
  5
117
100
AcDbEntity
  8
0
  6
ByLayer
 62
  256
370
   -1
100
AcDbCircle
 10
-2150.984643703158
 20
4635.119523130476
 40
1.5
  0
CIRCLE
  5
118
100
AcDbEntity
  8
0
  6
ByLayer
 62
  256
370
   -1
100
AcDbCircle
 10
-2134.484643703158
 20
5071.619523130476
 40
1.5
  0
CIRCLE
  5
119
100
AcDbEntity
  8
0
  6
ByLayer
 62
  256
370
   -1
100
AcDbCircle
 10
-2167.484643703158
 20
5071.619523130476
 40
1.5
  0
CIRCLE
  5
11A
100
AcDbEntity
  8
0
  6
ByLayer
 62
  256
370
   -1
100
AcDbCircle
 10
-2150.984643703158
 20
5088.119523130476
 40
1.5
  0
CIRCLE
  5
11B
100
AcDbEntity
  8
0
  6
ByLayer
 62
  256
370
   -1
100
AcDbCircle
 10
-2150.984643703158
 20
5055.119523130476
 40
1.5
  0
CIRCLE
  5
11C
100
AcDbEntity
  8
0
  6
ByLayer
 62
  256
370
   -1
100
AcDbCircle
 10
-1714.484643703158
 20
5071.619523130476
 40
1.5
  0
CIRCLE
  5
11D
100
AcDbEntity
  8
0
  6
ByLayer
 62
  256
370
   -1
100
AcDbCircle
 10
-1747.484643703158
 20
5071.619523130476
 40
1.5
  0
CIRCLE
  5
11E
100
AcDbEntity
  8
0
  6
ByLayer
 62
  256
370
   -1
100
AcDbCircle
 10
-1730.984643703158
 20
5088.119523130476
 40
1.5
  0
CIRCLE
  5
11F
100
AcDbEntity
  8
0
  6
ByLayer
 62
  256
370
   -1
100
AcDbCircle
 10
-1730.984643703158
 20
5055.119523130476
 40
1.5
  0
LINE
  5
120
100
AcDbEntity
  8
top22
  6
ByLayer
 62
  256
370
   -1
100
AcDbLine
 10
-1872.256163325734
 20
4776.60066207342
 11
-1859.400411132003
 21
4761.27977321104
  0
LINE
  5
121
100
AcDbEntity
  8
top22
  6
ByLayer
 62
  256
370
   -1
100
AcDbLine
 10
-1859.400411132003
 20
4761.27977321104
 11
-1856.336233359527
 21
4763.850923649786
  0
LINE
  5
122
100
AcDbEntity
  8
top22
  6
ByLayer
 62
  256
370
   -1
100
AcDbLine
 10
-1856.336233359527
 20
4763.850923649786
 11
-1869.191985553257
 21
4779.171812512167
  0
LINE
  5
123
100
AcDbEntity
  8
top22
  6
ByLayer
 62
  256
370
   -1
100
AcDbLine
 10
-1869.191985553257
 20
4779.171812512167
 11
-1872.256163325734
 21
4776.60066207342
  0
LINE
  5
124
100
AcDbEntity
  8
top22
  6
ByLayer
 62
  256
370
   -1
100
AcDbLine
 10
-1855.965782646099
 20
4930.348003507898
 11
-1840.644893783719
 21
4943.203755701628
  0
LINE
  5
125
100
AcDbEntity
  8
top22
  6
ByLayer
 62
  256
370
   -1
100
AcDbLine
 10
-1840.644893783719
 20
4943.203755701628
 11
-1843.216044222465
 21
4946.267933474105
  0
LINE
  5
126
100
AcDbEntity
  8
top22
  6
ByLayer
 62
  256
370
   -1
100
AcDbLine
 10
-1843.216044222465
 20
4946.267933474105
 11
-1858.536933084845
 21
4933.412181280375
  0
LINE
  5
127
100
AcDbEntity
  8
top22
  6
ByLayer
 62
  256
370
   -1
100
AcDbLine
 10
-1858.536933084845
 20
4933.412181280375
 11
-1855.965782646099
 21
4930.348003507898
  0
LINE
  5
128
100
AcDbEntity
  8
top22
  6
ByLayer
 62
  256
370
   -1
100
AcDbLine
 10
-2009.713124080577
 20
4946.638384187533
 11
-2022.568876274308
 21
4961.959273049913
  0
LINE
  5
129
100
AcDbEntity
  8
top22
  6
ByLayer
 62
  256
370
   -1
100
AcDbLine
 10
-2022.568876274308
 20
4961.959273049913
 11
-2025.633054046784
 21
4959.388122611166
  0
LINE
  5
12A
100
AcDbEntity
  8
top22
  6
ByLayer
 62
  256
370
   -1
100
AcDbLine
 10
-2025.633054046784
 20
4959.388122611166
 11
-2012.777301853053
 21
4944.067233748786
  0
LINE
  5
12B
100
AcDbEntity
  8
top22
  6
ByLayer
 62
  256
370
   -1
100
AcDbLine
 10
-2012.777301853053
 20
4944.067233748786
 11
-2009.713124080577
 21
4946.638384187533
  0
LINE
  5
12C
100
AcDbEntity
  8
top22
  6
ByLayer
 62
  256
370
   -1
100
AcDbLine
 10
-2026.003504760212
 20
4792.891042753055
 11
-2041.324393622592
 21
4780.035290559324
  0
LINE
  5
12D
100
AcDbEntity
  8
top22
  6
ByLayer
 62
  256
370
   -1
100
AcDbLine
 10
-2041.324393622592
 20
4780.035290559324
 11
-2038.753243183845
 21
4776.971112786848
  0
LINE
  5
12E
100
AcDbEntity
  8
top22
  6
ByLayer
 62
  256
370
   -1
100
AcDbLine
 10
-2038.753243183845
 20
4776.971112786848
 11
-2023.432354321465
 21
4789.826864980578
  0
LINE
  5
12F
100
AcDbEntity
  8
top22
  6
ByLayer
 62
  256
370
   -1
100
AcDbLine
 10
-2023.432354321465
 20
4789.826864980578
 11
-2026.003504760212
 21
4792.891042753055
  0
CIRCLE
  5
130
100
AcDbEntity
  8
0
  6
ByLayer
 62
  256
370
   -1
100
AcDbCircle
 10
-63.76330387747728
 20
5076.152129594373
 40
150
  0
CIRCLE
  5
131
100
AcDbEntity
  8
0
  6
ByLayer
 62
  256
370
   -1
100
AcDbCircle
 10
356.2366961225223
 20
5076.152129594373
 40
150
  0
CIRCLE
  5
132
100
AcDbEntity
  8
0
  6
ByLayer
 62
  256
370
   -1
100
AcDbCircle
 10
-63.76330387747728
 20
4656.152129594373
 40
150
  0
CIRCLE
  5
133
100
AcDbEntity
  8
0
  6
ByLayer
 62
  256
370
   -1
100
AcDbCircle
 10
356.2366961225223
 20
4656.152129594373
 40
150
  0
ARC
  5
134
100
AcDbEntity
  8
0
  6
ByLayer
 62
  256
370
   -1
100
AcDbCircle
 10
-63.76330387747728
 20
5076.152129594373
 40
160
100
AcDbArc
 50
3.307776868722058e-13
 51
269.9999999999989
  0
ARC
  5
135
100
AcDbEntity
  8
0
  6
ByLayer
 62
  256
370
   -1
100
AcDbCircle
 10
356.2366961225223
 20
5076.152129594373
 40
160
100
AcDbArc
 50
269.9999999999998
 51
179.999999999995
  0
ARC
  5
136
100
AcDbEntity
  8
0
  6
ByLayer
 62
  256
370
   -1
100
AcDbCircle
 10
356.2366961225223
 20
4656.152129594373
 40
160
100
AcDbArc
 50
179.9999999999995
 51
90.00000000000172
  0
ARC
  5
137
100
AcDbEntity
  8
0
  6
ByLayer
 62
  256
370
   -1
100
AcDbCircle
 10
-63.76330387747728
 20
4656.152129594373
 40
160
100
AcDbArc
 50
89.99999999999731
 51
3.307776868722058e-13
  0
POINT
  5
138
100
AcDbEntity
  8
0
  6
ByLayer
 62
  256
370
   -1
100
AcDbPoint
 10
146.2366961225252
 20
4866.152129594373
  0
ARC
  5
139
100
AcDbEntity
  8
0
  6
ByLayer
 62
  256
370
   -1
100
AcDbCircle
 10
-84.76330387747728
 20
5076.152129594371
 40
280.9999999999991
100
AcDbArc
 50
336.185885727444
 51
5.597776239375789e-13
  0
ARC
  5
13A
100
AcDbEntity
  8
0
  6
ByLayer
 62
  256
370
   -1
100
AcDbCircle
 10
377.2366961225202
 20
5076.152129594378
 40
280.9999999999952
100
AcDbArc
 50
180.0000000000007
 51
203.8141142725584
  0
ARC
  5
13B
100
AcDbEntity
  8
0
  6
ByLayer
 62
  256
370
   -1
100
AcDbCircle
 10
-63.76330387746933
 20
4635.152129594338
 40
281.0000000000326
100
AcDbArc
 50
66.18588572744729
 51
90.00000000000126
  0
ARC
  5
13C
100
AcDbEntity
  8
0
  6
ByLayer
 62
  256
370
   -1
100
AcDbCircle
 10
-63.76330387747319
 20
5097.152129594371
 40
280.9999999999969
100
AcDbArc
 50
269.9999999999995
 51
293.8141142725566
  0
ARC
  5
13D
100
AcDbEntity
  8
0
  6
ByLayer
 62
  256
370
   -1
100
AcDbCircle
 10
377.2366961225114
 20
4656.152129594371
 40
280.9999999999878
100
AcDbArc
 50
156.185885727442
 51
179.9999999999993
  0
ARC
  5
13E
100
AcDbEntity
  8
0
  6
ByLayer
 62
  256
370
   -1
100
AcDbCircle
 10
-84.76330387755618
 20
4656.152129594373
 40
281.0000000000641
100
AcDbArc
 50
0
 51
23.8141142725501
  0
ARC
  5
13F
100
AcDbEntity
  8
0
  6
ByLayer
 62
  256
370
   -1
100
AcDbCircle
 10
356.2366961225173
 20
4635.152129594352
 40
281.0000000000211
100
AcDbArc
 50
89.99999999999866
 51
113.8141142725534
  0
ARC
  5
140
100
AcDbEntity
  8
0
  6
ByLayer
 62
  256
370
   -1
100
AcDbCircle
 10
356.2366961225164
 20
5097.152129594411
 40
281.0000000000356
100
AcDbArc
 50
246.1858857274486
 51
270.0000000000015
  0
ARC
  5
141
100
AcDbEntity
  8
0
  6
ByLayer
 62
  256
370
   -1
100
AcDbCircle
 10
146.2366961225252
 20
4866.152129594373
 40
99.99999999999785
100
AcDbArc
 50
74.88500071647904
 51
105.1149992835212
  0
ARC
  5
142
100
AcDbEntity
  8
0
  6
ByLayer
 62
  256
370
   -1
100
AcDbCircle
 10
146.2366961225252
 20
4866.152129594373
 40
100.0000000000006
100
AcDbArc
 50
164.8850007164765
 51
195.1149992835212
  0
ARC
  5
143
100
AcDbEntity
  8
0
  6
ByLayer
 62
  256
370
   -1
100
AcDbCircle
 10
146.2366961225252
 20
4866.152129594373
 40
100.0000000000013
100
AcDbArc
 50
254.8850007164776
 51
285.1149992835163
  0
ARC
  5
144
100
AcDbEntity
  8
0
  6
ByLayer
 62
  256
370
   -1
100
AcDbCircle
 10
146.2366961225252
 20
4866.152129594373
 40
100.0000000000001
100
AcDbArc
 50
344.8850007164756
 51
15.11499928352512
  0
POINT
  5
145
100
AcDbEntity
  8
0
  6
ByLayer
 62
  256
370
   -1
100
AcDbPoint
 10
356.2366961225223
 20
4656.152129594373
  0
POINT
  5
146
100
AcDbEntity
  8
0
  6
ByLayer
 62
  256
370
   -1
100
AcDbPoint
 10
-63.76330387747728
 20
4656.152129594373
  0
POINT
  5
147
100
AcDbEntity
  8
0
  6
ByLayer
 62
  256
370
   -1
100
AcDbPoint
 10
-63.76330387747728
 20
5076.152129594373
  0
POINT
  5
148
100
AcDbEntity
  8
0
  6
ByLayer
 62
  256
370
   -1
100
AcDbPoint
 10
356.2366961225223
 20
5076.152129594373
  0
CIRCLE
  5
149
100
AcDbEntity
  8
0
  6
ByLayer
 62
  256
370
   -1
100
AcDbCircle
 10
96.23669612252522
 20
4866.152129594373
 40
20
  0
CIRCLE
  5
14A
100
AcDbEntity
  8
0
  6
ByLayer
 62
  256
370
   -1
100
AcDbCircle
 10
146.2366961225252
 20
4816.152129594373
 40
20
  0
CIRCLE
  5
14B
100
AcDbEntity
  8
0
  6
ByLayer
 62
  256
370
   -1
100
AcDbCircle
 10
196.2366961225252
 20
4866.152129594373
 40
20
  0
CIRCLE
  5
14C
100
AcDbEntity
  8
0
  6
ByLayer
 62
  256
370
   -1
100
AcDbCircle
 10
146.2366961225252
 20
4916.152129594373
 40
20
  0
LINE
  5
14D
100
AcDbEntity
  8
top22
  6
ByLayer
 62
  256
370
   -1
100
AcDbLine
 10
228.6844067408334
 20
4794.359471444473
 11
244.0052956032126
 21
4781.503719250742
  0
LINE
  5
14E
100
AcDbEntity
  8
top22
  6
ByLayer
 62
  256
370
   -1
100
AcDbLine
 10
244.0052956032126
 20
4781.503719250742
 11
246.5764460419592
 21
4784.567897023217
  0
LINE
  5
14F
100
AcDbEntity
  8
top22
  6
ByLayer
 62
  256
370
   -1
100
AcDbLine
 10
246.5764460419592
 20
4784.567897023217
 11
231.2555571795798
 21
4797.423649216949
  0
LINE
  5
150
100
AcDbEntity
  8
top22
  6
ByLayer
 62
  256
370
   -1
100
AcDbLine
 10
231.2555571795798
 20
4797.423649216949
 11
228.6844067408334
 21
4794.359471444473
  0
LINE
  5
151
100
AcDbEntity
  8
top22
  6
ByLayer
 62
  256
370
   -1
100
AcDbLine
 10
218.0293542724255
 20
4948.599840212682
 11
230.8851064661569
 21
4963.92072907506
  0
LINE
  5
152
100
AcDbEntity
  8
top22
  6
ByLayer
 62
  256
370
   -1
100
AcDbLine
 10
230.8851064661569
 20
4963.92072907506
 11
227.8209286936804
 21
4966.491879513807
  0
LINE
  5
153
100
AcDbEntity
  8
top22
  6
ByLayer
 62
  256
370
   -1
100
AcDbLine
 10
227.8209286936804
 20
4966.491879513807
 11
214.965176499949
 21
4951.170990651428
  0
LINE
  5
154
100
AcDbEntity
  8
top22
  6
ByLayer
 62
  256
370
   -1
100
AcDbLine
 10
214.965176499949
 20
4951.170990651428
 11
218.0293542724255
 21
4948.599840212682
  0
LINE
  5
155
100
AcDbEntity
  8
top22
  6
ByLayer
 62
  256
370
   -1
100
AcDbLine
 10
63.78898550421715
 20
4937.944787744274
 11
48.46809664183795
 21
4950.800539938004
  0
LINE
  5
156
100
AcDbEntity
  8
top22
  6
ByLayer
 62
  256
370
   -1
100
AcDbLine
 10
48.46809664183795
 20
4950.800539938004
 11
45.89694620309135
 21
4947.736362165528
  0
LINE
  5
157
100
AcDbEntity
  8
top22
  6
ByLayer
 62
  256
370
   -1
100
AcDbLine
 10
45.89694620309135
 20
4947.736362165528
 11
61.21783506547055
 21
4934.880609971797
  0
LINE
  5
158
100
AcDbEntity
  8
top22
  6
ByLayer
 62
  256
370
   -1
100
AcDbLine
 10
61.21783506547055
 20
4934.880609971797
 11
63.78898550421715
 21
4937.944787744274
  0
LINE
  5
159
100
AcDbEntity
  8
top22
  6
ByLayer
 62
  256
370
   -1
100
AcDbLine
 10
74.44403797262518
 20
4783.704418976065
 11
61.58828577889378
 21
4768.383530113686
  0
LINE
  5
15A
100
AcDbEntity
  8
top22
  6
ByLayer
 62
  256
370
   -1
100
AcDbLine
 10
61.58828577889378
 20
4768.383530113686
 11
64.65246355137023
 21
4765.812379674939
  0
LINE
  5
15B
100
AcDbEntity
  8
top22
  6
ByLayer
 62
  256
370
   -1
100
AcDbLine
 10
64.65246355137023
 20
4765.812379674939
 11
77.50821574510164
 21
4781.133268537318
  0
LINE
  5
15C
100
AcDbEntity
  8
top22
  6
ByLayer
 62
  256
370
   -1
100
AcDbLine
 10
77.50821574510164
 20
4781.133268537318
 11
74.44403797262518
 21
4783.704418976065
  0
LINE
  5
15D
100
AcDbEntity
  8
top22
  6
ByLayer
 62
  256
370
   -1
100
AcDbLine
 10
-869.9130944269871
 20
4777.077347309571
 11
-857.0573422332566
 21
4761.756458447191
  0
LINE
  5
15E
100
AcDbEntity
  8
top22
  6
ByLayer
 62
  256
370
   -1
100
AcDbLine
 10
-857.0573422332566
 20
4761.756458447191
 11
-853.9931644607802
 21
4764.327608885937
  0
LINE
  5
15F
100
AcDbEntity
  8
top22
  6
ByLayer
 62
  256
370
   -1
100
AcDbLine
 10
-853.9931644607802
 20
4764.327608885937
 11
-866.8489166545107
 21
4779.648497748318
  0
LINE
  5
160
100
AcDbEntity
  8
top22
  6
ByLayer
 62
  256
370
   -1
100
AcDbLine
 10
-866.8489166545107
 20
4779.648497748318
 11
-869.9130944269871
 21
4777.077347309571
  0
LINE
  5
161
100
AcDbEntity
  8
top22
  6
ByLayer
 62
  256
370
   -1
100
AcDbLine
 10
-853.6227137473522
 20
4930.824688744049
 11
-838.3018248849721
 21
4943.680440937779
  0
LINE
  5
162
100
AcDbEntity
  8
top22
  6
ByLayer
 62
  256
370
   -1
100
AcDbLine
 10
-838.3018248849721
 20
4943.680440937779
 11
-840.8729753237187
 21
4946.744618710256
  0
LINE
  5
163
100
AcDbEntity
  8
top22
  6
ByLayer
 62
  256
370
   -1
100
AcDbLine
 10
-840.8729753237187
 20
4946.744618710256
 11
-856.1938641860988
 21
4933.888866516526
  0
LINE
  5
164
100
AcDbEntity
  8
top22
  6
ByLayer
 62
  256
370
   -1
100
AcDbLine
 10
-856.1938641860988
 20
4933.888866516526
 11
-853.6227137473522
 21
4930.824688744049
  0
LINE
  5
165
100
AcDbEntity
  8
top22
  6
ByLayer
 62
  256
370
   -1
100
AcDbLine
 10
-1007.37005518183
 20
4947.115069423684
 11
-1020.225807375561
 21
4962.435958286063
  0
LINE
  5
166
100
AcDbEntity
  8
top22
  6
ByLayer
 62
  256
370
   -1
100
AcDbLine
 10
-1020.225807375561
 20
4962.435958286063
 11
-1023.289985148037
 21
4959.864807847317
  0
LINE
  5
167
100
AcDbEntity
  8
top22
  6
ByLayer
 62
  256
370
   -1
100
AcDbLine
 10
-1023.289985148037
 20
4959.864807847317
 11
-1010.434232954307
 21
4944.543918984937
  0
LINE
  5
168
100
AcDbEntity
  8
top22
  6
ByLayer
 62
  256
370
   -1
100
AcDbLine
 10
-1010.434232954307
 20
4944.543918984937
 11
-1007.37005518183
 21
4947.115069423684
  0
LINE
  5
169
100
AcDbEntity
  8
top22
  6
ByLayer
 62
  256
370
   -1
100
AcDbLine
 10
-1023.660435861465
 20
4793.367727989205
 11
-1038.981324723845
 21
4780.511975795475
  0
LINE
  5
16A
100
AcDbEntity
  8
top22
  6
ByLayer
 62
  256
370
   -1
100
AcDbLine
 10
-1038.981324723845
 20
4780.511975795475
 11
-1036.410174285098
 21
4777.447798022999
  0
LINE
  5
16B
100
AcDbEntity
  8
top22
  6
ByLayer
 62
  256
370
   -1
100
AcDbLine
 10
-1036.410174285098
 20
4777.447798022999
 11
-1021.089285422718
 21
4790.303550216729
  0
LINE
  5
16C
100
AcDbEntity
  8
top22
  6
ByLayer
 62
  256
370
   -1
100
AcDbLine
 10
-1021.089285422718
 20
4790.303550216729
 11
-1023.660435861465
 21
4793.367727989205
  0
LINE
  5
16D
100
AcDbEntity
  8
0
  6
ByLayer
 62
  256
370
   -1
100
AcDbLine
 10
-1895.821181429978
 20
4330.579561329827
 11
-1890.821181429978
 21
4330.579561329827
  0
LINE
  5
16E
100
AcDbEntity
  8
0
  6
ByLayer
 62
  256
370
   -1
100
AcDbLine
 10
-1890.821181429978
 20
4330.579561329827
 11
-1890.821181429978
 21
4326.579561329827
  0
LINE
  5
16F
100
AcDbEntity
  8
0
  6
ByLayer
 62
  256
370
   -1
100
AcDbLine
 10
-1890.821181429978
 20
4326.579561329827
 11
-1870.821181429978
 21
4326.579561329827
  0
LINE
  5
170
100
AcDbEntity
  8
0
  6
ByLayer
 62
  256
370
   -1
100
AcDbLine
 10
-1870.821181429978
 20
4326.579561329827
 11
-1870.821181429978
 21
4330.579561329827
  0
LINE
  5
171
100
AcDbEntity
  8
0
  6
ByLayer
 62
  256
370
   -1
100
AcDbLine
 10
-1870.821181429978
 20
4330.579561329827
 11
-1865.821181429978
 21
4330.579561329827
  0
LINE
  5
172
100
AcDbEntity
  8
0
  6
ByLayer
 62
  256
370
   -1
100
AcDbLine
 10
-1865.821181429978
 20
4330.579561329827
 11
-1865.821181429978
 21
4380.579561329827
  0
LINE
  5
173
100
AcDbEntity
  8
0
  6
ByLayer
 62
  256
370
   -1
100
AcDbLine
 10
-1865.821181429978
 20
4380.579561329827
 11
-1870.821181429978
 21
4380.579561329827
  0
LINE
  5
174
100
AcDbEntity
  8
0
  6
ByLayer
 62
  256
370
   -1
100
AcDbLine
 10
-1870.821181429978
 20
4380.579561329827
 11
-1870.821181429978
 21
4384.579561329827
  0
LINE
  5
175
100
AcDbEntity
  8
0
  6
ByLayer
 62
  256
370
   -1
100
AcDbLine
 10
-1870.821181429978
 20
4384.579561329827
 11
-1890.821181429978
 21
4384.579561329827
  0
LINE
  5
176
100
AcDbEntity
  8
0
  6
ByLayer
 62
  256
370
   -1
100
AcDbLine
 10
-1890.821181429978
 20
4384.579561329827
 11
-1890.821181429978
 21
4380.579561329827
  0
LINE
  5
177
100
AcDbEntity
  8
0
  6
ByLayer
 62
  256
370
   -1
100
AcDbLine
 10
-1890.821181429978
 20
4380.579561329827
 11
-1895.821181429978
 21
4380.579561329827
  0
LINE
  5
178
100
AcDbEntity
  8
0
  6
ByLayer
 62
  256
370
   -1
100
AcDbLine
 10
-1895.821181429978
 20
4380.579561329827
 11
-1895.821181429978
 21
4330.579561329827
  0
LINE
  5
179
100
AcDbEntity
  8
0
  6
ByLayer
 62
  256
370
   -1
100
AcDbLine
 10
-1855.821181429978
 20
4330.579561329827
 11
-1850.821181429978
 21
4330.579561329827
  0
LINE
  5
17A
100
AcDbEntity
  8
0
  6
ByLayer
 62
  256
370
   -1
100
AcDbLine
 10
-1850.821181429978
 20
4330.579561329827
 11
-1850.821181429978
 21
4326.579561329827
  0
LINE
  5
17B
100
AcDbEntity
  8
0
  6
ByLayer
 62
  256
370
   -1
100
AcDbLine
 10
-1850.821181429978
 20
4326.579561329827
 11
-1830.821181429978
 21
4326.579561329827
  0
LINE
  5
17C
100
AcDbEntity
  8
0
  6
ByLayer
 62
  256
370
   -1
100
AcDbLine
 10
-1830.821181429978
 20
4326.579561329827
 11
-1830.821181429978
 21
4330.579561329827
  0
LINE
  5
17D
100
AcDbEntity
  8
0
  6
ByLayer
 62
  256
370
   -1
100
AcDbLine
 10
-1830.821181429978
 20
4330.579561329827
 11
-1825.821181429978
 21
4330.579561329827
  0
LINE
  5
17E
100
AcDbEntity
  8
0
  6
ByLayer
 62
  256
370
   -1
100
AcDbLine
 10
-1825.821181429978
 20
4330.579561329827
 11
-1825.821181429978
 21
4380.579561329827
  0
LINE
  5
17F
100
AcDbEntity
  8
0
  6
ByLayer
 62
  256
370
   -1
100
AcDbLine
 10
-1825.821181429978
 20
4380.579561329827
 11
-1830.821181429978
 21
4380.579561329827
  0
LINE
  5
180
100
AcDbEntity
  8
0
  6
ByLayer
 62
  256
370
   -1
100
AcDbLine
 10
-1830.821181429978
 20
4380.579561329827
 11
-1830.821181429978
 21
4384.579561329827
  0
LINE
  5
181
100
AcDbEntity
  8
0
  6
ByLayer
 62
  256
370
   -1
100
AcDbLine
 10
-1830.821181429978
 20
4384.579561329827
 11
-1850.821181429978
 21
4384.579561329827
  0
LINE
  5
182
100
AcDbEntity
  8
0
  6
ByLayer
 62
  256
370
   -1
100
AcDbLine
 10
-1850.821181429978
 20
4384.579561329827
 11
-1850.821181429978
 21
4380.579561329827
  0
LINE
  5
183
100
AcDbEntity
  8
0
  6
ByLayer
 62
  256
370
   -1
100
AcDbLine
 10
-1850.821181429978
 20
4380.579561329827
 11
-1855.821181429978
 21
4380.579561329827
  0
LINE
  5
184
100
AcDbEntity
  8
0
  6
ByLayer
 62
  256
370
   -1
100
AcDbLine
 10
-1855.821181429978
 20
4380.579561329827
 11
-1855.821181429978
 21
4330.579561329827
  0
LINE
  5
185
100
AcDbEntity
  8
0
  6
ByLayer
 62
  256
370
   -1
100
AcDbLine
 10
-1815.821181429978
 20
4330.579561329827
 11
-1810.821181429978
 21
4330.579561329827
  0
LINE
  5
186
100
AcDbEntity
  8
0
  6
ByLayer
 62
  256
370
   -1
100
AcDbLine
 10
-1810.821181429978
 20
4330.579561329827
 11
-1810.821181429978
 21
4326.579561329827
  0
LINE
  5
187
100
AcDbEntity
  8
0
  6
ByLayer
 62
  256
370
   -1
100
AcDbLine
 10
-1810.821181429978
 20
4326.579561329827
 11
-1790.821181429978
 21
4326.579561329827
  0
LINE
  5
188
100
AcDbEntity
  8
0
  6
ByLayer
 62
  256
370
   -1
100
AcDbLine
 10
-1790.821181429978
 20
4326.579561329827
 11
-1790.821181429978
 21
4330.579561329827
  0
LINE
  5
189
100
AcDbEntity
  8
0
  6
ByLayer
 62
  256
370
   -1
100
AcDbLine
 10
-1790.821181429978
 20
4330.579561329827
 11
-1785.821181429978
 21
4330.579561329827
  0
LINE
  5
18A
100
AcDbEntity
  8
0
  6
ByLayer
 62
  256
370
   -1
100
AcDbLine
 10
-1785.821181429978
 20
4330.579561329827
 11
-1785.821181429978
 21
4380.579561329827
  0
LINE
  5
18B
100
AcDbEntity
  8
0
  6
ByLayer
 62
  256
370
   -1
100
AcDbLine
 10
-1785.821181429978
 20
4380.579561329827
 11
-1790.821181429978
 21
4380.579561329827
  0
LINE
  5
18C
100
AcDbEntity
  8
0
  6
ByLayer
 62
  256
370
   -1
100
AcDbLine
 10
-1790.821181429978
 20
4380.579561329827
 11
-1790.821181429978
 21
4384.579561329827
  0
LINE
  5
18D
100
AcDbEntity
  8
0
  6
ByLayer
 62
  256
370
   -1
100
AcDbLine
 10
-1790.821181429978
 20
4384.579561329827
 11
-1810.821181429978
 21
4384.579561329827
  0
LINE
  5
18E
100
AcDbEntity
  8
0
  6
ByLayer
 62
  256
370
   -1
100
AcDbLine
 10
-1810.821181429978
 20
4384.579561329827
 11
-1810.821181429978
 21
4380.579561329827
  0
LINE
  5
18F
100
AcDbEntity
  8
0
  6
ByLayer
 62
  256
370
   -1
100
AcDbLine
 10
-1810.821181429978
 20
4380.579561329827
 11
-1815.821181429978
 21
4380.579561329827
  0
LINE
  5
190
100
AcDbEntity
  8
0
  6
ByLayer
 62
  256
370
   -1
100
AcDbLine
 10
-1815.821181429978
 20
4380.579561329827
 11
-1815.821181429978
 21
4330.579561329827
  0
LINE
  5
191
100
AcDbEntity
  8
0
  6
ByLayer
 62
  256
370
   -1
100
AcDbLine
 10
-1775.821181429978
 20
4330.579561329827
 11
-1770.821181429978
 21
4330.579561329827
  0
LINE
  5
192
100
AcDbEntity
  8
0
  6
ByLayer
 62
  256
370
   -1
100
AcDbLine
 10
-1770.821181429978
 20
4330.579561329827
 11
-1770.821181429978
 21
4326.579561329827
  0
LINE
  5
193
100
AcDbEntity
  8
0
  6
ByLayer
 62
  256
370
   -1
100
AcDbLine
 10
-1770.821181429978
 20
4326.579561329827
 11
-1750.821181429978
 21
4326.579561329827
  0
LINE
  5
194
100
AcDbEntity
  8
0
  6
ByLayer
 62
  256
370
   -1
100
AcDbLine
 10
-1750.821181429978
 20
4326.579561329827
 11
-1750.821181429978
 21
4330.579561329827
  0
LINE
  5
195
100
AcDbEntity
  8
0
  6
ByLayer
 62
  256
370
   -1
100
AcDbLine
 10
-1750.821181429978
 20
4330.579561329827
 11
-1745.821181429978
 21
4330.579561329827
  0
LINE
  5
196
100
AcDbEntity
  8
0
  6
ByLayer
 62
  256
370
   -1
100
AcDbLine
 10
-1745.821181429978
 20
4330.579561329827
 11
-1745.821181429978
 21
4380.579561329827
  0
LINE
  5
197
100
AcDbEntity
  8
0
  6
ByLayer
 62
  256
370
   -1
100
AcDbLine
 10
-1745.821181429978
 20
4380.579561329827
 11
-1750.821181429978
 21
4380.579561329827
  0
LINE
  5
198
100
AcDbEntity
  8
0
  6
ByLayer
 62
  256
370
   -1
100
AcDbLine
 10
-1750.821181429978
 20
4380.579561329827
 11
-1750.821181429978
 21
4384.579561329827
  0
LINE
  5
199
100
AcDbEntity
  8
0
  6
ByLayer
 62
  256
370
   -1
100
AcDbLine
 10
-1750.821181429978
 20
4384.579561329827
 11
-1770.821181429978
 21
4384.579561329827
  0
LINE
  5
19A
100
AcDbEntity
  8
0
  6
ByLayer
 62
  256
370
   -1
100
AcDbLine
 10
-1770.821181429978
 20
4384.579561329827
 11
-1770.821181429978
 21
4380.579561329827
  0
LINE
  5
19B
100
AcDbEntity
  8
0
  6
ByLayer
 62
  256
370
   -1
100
AcDbLine
 10
-1770.821181429978
 20
4380.579561329827
 11
-1775.821181429978
 21
4380.579561329827
  0
LINE
  5
19C
100
AcDbEntity
  8
0
  6
ByLayer
 62
  256
370
   -1
100
AcDbLine
 10
-1775.821181429978
 20
4380.579561329827
 11
-1775.821181429978
 21
4330.579561329827
  0
LINE
  5
19D
100
AcDbEntity
  8
0
  6
ByLayer
 62
  256
370
   -1
100
AcDbLine
 10
-1735.821181429978
 20
4330.579561329827
 11
-1730.821181429978
 21
4330.579561329827
  0
LINE
  5
19E
100
AcDbEntity
  8
0
  6
ByLayer
 62
  256
370
   -1
100
AcDbLine
 10
-1730.821181429978
 20
4330.579561329827
 11
-1730.821181429978
 21
4326.579561329827
  0
LINE
  5
19F
100
AcDbEntity
  8
0
  6
ByLayer
 62
  256
370
   -1
100
AcDbLine
 10
-1730.821181429978
 20
4326.579561329827
 11
-1710.821181429978
 21
4326.579561329827
  0
LINE
  5
1A0
100
AcDbEntity
  8
0
  6
ByLayer
 62
  256
370
   -1
100
AcDbLine
 10
-1710.821181429978
 20
4326.579561329827
 11
-1710.821181429978
 21
4330.579561329827
  0
LINE
  5
1A1
100
AcDbEntity
  8
0
  6
ByLayer
 62
  256
370
   -1
100
AcDbLine
 10
-1710.821181429978
 20
4330.579561329827
 11
-1705.821181429978
 21
4330.579561329827
  0
LINE
  5
1A2
100
AcDbEntity
  8
0
  6
ByLayer
 62
  256
370
   -1
100
AcDbLine
 10
-1705.821181429978
 20
4330.579561329827
 11
-1705.821181429978
 21
4380.579561329827
  0
LINE
  5
1A3
100
AcDbEntity
  8
0
  6
ByLayer
 62
  256
370
   -1
100
AcDbLine
 10
-1705.821181429978
 20
4380.579561329827
 11
-1710.821181429978
 21
4380.579561329827
  0
LINE
  5
1A4
100
AcDbEntity
  8
0
  6
ByLayer
 62
  256
370
   -1
100
AcDbLine
 10
-1710.821181429978
 20
4380.579561329827
 11
-1710.821181429978
 21
4384.579561329827
  0
LINE
  5
1A5
100
AcDbEntity
  8
0
  6
ByLayer
 62
  256
370
   -1
100
AcDbLine
 10
-1710.821181429978
 20
4384.579561329827
 11
-1730.821181429978
 21
4384.579561329827
  0
LINE
  5
1A6
100
AcDbEntity
  8
0
  6
ByLayer
 62
  256
370
   -1
100
AcDbLine
 10
-1730.821181429978
 20
4384.579561329827
 11
-1730.821181429978
 21
4380.579561329827
  0
LINE
  5
1A7
100
AcDbEntity
  8
0
  6
ByLayer
 62
  256
370
   -1
100
AcDbLine
 10
-1730.821181429978
 20
4380.579561329827
 11
-1735.821181429978
 21
4380.579561329827
  0
LINE
  5
1A8
100
AcDbEntity
  8
0
  6
ByLayer
 62
  256
370
   -1
100
AcDbLine
 10
-1735.821181429978
 20
4380.579561329827
 11
-1735.821181429978
 21
4330.579561329827
  0
LINE
  5
1A9
100
AcDbEntity
  8
0
  6
ByLayer
 62
  256
370
   -1
100
AcDbLine
 10
-1895.821181429978
 20
4262.579561329827
 11
-1890.821181429978
 21
4262.579561329827
  0
LINE
  5
1AA
100
AcDbEntity
  8
0
  6
ByLayer
 62
  256
370
   -1
100
AcDbLine
 10
-1890.821181429978
 20
4262.579561329827
 11
-1890.821181429978
 21
4258.579561329827
  0
LINE
  5
1AB
100
AcDbEntity
  8
0
  6
ByLayer
 62
  256
370
   -1
100
AcDbLine
 10
-1890.821181429978
 20
4258.579561329827
 11
-1870.821181429978
 21
4258.579561329827
  0
LINE
  5
1AC
100
AcDbEntity
  8
0
  6
ByLayer
 62
  256
370
   -1
100
AcDbLine
 10
-1870.821181429978
 20
4258.579561329827
 11
-1870.821181429978
 21
4262.579561329827
  0
LINE
  5
1AD
100
AcDbEntity
  8
0
  6
ByLayer
 62
  256
370
   -1
100
AcDbLine
 10
-1870.821181429978
 20
4262.579561329827
 11
-1865.821181429978
 21
4262.579561329827
  0
LINE
  5
1AE
100
AcDbEntity
  8
0
  6
ByLayer
 62
  256
370
   -1
100
AcDbLine
 10
-1865.821181429978
 20
4262.579561329827
 11
-1865.821181429978
 21
4312.579561329827
  0
LINE
  5
1AF
100
AcDbEntity
  8
0
  6
ByLayer
 62
  256
370
   -1
100
AcDbLine
 10
-1865.821181429978
 20
4312.579561329827
 11
-1870.821181429978
 21
4312.579561329827
  0
LINE
  5
1B0
100
AcDbEntity
  8
0
  6
ByLayer
 62
  256
370
   -1
100
AcDbLine
 10
-1870.821181429978
 20
4312.579561329827
 11
-1870.821181429978
 21
4316.579561329827
  0
LINE
  5
1B1
100
AcDbEntity
  8
0
  6
ByLayer
 62
  256
370
   -1
100
AcDbLine
 10
-1870.821181429978
 20
4316.579561329827
 11
-1890.821181429978
 21
4316.579561329827
  0
LINE
  5
1B2
100
AcDbEntity
  8
0
  6
ByLayer
 62
  256
370
   -1
100
AcDbLine
 10
-1890.821181429978
 20
4316.579561329827
 11
-1890.821181429978
 21
4312.579561329827
  0
LINE
  5
1B3
100
AcDbEntity
  8
0
  6
ByLayer
 62
  256
370
   -1
100
AcDbLine
 10
-1890.821181429978
 20
4312.579561329827
 11
-1895.821181429978
 21
4312.579561329827
  0
LINE
  5
1B4
100
AcDbEntity
  8
0
  6
ByLayer
 62
  256
370
   -1
100
AcDbLine
 10
-1895.821181429978
 20
4312.579561329827
 11
-1895.821181429978
 21
4262.579561329827
  0
LINE
  5
1B5
100
AcDbEntity
  8
0
  6
ByLayer
 62
  256
370
   -1
100
AcDbLine
 10
-1855.821181429978
 20
4262.579561329827
 11
-1850.821181429978
 21
4262.579561329827
  0
LINE
  5
1B6
100
AcDbEntity
  8
0
  6
ByLayer
 62
  256
370
   -1
100
AcDbLine
 10
-1850.821181429978
 20
4262.579561329827
 11
-1850.821181429978
 21
4258.579561329827
  0
LINE
  5
1B7
100
AcDbEntity
  8
0
  6
ByLayer
 62
  256
370
   -1
100
AcDbLine
 10
-1850.821181429978
 20
4258.579561329827
 11
-1830.821181429978
 21
4258.579561329827
  0
LINE
  5
1B8
100
AcDbEntity
  8
0
  6
ByLayer
 62
  256
370
   -1
100
AcDbLine
 10
-1830.821181429978
 20
4258.579561329827
 11
-1830.821181429978
 21
4262.579561329827
  0
LINE
  5
1B9
100
AcDbEntity
  8
0
  6
ByLayer
 62
  256
370
   -1
100
AcDbLine
 10
-1830.821181429978
 20
4262.579561329827
 11
-1825.821181429978
 21
4262.579561329827
  0
LINE
  5
1BA
100
AcDbEntity
  8
0
  6
ByLayer
 62
  256
370
   -1
100
AcDbLine
 10
-1825.821181429978
 20
4262.579561329827
 11
-1825.821181429978
 21
4312.579561329827
  0
LINE
  5
1BB
100
AcDbEntity
  8
0
  6
ByLayer
 62
  256
370
   -1
100
AcDbLine
 10
-1825.821181429978
 20
4312.579561329827
 11
-1830.821181429978
 21
4312.579561329827
  0
LINE
  5
1BC
100
AcDbEntity
  8
0
  6
ByLayer
 62
  256
370
   -1
100
AcDbLine
 10
-1830.821181429978
 20
4312.579561329827
 11
-1830.821181429978
 21
4316.579561329827
  0
LINE
  5
1BD
100
AcDbEntity
  8
0
  6
ByLayer
 62
  256
370
   -1
100
AcDbLine
 10
-1830.821181429978
 20
4316.579561329827
 11
-1850.821181429978
 21
4316.579561329827
  0
LINE
  5
1BE
100
AcDbEntity
  8
0
  6
ByLayer
 62
  256
370
   -1
100
AcDbLine
 10
-1850.821181429978
 20
4316.579561329827
 11
-1850.821181429978
 21
4312.579561329827
  0
LINE
  5
1BF
100
AcDbEntity
  8
0
  6
ByLayer
 62
  256
370
   -1
100
AcDbLine
 10
-1850.821181429978
 20
4312.579561329827
 11
-1855.821181429978
 21
4312.579561329827
  0
LINE
  5
1C0
100
AcDbEntity
  8
0
  6
ByLayer
 62
  256
370
   -1
100
AcDbLine
 10
-1855.821181429978
 20
4312.579561329827
 11
-1855.821181429978
 21
4262.579561329827
  0
LINE
  5
1C1
100
AcDbEntity
  8
0
  6
ByLayer
 62
  256
370
   -1
100
AcDbLine
 10
-1815.821181429978
 20
4262.579561329827
 11
-1810.821181429978
 21
4262.579561329827
  0
LINE
  5
1C2
100
AcDbEntity
  8
0
  6
ByLayer
 62
  256
370
   -1
100
AcDbLine
 10
-1810.821181429978
 20
4262.579561329827
 11
-1810.821181429978
 21
4258.579561329827
  0
LINE
  5
1C3
100
AcDbEntity
  8
0
  6
ByLayer
 62
  256
370
   -1
100
AcDbLine
 10
-1810.821181429978
 20
4258.579561329827
 11
-1790.821181429978
 21
4258.579561329827
  0
LINE
  5
1C4
100
AcDbEntity
  8
0
  6
ByLayer
 62
  256
370
   -1
100
AcDbLine
 10
-1790.821181429978
 20
4258.579561329827
 11
-1790.821181429978
 21
4262.579561329827
  0
LINE
  5
1C5
100
AcDbEntity
  8
0
  6
ByLayer
 62
  256
370
   -1
100
AcDbLine
 10
-1790.821181429978
 20
4262.579561329827
 11
-1785.821181429978
 21
4262.579561329827
  0
LINE
  5
1C6
100
AcDbEntity
  8
0
  6
ByLayer
 62
  256
370
   -1
100
AcDbLine
 10
-1785.821181429978
 20
4262.579561329827
 11
-1785.821181429978
 21
4312.579561329827
  0
LINE
  5
1C7
100
AcDbEntity
  8
0
  6
ByLayer
 62
  256
370
   -1
100
AcDbLine
 10
-1785.821181429978
 20
4312.579561329827
 11
-1790.821181429978
 21
4312.579561329827
  0
LINE
  5
1C8
100
AcDbEntity
  8
0
  6
ByLayer
 62
  256
370
   -1
100
AcDbLine
 10
-1790.821181429978
 20
4312.579561329827
 11
-1790.821181429978
 21
4316.579561329827
  0
LINE
  5
1C9
100
AcDbEntity
  8
0
  6
ByLayer
 62
  256
370
   -1
100
AcDbLine
 10
-1790.821181429978
 20
4316.579561329827
 11
-1810.821181429978
 21
4316.579561329827
  0
LINE
  5
1CA
100
AcDbEntity
  8
0
  6
ByLayer
 62
  256
370
   -1
100
AcDbLine
 10
-1810.821181429978
 20
4316.579561329827
 11
-1810.821181429978
 21
4312.579561329827
  0
LINE
  5
1CB
100
AcDbEntity
  8
0
  6
ByLayer
 62
  256
370
   -1
100
AcDbLine
 10
-1810.821181429978
 20
4312.579561329827
 11
-1815.821181429978
 21
4312.579561329827
  0
LINE
  5
1CC
100
AcDbEntity
  8
0
  6
ByLayer
 62
  256
370
   -1
100
AcDbLine
 10
-1815.821181429978
 20
4312.579561329827
 11
-1815.821181429978
 21
4262.579561329827
  0
LINE
  5
1CD
100
AcDbEntity
  8
0
  6
ByLayer
 62
  256
370
   -1
100
AcDbLine
 10
-1775.821181429978
 20
4262.579561329827
 11
-1770.821181429978
 21
4262.579561329827
  0
LINE
  5
1CE
100
AcDbEntity
  8
0
  6
ByLayer
 62
  256
370
   -1
100
AcDbLine
 10
-1770.821181429978
 20
4262.579561329827
 11
-1770.821181429978
 21
4258.579561329827
  0
LINE
  5
1CF
100
AcDbEntity
  8
0
  6
ByLayer
 62
  256
370
   -1
100
AcDbLine
 10
-1770.821181429978
 20
4258.579561329827
 11
-1750.821181429978
 21
4258.579561329827
  0
LINE
  5
1D0
100
AcDbEntity
  8
0
  6
ByLayer
 62
  256
370
   -1
100
AcDbLine
 10
-1750.821181429978
 20
4258.579561329827
 11
-1750.821181429978
 21
4262.579561329827
  0
LINE
  5
1D1
100
AcDbEntity
  8
0
  6
ByLayer
 62
  256
370
   -1
100
AcDbLine
 10
-1750.821181429978
 20
4262.579561329827
 11
-1745.821181429978
 21
4262.579561329827
  0
LINE
  5
1D2
100
AcDbEntity
  8
0
  6
ByLayer
 62
  256
370
   -1
100
AcDbLine
 10
-1745.821181429978
 20
4262.579561329827
 11
-1745.821181429978
 21
4312.579561329827
  0
LINE
  5
1D3
100
AcDbEntity
  8
0
  6
ByLayer
 62
  256
370
   -1
100
AcDbLine
 10
-1745.821181429978
 20
4312.579561329827
 11
-1750.821181429978
 21
4312.579561329827
  0
LINE
  5
1D4
100
AcDbEntity
  8
0
  6
ByLayer
 62
  256
370
   -1
100
AcDbLine
 10
-1750.821181429978
 20
4312.579561329827
 11
-1750.821181429978
 21
4316.579561329827
  0
LINE
  5
1D5
100
AcDbEntity
  8
0
  6
ByLayer
 62
  256
370
   -1
100
AcDbLine
 10
-1750.821181429978
 20
4316.579561329827
 11
-1770.821181429978
 21
4316.579561329827
  0
LINE
  5
1D6
100
AcDbEntity
  8
0
  6
ByLayer
 62
  256
370
   -1
100
AcDbLine
 10
-1770.821181429978
 20
4316.579561329827
 11
-1770.821181429978
 21
4312.579561329827
  0
LINE
  5
1D7
100
AcDbEntity
  8
0
  6
ByLayer
 62
  256
370
   -1
100
AcDbLine
 10
-1770.821181429978
 20
4312.579561329827
 11
-1775.821181429978
 21
4312.579561329827
  0
LINE
  5
1D8
100
AcDbEntity
  8
0
  6
ByLayer
 62
  256
370
   -1
100
AcDbLine
 10
-1775.821181429978
 20
4312.579561329827
 11
-1775.821181429978
 21
4262.579561329827
  0
LINE
  5
1D9
100
AcDbEntity
  8
0
  6
ByLayer
 62
  256
370
   -1
100
AcDbLine
 10
-1735.821181429978
 20
4262.579561329827
 11
-1730.821181429978
 21
4262.579561329827
  0
LINE
  5
1DA
100
AcDbEntity
  8
0
  6
ByLayer
 62
  256
370
   -1
100
AcDbLine
 10
-1730.821181429978
 20
4262.579561329827
 11
-1730.821181429978
 21
4258.579561329827
  0
LINE
  5
1DB
100
AcDbEntity
  8
0
  6
ByLayer
 62
  256
370
   -1
100
AcDbLine
 10
-1730.821181429978
 20
4258.579561329827
 11
-1710.821181429978
 21
4258.579561329827
  0
LINE
  5
1DC
100
AcDbEntity
  8
0
  6
ByLayer
 62
  256
370
   -1
100
AcDbLine
 10
-1710.821181429978
 20
4258.579561329827
 11
-1710.821181429978
 21
4262.579561329827
  0
LINE
  5
1DD
100
AcDbEntity
  8
0
  6
ByLayer
 62
  256
370
   -1
100
AcDbLine
 10
-1710.821181429978
 20
4262.579561329827
 11
-1705.821181429978
 21
4262.579561329827
  0
LINE
  5
1DE
100
AcDbEntity
  8
0
  6
ByLayer
 62
  256
370
   -1
100
AcDbLine
 10
-1705.821181429978
 20
4262.579561329827
 11
-1705.821181429978
 21
4312.579561329827
  0
LINE
  5
1DF
100
AcDbEntity
  8
0
  6
ByLayer
 62
  256
370
   -1
100
AcDbLine
 10
-1705.821181429978
 20
4312.579561329827
 11
-1710.821181429978
 21
4312.579561329827
  0
LINE
  5
1E0
100
AcDbEntity
  8
0
  6
ByLayer
 62
  256
370
   -1
100
AcDbLine
 10
-1710.821181429978
 20
4312.579561329827
 11
-1710.821181429978
 21
4316.579561329827
  0
LINE
  5
1E1
100
AcDbEntity
  8
0
  6
ByLayer
 62
  256
370
   -1
100
AcDbLine
 10
-1710.821181429978
 20
4316.579561329827
 11
-1730.821181429978
 21
4316.579561329827
  0
LINE
  5
1E2
100
AcDbEntity
  8
0
  6
ByLayer
 62
  256
370
   -1
100
AcDbLine
 10
-1730.821181429978
 20
4316.579561329827
 11
-1730.821181429978
 21
4312.579561329827
  0
LINE
  5
1E3
100
AcDbEntity
  8
0
  6
ByLayer
 62
  256
370
   -1
100
AcDbLine
 10
-1730.821181429978
 20
4312.579561329827
 11
-1735.821181429978
 21
4312.579561329827
  0
LINE
  5
1E4
100
AcDbEntity
  8
0
  6
ByLayer
 62
  256
370
   -1
100
AcDbLine
 10
-1735.821181429978
 20
4312.579561329827
 11
-1735.821181429978
 21
4262.579561329827
  0
LINE
  5
1E5
100
AcDbEntity
  8
0
  6
ByLayer
 62
  256
370
   -1
100
AcDbLine
 10
-1895.821181429978
 20
4194.579561329827
 11
-1890.821181429978
 21
4194.579561329827
  0
LINE
  5
1E6
100
AcDbEntity
  8
0
  6
ByLayer
 62
  256
370
   -1
100
AcDbLine
 10
-1890.821181429978
 20
4194.579561329827
 11
-1890.821181429978
 21
4190.579561329827
  0
LINE
  5
1E7
100
AcDbEntity
  8
0
  6
ByLayer
 62
  256
370
   -1
100
AcDbLine
 10
-1890.821181429978
 20
4190.579561329827
 11
-1870.821181429978
 21
4190.579561329827
  0
LINE
  5
1E8
100
AcDbEntity
  8
0
  6
ByLayer
 62
  256
370
   -1
100
AcDbLine
 10
-1870.821181429978
 20
4190.579561329827
 11
-1870.821181429978
 21
4194.579561329827
  0
LINE
  5
1E9
100
AcDbEntity
  8
0
  6
ByLayer
 62
  256
370
   -1
100
AcDbLine
 10
-1870.821181429978
 20
4194.579561329827
 11
-1865.821181429978
 21
4194.579561329827
  0
LINE
  5
1EA
100
AcDbEntity
  8
0
  6
ByLayer
 62
  256
370
   -1
100
AcDbLine
 10
-1865.821181429978
 20
4194.579561329827
 11
-1865.821181429978
 21
4244.579561329827
  0
LINE
  5
1EB
100
AcDbEntity
  8
0
  6
ByLayer
 62
  256
370
   -1
100
AcDbLine
 10
-1865.821181429978
 20
4244.579561329827
 11
-1870.821181429978
 21
4244.579561329827
  0
LINE
  5
1EC
100
AcDbEntity
  8
0
  6
ByLayer
 62
  256
370
   -1
100
AcDbLine
 10
-1870.821181429978
 20
4244.579561329827
 11
-1870.821181429978
 21
4248.579561329827
  0
LINE
  5
1ED
100
AcDbEntity
  8
0
  6
ByLayer
 62
  256
370
   -1
100
AcDbLine
 10
-1870.821181429978
 20
4248.579561329827
 11
-1890.821181429978
 21
4248.579561329827
  0
LINE
  5
1EE
100
AcDbEntity
  8
0
  6
ByLayer
 62
  256
370
   -1
100
AcDbLine
 10
-1890.821181429978
 20
4248.579561329827
 11
-1890.821181429978
 21
4244.579561329827
  0
LINE
  5
1EF
100
AcDbEntity
  8
0
  6
ByLayer
 62
  256
370
   -1
100
AcDbLine
 10
-1890.821181429978
 20
4244.579561329827
 11
-1895.821181429978
 21
4244.579561329827
  0
LINE
  5
1F0
100
AcDbEntity
  8
0
  6
ByLayer
 62
  256
370
   -1
100
AcDbLine
 10
-1895.821181429978
 20
4244.579561329827
 11
-1895.821181429978
 21
4194.579561329827
  0
LINE
  5
1F1
100
AcDbEntity
  8
0
  6
ByLayer
 62
  256
370
   -1
100
AcDbLine
 10
-1855.821181429978
 20
4194.579561329827
 11
-1850.821181429978
 21
4194.579561329827
  0
LINE
  5
1F2
100
AcDbEntity
  8
0
  6
ByLayer
 62
  256
370
   -1
100
AcDbLine
 10
-1850.821181429978
 20
4194.579561329827
 11
-1850.821181429978
 21
4190.579561329827
  0
LINE
  5
1F3
100
AcDbEntity
  8
0
  6
ByLayer
 62
  256
370
   -1
100
AcDbLine
 10
-1850.821181429978
 20
4190.579561329827
 11
-1830.821181429978
 21
4190.579561329827
  0
LINE
  5
1F4
100
AcDbEntity
  8
0
  6
ByLayer
 62
  256
370
   -1
100
AcDbLine
 10
-1830.821181429978
 20
4190.579561329827
 11
-1830.821181429978
 21
4194.579561329827
  0
LINE
  5
1F5
100
AcDbEntity
  8
0
  6
ByLayer
 62
  256
370
   -1
100
AcDbLine
 10
-1830.821181429978
 20
4194.579561329827
 11
-1825.821181429978
 21
4194.579561329827
  0
LINE
  5
1F6
100
AcDbEntity
  8
0
  6
ByLayer
 62
  256
370
   -1
100
AcDbLine
 10
-1825.821181429978
 20
4194.579561329827
 11
-1825.821181429978
 21
4244.579561329827
  0
LINE
  5
1F7
100
AcDbEntity
  8
0
  6
ByLayer
 62
  256
370
   -1
100
AcDbLine
 10
-1825.821181429978
 20
4244.579561329827
 11
-1830.821181429978
 21
4244.579561329827
  0
LINE
  5
1F8
100
AcDbEntity
  8
0
  6
ByLayer
 62
  256
370
   -1
100
AcDbLine
 10
-1830.821181429978
 20
4244.579561329827
 11
-1830.821181429978
 21
4248.579561329827
  0
LINE
  5
1F9
100
AcDbEntity
  8
0
  6
ByLayer
 62
  256
370
   -1
100
AcDbLine
 10
-1830.821181429978
 20
4248.579561329827
 11
-1850.821181429978
 21
4248.579561329827
  0
LINE
  5
1FA
100
AcDbEntity
  8
0
  6
ByLayer
 62
  256
370
   -1
100
AcDbLine
 10
-1850.821181429978
 20
4248.579561329827
 11
-1850.821181429978
 21
4244.579561329827
  0
LINE
  5
1FB
100
AcDbEntity
  8
0
  6
ByLayer
 62
  256
370
   -1
100
AcDbLine
 10
-1850.821181429978
 20
4244.579561329827
 11
-1855.821181429978
 21
4244.579561329827
  0
LINE
  5
1FC
100
AcDbEntity
  8
0
  6
ByLayer
 62
  256
370
   -1
100
AcDbLine
 10
-1855.821181429978
 20
4244.579561329827
 11
-1855.821181429978
 21
4194.579561329827
  0
LINE
  5
1FD
100
AcDbEntity
  8
0
  6
ByLayer
 62
  256
370
   -1
100
AcDbLine
 10
-1815.821181429978
 20
4194.579561329827
 11
-1810.821181429978
 21
4194.579561329827
  0
LINE
  5
1FE
100
AcDbEntity
  8
0
  6
ByLayer
 62
  256
370
   -1
100
AcDbLine
 10
-1810.821181429978
 20
4194.579561329827
 11
-1810.821181429978
 21
4190.579561329827
  0
LINE
  5
1FF
100
AcDbEntity
  8
0
  6
ByLayer
 62
  256
370
   -1
100
AcDbLine
 10
-1810.821181429978
 20
4190.579561329827
 11
-1790.821181429978
 21
4190.579561329827
  0
LINE
  5
200
100
AcDbEntity
  8
0
  6
ByLayer
 62
  256
370
   -1
100
AcDbLine
 10
-1790.821181429978
 20
4190.579561329827
 11
-1790.821181429978
 21
4194.579561329827
  0
LINE
  5
201
100
AcDbEntity
  8
0
  6
ByLayer
 62
  256
370
   -1
100
AcDbLine
 10
-1790.821181429978
 20
4194.579561329827
 11
-1785.821181429978
 21
4194.579561329827
  0
LINE
  5
202
100
AcDbEntity
  8
0
  6
ByLayer
 62
  256
370
   -1
100
AcDbLine
 10
-1785.821181429978
 20
4194.579561329827
 11
-1785.821181429978
 21
4244.579561329827
  0
LINE
  5
203
100
AcDbEntity
  8
0
  6
ByLayer
 62
  256
370
   -1
100
AcDbLine
 10
-1785.821181429978
 20
4244.579561329827
 11
-1790.821181429978
 21
4244.579561329827
  0
LINE
  5
204
100
AcDbEntity
  8
0
  6
ByLayer
 62
  256
370
   -1
100
AcDbLine
 10
-1790.821181429978
 20
4244.579561329827
 11
-1790.821181429978
 21
4248.579561329827
  0
LINE
  5
205
100
AcDbEntity
  8
0
  6
ByLayer
 62
  256
370
   -1
100
AcDbLine
 10
-1790.821181429978
 20
4248.579561329827
 11
-1810.821181429978
 21
4248.579561329827
  0
LINE
  5
206
100
AcDbEntity
  8
0
  6
ByLayer
 62
  256
370
   -1
100
AcDbLine
 10
-1810.821181429978
 20
4248.579561329827
 11
-1810.821181429978
 21
4244.579561329827
  0
LINE
  5
207
100
AcDbEntity
  8
0
  6
ByLayer
 62
  256
370
   -1
100
AcDbLine
 10
-1810.821181429978
 20
4244.579561329827
 11
-1815.821181429978
 21
4244.579561329827
  0
LINE
  5
208
100
AcDbEntity
  8
0
  6
ByLayer
 62
  256
370
   -1
100
AcDbLine
 10
-1815.821181429978
 20
4244.579561329827
 11
-1815.821181429978
 21
4194.579561329827
  0
LINE
  5
209
100
AcDbEntity
  8
0
  6
ByLayer
 62
  256
370
   -1
100
AcDbLine
 10
-1775.821181429978
 20
4194.579561329827
 11
-1770.821181429978
 21
4194.579561329827
  0
LINE
  5
20A
100
AcDbEntity
  8
0
  6
ByLayer
 62
  256
370
   -1
100
AcDbLine
 10
-1770.821181429978
 20
4194.579561329827
 11
-1770.821181429978
 21
4190.579561329827
  0
LINE
  5
20B
100
AcDbEntity
  8
0
  6
ByLayer
 62
  256
370
   -1
100
AcDbLine
 10
-1770.821181429978
 20
4190.579561329827
 11
-1750.821181429978
 21
4190.579561329827
  0
LINE
  5
20C
100
AcDbEntity
  8
0
  6
ByLayer
 62
  256
370
   -1
100
AcDbLine
 10
-1750.821181429978
 20
4190.579561329827
 11
-1750.821181429978
 21
4194.579561329827
  0
LINE
  5
20D
100
AcDbEntity
  8
0
  6
ByLayer
 62
  256
370
   -1
100
AcDbLine
 10
-1750.821181429978
 20
4194.579561329827
 11
-1745.821181429978
 21
4194.579561329827
  0
LINE
  5
20E
100
AcDbEntity
  8
0
  6
ByLayer
 62
  256
370
   -1
100
AcDbLine
 10
-1745.821181429978
 20
4194.579561329827
 11
-1745.821181429978
 21
4244.579561329827
  0
LINE
  5
20F
100
AcDbEntity
  8
0
  6
ByLayer
 62
  256
370
   -1
100
AcDbLine
 10
-1745.821181429978
 20
4244.579561329827
 11
-1750.821181429978
 21
4244.579561329827
  0
LINE
  5
210
100
AcDbEntity
  8
0
  6
ByLayer
 62
  256
370
   -1
100
AcDbLine
 10
-1750.821181429978
 20
4244.579561329827
 11
-1750.821181429978
 21
4248.579561329827
  0
LINE
  5
211
100
AcDbEntity
  8
0
  6
ByLayer
 62
  256
370
   -1
100
AcDbLine
 10
-1750.821181429978
 20
4248.579561329827
 11
-1770.821181429978
 21
4248.579561329827
  0
LINE
  5
212
100
AcDbEntity
  8
0
  6
ByLayer
 62
  256
370
   -1
100
AcDbLine
 10
-1770.821181429978
 20
4248.579561329827
 11
-1770.821181429978
 21
4244.579561329827
  0
LINE
  5
213
100
AcDbEntity
  8
0
  6
ByLayer
 62
  256
370
   -1
100
AcDbLine
 10
-1770.821181429978
 20
4244.579561329827
 11
-1775.821181429978
 21
4244.579561329827
  0
LINE
  5
214
100
AcDbEntity
  8
0
  6
ByLayer
 62
  256
370
   -1
100
AcDbLine
 10
-1775.821181429978
 20
4244.579561329827
 11
-1775.821181429978
 21
4194.579561329827
  0
LINE
  5
215
100
AcDbEntity
  8
0
  6
ByLayer
 62
  256
370
   -1
100
AcDbLine
 10
-1735.821181429978
 20
4194.579561329827
 11
-1730.821181429978
 21
4194.579561329827
  0
LINE
  5
216
100
AcDbEntity
  8
0
  6
ByLayer
 62
  256
370
   -1
100
AcDbLine
 10
-1730.821181429978
 20
4194.579561329827
 11
-1730.821181429978
 21
4190.579561329827
  0
LINE
  5
217
100
AcDbEntity
  8
0
  6
ByLayer
 62
  256
370
   -1
100
AcDbLine
 10
-1730.821181429978
 20
4190.579561329827
 11
-1710.821181429978
 21
4190.579561329827
  0
LINE
  5
218
100
AcDbEntity
  8
0
  6
ByLayer
 62
  256
370
   -1
100
AcDbLine
 10
-1710.821181429978
 20
4190.579561329827
 11
-1710.821181429978
 21
4194.579561329827
  0
LINE
  5
219
100
AcDbEntity
  8
0
  6
ByLayer
 62
  256
370
   -1
100
AcDbLine
 10
-1710.821181429978
 20
4194.579561329827
 11
-1705.821181429978
 21
4194.579561329827
  0
LINE
  5
21A
100
AcDbEntity
  8
0
  6
ByLayer
 62
  256
370
   -1
100
AcDbLine
 10
-1705.821181429978
 20
4194.579561329827
 11
-1705.821181429978
 21
4244.579561329827
  0
LINE
  5
21B
100
AcDbEntity
  8
0
  6
ByLayer
 62
  256
370
   -1
100
AcDbLine
 10
-1705.821181429978
 20
4244.579561329827
 11
-1710.821181429978
 21
4244.579561329827
  0
LINE
  5
21C
100
AcDbEntity
  8
0
  6
ByLayer
 62
  256
370
   -1
100
AcDbLine
 10
-1710.821181429978
 20
4244.579561329827
 11
-1710.821181429978
 21
4248.579561329827
  0
LINE
  5
21D
100
AcDbEntity
  8
0
  6
ByLayer
 62
  256
370
   -1
100
AcDbLine
 10
-1710.821181429978
 20
4248.579561329827
 11
-1730.821181429978
 21
4248.579561329827
  0
LINE
  5
21E
100
AcDbEntity
  8
0
  6
ByLayer
 62
  256
370
   -1
100
AcDbLine
 10
-1730.821181429978
 20
4248.579561329827
 11
-1730.821181429978
 21
4244.579561329827
  0
LINE
  5
21F
100
AcDbEntity
  8
0
  6
ByLayer
 62
  256
370
   -1
100
AcDbLine
 10
-1730.821181429978
 20
4244.579561329827
 11
-1735.821181429978
 21
4244.579561329827
  0
LINE
  5
220
100
AcDbEntity
  8
0
  6
ByLayer
 62
  256
370
   -1
100
AcDbLine
 10
-1735.821181429978
 20
4244.579561329827
 11
-1735.821181429978
 21
4194.579561329827
  0
LINE
  5
221
100
AcDbEntity
  8
0
  6
ByLayer
 62
  256
370
   -1
100
AcDbLine
 10
-1895.821181429978
 20
4126.579561329827
 11
-1890.821181429978
 21
4126.579561329827
  0
LINE
  5
222
100
AcDbEntity
  8
0
  6
ByLayer
 62
  256
370
   -1
100
AcDbLine
 10
-1890.821181429978
 20
4126.579561329827
 11
-1890.821181429978
 21
4122.579561329827
  0
LINE
  5
223
100
AcDbEntity
  8
0
  6
ByLayer
 62
  256
370
   -1
100
AcDbLine
 10
-1890.821181429978
 20
4122.579561329827
 11
-1870.821181429978
 21
4122.579561329827
  0
LINE
  5
224
100
AcDbEntity
  8
0
  6
ByLayer
 62
  256
370
   -1
100
AcDbLine
 10
-1870.821181429978
 20
4122.579561329827
 11
-1870.821181429978
 21
4126.579561329827
  0
LINE
  5
225
100
AcDbEntity
  8
0
  6
ByLayer
 62
  256
370
   -1
100
AcDbLine
 10
-1870.821181429978
 20
4126.579561329827
 11
-1865.821181429978
 21
4126.579561329827
  0
LINE
  5
226
100
AcDbEntity
  8
0
  6
ByLayer
 62
  256
370
   -1
100
AcDbLine
 10
-1865.821181429978
 20
4126.579561329827
 11
-1865.821181429978
 21
4176.579561329827
  0
LINE
  5
227
100
AcDbEntity
  8
0
  6
ByLayer
 62
  256
370
   -1
100
AcDbLine
 10
-1865.821181429978
 20
4176.579561329827
 11
-1870.821181429978
 21
4176.579561329827
  0
LINE
  5
228
100
AcDbEntity
  8
0
  6
ByLayer
 62
  256
370
   -1
100
AcDbLine
 10
-1870.821181429978
 20
4176.579561329827
 11
-1870.821181429978
 21
4180.579561329827
  0
LINE
  5
229
100
AcDbEntity
  8
0
  6
ByLayer
 62
  256
370
   -1
100
AcDbLine
 10
-1870.821181429978
 20
4180.579561329827
 11
-1890.821181429978
 21
4180.579561329827
  0
LINE
  5
22A
100
AcDbEntity
  8
0
  6
ByLayer
 62
  256
370
   -1
100
AcDbLine
 10
-1890.821181429978
 20
4180.579561329827
 11
-1890.821181429978
 21
4176.579561329827
  0
LINE
  5
22B
100
AcDbEntity
  8
0
  6
ByLayer
 62
  256
370
   -1
100
AcDbLine
 10
-1890.821181429978
 20
4176.579561329827
 11
-1895.821181429978
 21
4176.579561329827
  0
LINE
  5
22C
100
AcDbEntity
  8
0
  6
ByLayer
 62
  256
370
   -1
100
AcDbLine
 10
-1895.821181429978
 20
4176.579561329827
 11
-1895.821181429978
 21
4126.579561329827
  0
LINE
  5
22D
100
AcDbEntity
  8
0
  6
ByLayer
 62
  256
370
   -1
100
AcDbLine
 10
-1855.821181429978
 20
4126.579561329827
 11
-1850.821181429978
 21
4126.579561329827
  0
LINE
  5
22E
100
AcDbEntity
  8
0
  6
ByLayer
 62
  256
370
   -1
100
AcDbLine
 10
-1850.821181429978
 20
4126.579561329827
 11
-1850.821181429978
 21
4122.579561329827
  0
LINE
  5
22F
100
AcDbEntity
  8
0
  6
ByLayer
 62
  256
370
   -1
100
AcDbLine
 10
-1850.821181429978
 20
4122.579561329827
 11
-1830.821181429978
 21
4122.579561329827
  0
LINE
  5
230
100
AcDbEntity
  8
0
  6
ByLayer
 62
  256
370
   -1
100
AcDbLine
 10
-1830.821181429978
 20
4122.579561329827
 11
-1830.821181429978
 21
4126.579561329827
  0
LINE
  5
231
100
AcDbEntity
  8
0
  6
ByLayer
 62
  256
370
   -1
100
AcDbLine
 10
-1830.821181429978
 20
4126.579561329827
 11
-1825.821181429978
 21
4126.579561329827
  0
LINE
  5
232
100
AcDbEntity
  8
0
  6
ByLayer
 62
  256
370
   -1
100
AcDbLine
 10
-1825.821181429978
 20
4126.579561329827
 11
-1825.821181429978
 21
4176.579561329827
  0
LINE
  5
233
100
AcDbEntity
  8
0
  6
ByLayer
 62
  256
370
   -1
100
AcDbLine
 10
-1825.821181429978
 20
4176.579561329827
 11
-1830.821181429978
 21
4176.579561329827
  0
LINE
  5
234
100
AcDbEntity
  8
0
  6
ByLayer
 62
  256
370
   -1
100
AcDbLine
 10
-1830.821181429978
 20
4176.579561329827
 11
-1830.821181429978
 21
4180.579561329827
  0
LINE
  5
235
100
AcDbEntity
  8
0
  6
ByLayer
 62
  256
370
   -1
100
AcDbLine
 10
-1830.821181429978
 20
4180.579561329827
 11
-1850.821181429978
 21
4180.579561329827
  0
LINE
  5
236
100
AcDbEntity
  8
0
  6
ByLayer
 62
  256
370
   -1
100
AcDbLine
 10
-1850.821181429978
 20
4180.579561329827
 11
-1850.821181429978
 21
4176.579561329827
  0
LINE
  5
237
100
AcDbEntity
  8
0
  6
ByLayer
 62
  256
370
   -1
100
AcDbLine
 10
-1850.821181429978
 20
4176.579561329827
 11
-1855.821181429978
 21
4176.579561329827
  0
LINE
  5
238
100
AcDbEntity
  8
0
  6
ByLayer
 62
  256
370
   -1
100
AcDbLine
 10
-1855.821181429978
 20
4176.579561329827
 11
-1855.821181429978
 21
4126.579561329827
  0
LINE
  5
239
100
AcDbEntity
  8
0
  6
ByLayer
 62
  256
370
   -1
100
AcDbLine
 10
-1815.821181429978
 20
4126.579561329827
 11
-1810.821181429978
 21
4126.579561329827
  0
LINE
  5
23A
100
AcDbEntity
  8
0
  6
ByLayer
 62
  256
370
   -1
100
AcDbLine
 10
-1810.821181429978
 20
4126.579561329827
 11
-1810.821181429978
 21
4122.579561329827
  0
LINE
  5
23B
100
AcDbEntity
  8
0
  6
ByLayer
 62
  256
370
   -1
100
AcDbLine
 10
-1810.821181429978
 20
4122.579561329827
 11
-1790.821181429978
 21
4122.579561329827
  0
LINE
  5
23C
100
AcDbEntity
  8
0
  6
ByLayer
 62
  256
370
   -1
100
AcDbLine
 10
-1790.821181429978
 20
4122.579561329827
 11
-1790.821181429978
 21
4126.579561329827
  0
LINE
  5
23D
100
AcDbEntity
  8
0
  6
ByLayer
 62
  256
370
   -1
100
AcDbLine
 10
-1790.821181429978
 20
4126.579561329827
 11
-1785.821181429978
 21
4126.579561329827
  0
LINE
  5
23E
100
AcDbEntity
  8
0
  6
ByLayer
 62
  256
370
   -1
100
AcDbLine
 10
-1785.821181429978
 20
4126.579561329827
 11
-1785.821181429978
 21
4176.579561329827
  0
LINE
  5
23F
100
AcDbEntity
  8
0
  6
ByLayer
 62
  256
370
   -1
100
AcDbLine
 10
-1785.821181429978
 20
4176.579561329827
 11
-1790.821181429978
 21
4176.579561329827
  0
LINE
  5
240
100
AcDbEntity
  8
0
  6
ByLayer
 62
  256
370
   -1
100
AcDbLine
 10
-1790.821181429978
 20
4176.579561329827
 11
-1790.821181429978
 21
4180.579561329827
  0
LINE
  5
241
100
AcDbEntity
  8
0
  6
ByLayer
 62
  256
370
   -1
100
AcDbLine
 10
-1790.821181429978
 20
4180.579561329827
 11
-1810.821181429978
 21
4180.579561329827
  0
LINE
  5
242
100
AcDbEntity
  8
0
  6
ByLayer
 62
  256
370
   -1
100
AcDbLine
 10
-1810.821181429978
 20
4180.579561329827
 11
-1810.821181429978
 21
4176.579561329827
  0
LINE
  5
243
100
AcDbEntity
  8
0
  6
ByLayer
 62
  256
370
   -1
100
AcDbLine
 10
-1810.821181429978
 20
4176.579561329827
 11
-1815.821181429978
 21
4176.579561329827
  0
LINE
  5
244
100
AcDbEntity
  8
0
  6
ByLayer
 62
  256
370
   -1
100
AcDbLine
 10
-1815.821181429978
 20
4176.579561329827
 11
-1815.821181429978
 21
4126.579561329827
  0
LINE
  5
245
100
AcDbEntity
  8
0
  6
ByLayer
 62
  256
370
   -1
100
AcDbLine
 10
-1775.821181429978
 20
4126.579561329827
 11
-1770.821181429978
 21
4126.579561329827
  0
LINE
  5
246
100
AcDbEntity
  8
0
  6
ByLayer
 62
  256
370
   -1
100
AcDbLine
 10
-1770.821181429978
 20
4126.579561329827
 11
-1770.821181429978
 21
4122.579561329827
  0
LINE
  5
247
100
AcDbEntity
  8
0
  6
ByLayer
 62
  256
370
   -1
100
AcDbLine
 10
-1770.821181429978
 20
4122.579561329827
 11
-1750.821181429978
 21
4122.579561329827
  0
LINE
  5
248
100
AcDbEntity
  8
0
  6
ByLayer
 62
  256
370
   -1
100
AcDbLine
 10
-1750.821181429978
 20
4122.579561329827
 11
-1750.821181429978
 21
4126.579561329827
  0
LINE
  5
249
100
AcDbEntity
  8
0
  6
ByLayer
 62
  256
370
   -1
100
AcDbLine
 10
-1750.821181429978
 20
4126.579561329827
 11
-1745.821181429978
 21
4126.579561329827
  0
LINE
  5
24A
100
AcDbEntity
  8
0
  6
ByLayer
 62
  256
370
   -1
100
AcDbLine
 10
-1745.821181429978
 20
4126.579561329827
 11
-1745.821181429978
 21
4176.579561329827
  0
LINE
  5
24B
100
AcDbEntity
  8
0
  6
ByLayer
 62
  256
370
   -1
100
AcDbLine
 10
-1745.821181429978
 20
4176.579561329827
 11
-1750.821181429978
 21
4176.579561329827
  0
LINE
  5
24C
100
AcDbEntity
  8
0
  6
ByLayer
 62
  256
370
   -1
100
AcDbLine
 10
-1750.821181429978
 20
4176.579561329827
 11
-1750.821181429978
 21
4180.579561329827
  0
LINE
  5
24D
100
AcDbEntity
  8
0
  6
ByLayer
 62
  256
370
   -1
100
AcDbLine
 10
-1750.821181429978
 20
4180.579561329827
 11
-1770.821181429978
 21
4180.579561329827
  0
LINE
  5
24E
100
AcDbEntity
  8
0
  6
ByLayer
 62
  256
370
   -1
100
AcDbLine
 10
-1770.821181429978
 20
4180.579561329827
 11
-1770.821181429978
 21
4176.579561329827
  0
LINE
  5
24F
100
AcDbEntity
  8
0
  6
ByLayer
 62
  256
370
   -1
100
AcDbLine
 10
-1770.821181429978
 20
4176.579561329827
 11
-1775.821181429978
 21
4176.579561329827
  0
LINE
  5
250
100
AcDbEntity
  8
0
  6
ByLayer
 62
  256
370
   -1
100
AcDbLine
 10
-1775.821181429978
 20
4176.579561329827
 11
-1775.821181429978
 21
4126.579561329827
  0
LINE
  5
251
100
AcDbEntity
  8
0
  6
ByLayer
 62
  256
370
   -1
100
AcDbLine
 10
-1735.821181429978
 20
4126.579561329827
 11
-1730.821181429978
 21
4126.579561329827
  0
LINE
  5
252
100
AcDbEntity
  8
0
  6
ByLayer
 62
  256
370
   -1
100
AcDbLine
 10
-1730.821181429978
 20
4126.579561329827
 11
-1730.821181429978
 21
4122.579561329827
  0
LINE
  5
253
100
AcDbEntity
  8
0
  6
ByLayer
 62
  256
370
   -1
100
AcDbLine
 10
-1730.821181429978
 20
4122.579561329827
 11
-1710.821181429978
 21
4122.579561329827
  0
LINE
  5
254
100
AcDbEntity
  8
0
  6
ByLayer
 62
  256
370
   -1
100
AcDbLine
 10
-1710.821181429978
 20
4122.579561329827
 11
-1710.821181429978
 21
4126.579561329827
  0
LINE
  5
255
100
AcDbEntity
  8
0
  6
ByLayer
 62
  256
370
   -1
100
AcDbLine
 10
-1710.821181429978
 20
4126.579561329827
 11
-1705.821181429978
 21
4126.579561329827
  0
LINE
  5
256
100
AcDbEntity
  8
0
  6
ByLayer
 62
  256
370
   -1
100
AcDbLine
 10
-1705.821181429978
 20
4126.579561329827
 11
-1705.821181429978
 21
4176.579561329827
  0
LINE
  5
257
100
AcDbEntity
  8
0
  6
ByLayer
 62
  256
370
   -1
100
AcDbLine
 10
-1705.821181429978
 20
4176.579561329827
 11
-1710.821181429978
 21
4176.579561329827
  0
LINE
  5
258
100
AcDbEntity
  8
0
  6
ByLayer
 62
  256
370
   -1
100
AcDbLine
 10
-1710.821181429978
 20
4176.579561329827
 11
-1710.821181429978
 21
4180.579561329827
  0
LINE
  5
259
100
AcDbEntity
  8
0
  6
ByLayer
 62
  256
370
   -1
100
AcDbLine
 10
-1710.821181429978
 20
4180.579561329827
 11
-1730.821181429978
 21
4180.579561329827
  0
LINE
  5
25A
100
AcDbEntity
  8
0
  6
ByLayer
 62
  256
370
   -1
100
AcDbLine
 10
-1730.821181429978
 20
4180.579561329827
 11
-1730.821181429978
 21
4176.579561329827
  0
LINE
  5
25B
100
AcDbEntity
  8
0
  6
ByLayer
 62
  256
370
   -1
100
AcDbLine
 10
-1730.821181429978
 20
4176.579561329827
 11
-1735.821181429978
 21
4176.579561329827
  0
LINE
  5
25C
100
AcDbEntity
  8
0
  6
ByLayer
 62
  256
370
   -1
100
AcDbLine
 10
-1735.821181429978
 20
4176.579561329827
 11
-1735.821181429978
 21
4126.579561329827
  0
ENDSEC
  0
SECTION
  2
OBJECTS
  0
DICTIONARY
  5
C
330
0
100
AcDbDictionary
281
    1
  3
ACAD_GROUP
350
D
  0
DICTIONARY
  5
D
330
C
100
AcDbDictionary
281
    1
  0
ENDSEC
  0
EOF
