999
dxfrw 0.6.3
  0
SECTION
  2
HEADER
  9
$ACADVER
  1
AC1021
  9
$DWGCODEPAGE
  3
ANSI_1252
  9
$INSBASE
 10
0
 20
0
 30
0
  9
$EXTMIN
 10
-3377.973156581463
 20
1.224646799147353e-16
 30
0
  9
$EXTMAX
 10
2703.559280407831
 20
5260
 30
0
  9
$LIMMIN
 10
0
 20
0
  9
$LIMMAX
 10
420
 20
297
  9
$ORTHOMODE
 70
    0
  9
$REGENMODE
 70
    1
  9
$FILLMODE
 70
    1
  9
$QTEXTMODE
 70
    0
  9
$MIRRTEXT
 70
    0
  9
$LTSCALE
 40
1
  9
$ATTMODE
 70
    0
  9
$TEXTSIZE
 40
2.5
  9
$TRACEWID
 40
15.68
  9
$TEXTSTYLE
  7
STANDARD
  9
$CLAYER
  8
0
  9
$CELTYPE
  6
BYLAYER
  9
$CECOLOR
 62
  256
  9
$CELTSCALE
 40
1
  9
$DISPSILH
 70
    0
  9
$DIMSCALE
 40
5
  9
$DIMASZ
 40
2.5
  9
$DIMEXO
 40
0.625
  9
$DIMDLI
 40
3.75
  9
$DIMRND
 40
0
  9
$DIMDLE
 40
0
  9
$DIMEXE
 40
1.25
  9
$DIMTP
 40
0
  9
$DIMTM
 40
0
  9
$DIMTXT
 40
2.5
  9
$DIMCEN
 40
2.5
  9
$DIMTSZ
 40
0
  9
$DIMTOL
 70
    0
  9
$DIMLIM
 70
    0
  9
$DIMTIH
 70
    0
  9
$DIMTOH
 70
    0
  9
$DIMSE1
 70
    0
  9
$DIMSE2
 70
    0
  9
$DIMTAD
 70
    1
  9
$DIMZIN
 70
    8
  9
$DIMBLK
  1

  9
$DIMASO
 70
    1
  9
$DIMSHO
 70
    1
  9
$DIMPOST
  1

  9
$DIMAPOST
  1

  9
$DIMALT
 70
    0
  9
$DIMALTD
 70
    3
  9
$DIMALTF
 40
0.03937
  9
$DIMLFAC
 40
1
  9
$DIMTOFL
 70
    1
  9
$DIMTVP
 40
0
  9
$DIMTIX
 70
    0
  9
$DIMSOXD
 70
    0
  9
$DIMSAH
 70
    0
  9
$DIMBLK1
  1

  9
$DIMBLK2
  1

  9
$DIMSTYLE
  2
STANDARD
  9
$DIMCLRD
 70
    0
  9
$DIMCLRE
 70
    0
  9
$DIMCLRT
 70
    0
  9
$DIMTFAC
 40
1
  9
$DIMGAP
 40
0.625
  9
$DIMJUST
 70
    0
  9
$DIMSD1
 70
    0
  9
$DIMSD2
 70
    0
  9
$DIMTOLJ
 70
    0
  9
$DIMTZIN
 70
    8
  9
$DIMALTZ
 70
    0
  9
$DIMALTTZ
 70
    0
  9
$DIMUPT
 70
    0
  9
$DIMDEC
 70
    4
  9
$DIMTDEC
 70
    2
  9
$DIMALTU
 70
    2
  9
$DIMALTTD
 70
    3
  9
$DIMTXSTY
  7
standard
  9
$DIMAUNIT
 70
    0
  9
$DIMADEC
 70
    2
  9
$DIMALTRND
 40
0
  9
$DIMAZIN
 70
    0
  9
$DIMDSEP
 70
    0
  9
$DIMATFIT
 70
    3
  9
$DIMFRAC
 70
    0
  9
$DIMLDRBLK
  1
STANDARD
  9
$DIMLUNIT
 70
    2
  9
$DIMLWD
 70
   -2
  9
$DIMLWE
 70
   -2
  9
$DIMTMOVE
 70
    0
  9
$DIMFXL
 40
1
  9
$DIMFXLON
 70
    0
  9
$DIMJOGANG
 40
0.7854
  9
$DIMTFILL
 70
    0
  9
$DIMTFILLCLR
 70
    0
  9
$DIMARCSYM
 70
    0
  9
$DIMLTYPE
  6

  9
$DIMLTEX1
  6

  9
$DIMLTEX2
  6

  9
$LUNITS
 70
    2
  9
$LUPREC
 70
    4
  9
$SKETCHINC
 40
1
  9
$FILLETRAD
 40
0
  9
$AUNITS
 70
    0
  9
$AUPREC
 70
    2
  9
$MENU
  1
.
  9
$ELEVATION
 40
0
  9
$PELEVATION
 40
0
  9
$THICKNESS
 40
0
  9
$LIMCHECK
 70
    0
  9
$CHAMFERA
 40
0
  9
$CHAMFERB
 40
0
  9
$CHAMFERC
 40
0
  9
$CHAMFERD
 40
0
  9
$SKPOLY
 70
    0
  9
$USRTIMER
 70
    1
  9
$ANGBASE
 50
0
  9
$ANGDIR
 70
    0
  9
$PDMODE
 70
   34
  9
$PDSIZE
 40
0
  9
$PLINEWID
 40
0
  9
$SPLFRAME
 70
    0
  9
$SPLINETYPE
 70
    2
  9
$SPLINESEGS
 70
    8
  9
$HANDSEED
  5
20000
  9
$SURFTAB1
 70
    6
  9
$SURFTAB2
 70
    6
  9
$SURFTYPE
 70
    6
  9
$SURFU
 70
    6
  9
$SURFV
 70
    6
  9
$UCSBASE
  2

  9
$UCSNAME
  2

  9
$UCSORG
 10
0
 20
0
 30
0
  9
$UCSXDIR
 10
1
 20
0
 30
0
  9
$UCSYDIR
 10
0
 20
1
 30
0
  9
$UCSORTHOREF
  2

  9
$UCSORTHOVIEW
 70
    0
  9
$UCSORGTOP
 10
0
 20
0
 30
0
  9
$UCSORGBOTTOM
 10
0
 20
0
 30
0
  9
$UCSORGLEFT
 10
0
 20
0
 30
0
  9
$UCSORGRIGHT
 10
0
 20
0
 30
0
  9
$UCSORGFRONT
 10
0
 20
0
 30
0
  9
$UCSORGBACK
 10
0
 20
0
 30
0
  9
$PUCSBASE
  2

  9
$PUCSNAME
  2

  9
$PUCSORG
 10
0
 20
0
 30
0
  9
$PUCSXDIR
 10
1
 20
0
 30
0
  9
$PUCSYDIR
 10
0
 20
1
 30
0
  9
$PUCSORTHOREF
  2

  9
$PUCSORTHOVIEW
 70
    0
  9
$PUCSORGTOP
 10
0
 20
0
 30
0
  9
$PUCSORGBOTTOM
 10
0
 20
0
 30
0
  9
$PUCSORGLEFT
 10
0
 20
0
 30
0
  9
$PUCSORGRIGHT
 10
0
 20
0
 30
0
  9
$PUCSORGFRONT
 10
0
 20
0
 30
0
  9
$PUCSORGBACK
 10
0
 20
0
 30
0
  9
$USERI1
 70
    0
  9
$USERI2
 70
    0
  9
$USERI3
 70
    0
  9
$USERI4
 70
    0
  9
$USERI5
 70
    0
  9
$USERR1
 40
0
  9
$USERR2
 40
0
  9
$USERR3
 40
0
  9
$USERR4
 40
0
  9
$USERR5
 40
0
  9
$WORLDVIEW
 70
    1
  9
$SHADEDGE
 70
    3
  9
$SHADEDIF
 70
   70
  9
$TILEMODE
 70
    1
  9
$MAXACTVP
 70
   64
  9
$PINSBASE
 10
0
 20
0
 30
0
  9
$PLIMCHECK
 70
    0
  9
$PEXTMIN
 10
0
 20
0
 30
0
  9
$PEXTMAX
 10
0
 20
0
 30
0
  9
$GRIDMODE
 70
    1
  9
$SNAPSTYLE
 70
    0
  9
$GRIDUNIT
 10
0
 20
0
  9
$PLIMMIN
 10
0
 20
0
  9
$PLIMMAX
 10
297
 20
210
  9
$UNITMODE
 70
    0
  9
$VISRETAIN
 70
    1
  9
$PLINEGEN
 70
    0
  9
$PSLTSCALE
 70
    1
  9
$TREEDEPTH
 70
 3020
  9
$CMLSTYLE
  2
Standard
  9
$CMLJUST
 70
    0
  9
$CMLSCALE
 40
20
  9
$PROXYGRAPHICS
 70
    1
  9
$MEASUREMENT
 70
    1
  9
$CELWEIGHT
370
   -1
  9
$ENDCAPS
280
    0
  9
$JOINSTYLE
280
    0
  9
$LWDISPLAY
290
    0
  9
$INSUNITS
 70
    4
  9
$HYPERLINKBASE
  1

  9
$STYLESHEET
  1

  9
$XEDIT
290
    1
  9
$CEPSNTYPE
380
    0
  9
$PSTYLEMODE
290
    1
  9
$EXTNAMES
290
    1
  9
$PSVPSCALE
 40
1
  9
$OLESTARTUP
290
    0
  9
$SORTENTS
280
  127
  9
$INDEXCTL
280
    0
  9
$HIDETEXT
280
    1
  9
$XCLIPFRAME
290
    0
  9
$HALOGAP
280
    0
  9
$OBSCOLOR
 70
  257
  9
$OBSLTYPE
280
    0
  9
$INTERSECTIONDISPLAY
280
    0
  9
$INTERSECTIONCOLOR
 70
  257
  9
$DIMASSOC
280
    1
  9
$PROJECTNAME
  1

  9
$CAMERADISPLAY
290
    0
  9
$LENSLENGTH
 40
50
  9
$CAMERAHEIGHT
 40
0
  9
$STEPSPERSEC
 40
2
  9
$STEPSIZE
 40
50
  9
$3DDWFPREC
 40
2
  9
$PSOLWIDTH
 40
5
  9
$PSOLHEIGHT
 40
80
  9
$LOFTANG1
 40
1.570796326794897
  9
$LOFTANG2
 40
1.570796326794897
  9
$LOFTMAG1
 40
0
  9
$LOFTMAG2
 40
0
  9
$LOFTPARAM
 70
    7
  9
$LOFTNORMALS
280
    1
  9
$LATITUDE
 40
1
  9
$LONGITUDE
 40
1
  9
$NORTHDIRECTION
 40
0
  9
$TIMEZONE
 70
-8000
  9
$LIGHTGLYPHDISPLAY
280
    1
  9
$TILEMODELIGHTSYNCH
280
    1
  9
$SOLIDHIST
280
    1
  9
$SHOWHIST
280
    1
  9
$DWFFRAME
280
    2
  9
$DGNFRAME
280
    0
  9
$REALWORLDSCALE
290
    1
  9
$INTERFERECOLOR
 62
    1
  9
$CSHADOW
280
    0
  9
$SHADOWPLANELOCATION
 40
0
  0
ENDSEC
  0
SECTION
  2
CLASSES
  0
ENDSEC
  0
SECTION
  2
TABLES
  0
TABLE
  2
VPORT
  5
8
330
0
100
AcDbSymbolTable
 70
    1
  0
VPORT
  5
31
330
2
100
AcDbSymbolTableRecord
100
AcDbViewportTableRecord
  2
*ACTIVE
 70
    0
 10
0
 20
0
 11
1
 21
1
 12
-728.9322860892971
 22
2619.191366053369
 13
0
 23
0
 14
10
 24
10
 15
10
 25
10
 16
0
 26
0
 36
1
 17
0
 27
0
 37
0
 40
531.6917851474873
 41
1.702886247877759
 42
50
 43
0
 44
0
 50
0
 51
0
 71
    0
 72
  100
 73
    1
 74
    3
 75
    0
 76
    1
 77
    0
 78
    0
281
    0
 65
    1
110
0
120
0
130
0
111
1
121
0
131
0
112
0
122
1
132
0
 79
    0
146
0
348
10020
 60
    7
 61
    5
292
1
282
    1
141
0
142
0
 63
  250
421
3358443
  0
ENDTAB
  0
TABLE
  2
LTYPE
  5
5
330
0
100
AcDbSymbolTable
 70
    4
  0
LTYPE
  5
14
330
5
100
AcDbSymbolTableRecord
100
AcDbLinetypeTableRecord
  2
ByBlock
 70
    0
  3

 72
   65
 73
    0
 40
0
  0
LTYPE
  5
15
330
5
100
AcDbSymbolTableRecord
100
AcDbLinetypeTableRecord
  2
ByLayer
 70
    0
  3

 72
   65
 73
    0
 40
0
  0
LTYPE
  5
16
330
5
100
AcDbSymbolTableRecord
100
AcDbLinetypeTableRecord
  2
Continuous
 70
    0
  3
Solid line
 72
   65
 73
    0
 40
0
  0
LTYPE
  5
32
330
5
100
AcDbSymbolTableRecord
100
AcDbLinetypeTableRecord
  2
DOT
 70
    0
  3
Dot . . . . . . . . . . . . . . . . . . . . . .
 72
   65
 73
    2
 40
6.35
 49
0
 74
    0
 49
-6.35
 74
    0
  0
LTYPE
  5
33
330
5
100
AcDbSymbolTableRecord
100
AcDbLinetypeTableRecord
  2
DOTTINY
 70
    0
  3
Dot (.15x) .....................................
 72
   65
 73
    2
 40
0.9525
 49
0
 74
    0
 49
-0.9525
 74
    0
  0
LTYPE
  5
34
330
5
100
AcDbSymbolTableRecord
100
AcDbLinetypeTableRecord
  2
DOT2
 70
    0
  3
Dot (.5x) .....................................
 72
   65
 73
    2
 40
3.175
 49
0
 74
    0
 49
-3.175
 74
    0
  0
LTYPE
  5
35
330
5
100
AcDbSymbolTableRecord
100
AcDbLinetypeTableRecord
  2
DOTX2
 70
    0
  3
Dot (2x) .  .  .  .  .  .  .  .  .  .  .  .  .
 72
   65
 73
    2
 40
12.7
 49
0
 74
    0
 49
-12.7
 74
    0
  0
LTYPE
  5
36
330
5
100
AcDbSymbolTableRecord
100
AcDbLinetypeTableRecord
  2
DASHED
 70
    0
  3
Dashed _ _ _ _ _ _ _ _ _ _ _ _ _ _ _ _ _
 72
   65
 73
    2
 40
19.05
 49
12.7
 74
    0
 49
-6.35
 74
    0
  0
LTYPE
  5
37
330
5
100
AcDbSymbolTableRecord
100
AcDbLinetypeTableRecord
  2
DASHEDTINY
 70
    0
  3
Dashed (.15x) _ _ _ _ _ _ _ _ _ _ _ _ _ _ _ _ _
 72
   65
 73
    2
 40
2.8575
 49
1.905
 74
    0
 49
-0.9525
 74
    0
  0
LTYPE
  5
38
330
5
100
AcDbSymbolTableRecord
100
AcDbLinetypeTableRecord
  2
DASHED2
 70
    0
  3
Dashed (.5x) _ _ _ _ _ _ _ _ _ _ _ _ _ _ _ _ _
 72
   65
 73
    2
 40
9.524999999999999
 49
6.35
 74
    0
 49
-3.175
 74
    0
  0
LTYPE
  5
39
330
5
100
AcDbSymbolTableRecord
100
AcDbLinetypeTableRecord
  2
DASHEDX2
 70
    0
  3
Dashed (2x) ____  ____  ____  ____  ____  ___
 72
   65
 73
    2
 40
38.09999999999999
 49
25.4
 74
    0
 49
-12.7
 74
    0
  0
LTYPE
  5
3A
330
5
100
AcDbSymbolTableRecord
100
AcDbLinetypeTableRecord
  2
DASHDOT
 70
    0
  3
Dash dot __ . __ . __ . __ . __ . __ . __ . __
 72
   65
 73
    4
 40
25.4
 49
12.7
 74
    0
 49
-6.35
 74
    0
 49
0
 74
    0
 49
-6.35
 74
    0
  0
LTYPE
  5
3B
330
5
100
AcDbSymbolTableRecord
100
AcDbLinetypeTableRecord
  2
DASHDOTTINY
 70
    0
  3
Dash dot (.15x) _._._._._._._._._._._._._._._.
 72
   65
 73
    4
 40
3.81
 49
1.905
 74
    0
 49
-0.9525
 74
    0
 49
0
 74
    0
 49
-0.9525
 74
    0
  0
LTYPE
  5
3C
330
5
100
AcDbSymbolTableRecord
100
AcDbLinetypeTableRecord
  2
DASHDOT2
 70
    0
  3
Dash dot (.5x) _._._._._._._._._._._._._._._.
 72
   65
 73
    4
 40
12.7
 49
6.35
 74
    0
 49
-3.175
 74
    0
 49
0
 74
    0
 49
-3.175
 74
    0
  0
LTYPE
  5
3D
330
5
100
AcDbSymbolTableRecord
100
AcDbLinetypeTableRecord
  2
DASHDOTX2
 70
    0
  3
Dash dot (2x) ____  .  ____  .  ____  .  ___
 72
   65
 73
    4
 40
50.8
 49
25.4
 74
    0
 49
-12.7
 74
    0
 49
0
 74
    0
 49
-12.7
 74
    0
  0
LTYPE
  5
3E
330
5
100
AcDbSymbolTableRecord
100
AcDbLinetypeTableRecord
  2
DIVIDE
 70
    0
  3
Divide ____ . . ____ . . ____ . . ____ . . ____
 72
   65
 73
    6
 40
31.75
 49
12.7
 74
    0
 49
-6.35
 74
    0
 49
0
 74
    0
 49
-6.35
 74
    0
 49
0
 74
    0
 49
-6.35
 74
    0
  0
LTYPE
  5
3F
330
5
100
AcDbSymbolTableRecord
100
AcDbLinetypeTableRecord
  2
DIVIDETINY
 70
    0
  3
Divide (.15x) __..__..__..__..__..__..__..__.._
 72
   65
 73
    6
 40
4.7625
 49
1.905
 74
    0
 49
-0.9525
 74
    0
 49
0
 74
    0
 49
-0.9525
 74
    0
 49
0
 74
    0
 49
-0.9525
 74
    0
  0
LTYPE
  5
40
330
5
100
AcDbSymbolTableRecord
100
AcDbLinetypeTableRecord
  2
DIVIDE2
 70
    0
  3
Divide (.5x) __..__..__..__..__..__..__..__.._
 72
   65
 73
    6
 40
15.875
 49
6.35
 74
    0
 49
-3.175
 74
    0
 49
0
 74
    0
 49
-3.175
 74
    0
 49
0
 74
    0
 49
-3.175
 74
    0
  0
LTYPE
  5
41
330
5
100
AcDbSymbolTableRecord
100
AcDbLinetypeTableRecord
  2
DIVIDEX2
 70
    0
  3
Divide (2x) ________  .  .  ________  .  .  _
 72
   65
 73
    6
 40
63.5
 49
25.4
 74
    0
 49
-12.7
 74
    0
 49
0
 74
    0
 49
-12.7
 74
    0
 49
0
 74
    0
 49
-12.7
 74
    0
  0
LTYPE
  5
42
330
5
100
AcDbSymbolTableRecord
100
AcDbLinetypeTableRecord
  2
BORDER
 70
    0
  3
Border __ __ . __ __ . __ __ . __ __ . __ __ .
 72
   65
 73
    6
 40
44.45
 49
12.7
 74
    0
 49
-6.35
 74
    0
 49
12.7
 74
    0
 49
-6.35
 74
    0
 49
0
 74
    0
 49
-6.35
 74
    0
  0
LTYPE
  5
43
330
5
100
AcDbSymbolTableRecord
100
AcDbLinetypeTableRecord
  2
BORDERTINY
 70
    0
  3
Border (.15x) __.__.__.__.__.__.__.__.__.__.__.
 72
   65
 73
    6
 40
6.6675
 49
1.905
 74
    0
 49
-0.9525
 74
    0
 49
1.905
 74
    0
 49
-0.9525
 74
    0
 49
0
 74
    0
 49
-0.9525
 74
    0
  0
LTYPE
  5
44
330
5
100
AcDbSymbolTableRecord
100
AcDbLinetypeTableRecord
  2
BORDER2
 70
    0
  3
Border (.5x) __.__.__.__.__.__.__.__.__.__.__.
 72
   65
 73
    6
 40
22.225
 49
6.35
 74
    0
 49
-3.175
 74
    0
 49
6.35
 74
    0
 49
-3.175
 74
    0
 49
0
 74
    0
 49
-3.175
 74
    0
  0
LTYPE
  5
45
330
5
100
AcDbSymbolTableRecord
100
AcDbLinetypeTableRecord
  2
BORDERX2
 70
    0
  3
Border (2x) ____  ____  .  ____  ____  .  ___
 72
   65
 73
    6
 40
88.89999999999999
 49
25.4
 74
    0
 49
-12.7
 74
    0
 49
25.4
 74
    0
 49
-12.7
 74
    0
 49
0
 74
    0
 49
-12.7
 74
    0
  0
LTYPE
  5
46
330
5
100
AcDbSymbolTableRecord
100
AcDbLinetypeTableRecord
  2
CENTER
 70
    0
  3
Center ____ _ ____ _ ____ _ ____ _ ____ _ ____
 72
   65
 73
    4
 40
50.8
 49
31.75
 74
    0
 49
-6.35
 74
    0
 49
6.35
 74
    0
 49
-6.35
 74
    0
  0
LTYPE
  5
47
330
5
100
AcDbSymbolTableRecord
100
AcDbLinetypeTableRecord
  2
CENTERTINY
 70
    0
  3
Center (.15x) ___ _ ___ _ ___ _ ___ _ ___ _ ___
 72
   65
 73
    4
 40
7.619999999999999
 49
4.7625
 74
    0
 49
-0.9525
 74
    0
 49
0.9525
 74
    0
 49
-0.9525
 74
    0
  0
LTYPE
  5
48
330
5
100
AcDbSymbolTableRecord
100
AcDbLinetypeTableRecord
  2
CENTER2
 70
    0
  3
Center (.5x) ___ _ ___ _ ___ _ ___ _ ___ _ ___
 72
   65
 73
    4
 40
28.575
 49
19.05
 74
    0
 49
-3.175
 74
    0
 49
3.175
 74
    0
 49
-3.175
 74
    0
  0
LTYPE
  5
49
330
5
100
AcDbSymbolTableRecord
100
AcDbLinetypeTableRecord
  2
CENTERX2
 70
    0
  3
Center (2x) ________  __  ________  __  _____
 72
   65
 73
    4
 40
101.6
 49
63.5
 74
    0
 49
-12.7
 74
    0
 49
12.7
 74
    0
 49
-12.7
 74
    0
  0
ENDTAB
  0
TABLE
  2
LAYER
  5
2
330
0
100
AcDbSymbolTable
 70
    1
  0
LAYER
  5
10
330
2
100
AcDbSymbolTableRecord
100
AcDbLayerTableRecord
  2
0
 70
    0
 62
    7
  6
CONTINUOUS
370
    0
390
F
  0
LAYER
  5
4A
330
2
100
AcDbSymbolTableRecord
100
AcDbLayerTableRecord
  2
top
 70
    0
 62
  216
420
8388736
  6
CONTINUOUS
370
    0
390
F
  0
ENDTAB
  0
TABLE
  2
STYLE
  5
3
330
0
100
AcDbSymbolTable
 70
    3
  0
STYLE
  5
4B
330
2
100
AcDbSymbolTableRecord
100
AcDbTextStyleTableRecord
  2
Standard
 70
    0
 40
0
 41
1
 50
0
 71
    0
 42
1
  3
txt
  4

  0
ENDTAB
  0
TABLE
  2
VIEW
  5
6
330
0
100
AcDbSymbolTable
 70
    0
  0
ENDTAB
  0
TABLE
  2
UCS
  5
7
330
0
100
AcDbSymbolTable
 70
    0
  0
ENDTAB
  0
TABLE
  2
APPID
  5
9
330
0
100
AcDbSymbolTable
 70
    1
  0
APPID
  5
12
330
9
100
AcDbSymbolTableRecord
100
AcDbRegAppTableRecord
  2
ACAD
 70
    0
  0
APPID
  5
4C
330
9
100
AcDbSymbolTableRecord
100
AcDbRegAppTableRecord
  2
LibreCad
 70
    0
  0
ENDTAB
  0
TABLE
  2
DIMSTYLE
  5
A
330
0
100
AcDbSymbolTable
 70
    1
100
AcDbDimStyleTable
 71
    1
  0
DIMSTYLE
105
4D
330
A
100
AcDbSymbolTableRecord
100
AcDbDimStyleTableRecord
  2
Standard
 70
    0
 40
5
 41
2.5
 42
0.625
 43
0.38
 44
1.25
 45
0
 46
0
 47
0
 48
0
 49
1
140
2.5
141
0.09
142
0
143
25.4
144
1
145
0
146
1
147
0.625
148
0
 71
    0
 72
    0
 73
    0
 74
    1
 75
    0
 76
    0
 77
    0
 78
    8
 79
    0
170
    0
171
    2
172
    0
173
    0
174
    0
175
    0
176
    0
177
    0
178
    0
179
    2
271
    4
272
    4
273
    2
274
    2
275
    0
276
    0
277
    2
278
    0
279
    0
280
    0
281
    0
282
    0
283
    1
284
    0
285
    0
286
    0
288
    0
289
    3
340
standard
341

371
   -2
372
   -2
  0
ENDTAB
  0
TABLE
  2
BLOCK_RECORD
  5
1
330
0
100
AcDbSymbolTable
 70
    2
  0
BLOCK_RECORD
  5
1F
330
1
100
AcDbSymbolTableRecord
100
AcDbBlockTableRecord
  2
*Model_Space
 70
    0
280
    1
281
    0
  0
BLOCK_RECORD
  5
1E
330
1
100
AcDbSymbolTableRecord
100
AcDbBlockTableRecord
  2
*Paper_Space
 70
    0
280
    1
281
    0
  0
BLOCK_RECORD
  5
4E
330
1
100
AcDbSymbolTableRecord
100
AcDbBlockTableRecord
  2
*D1
 70
    0
280
    1
281
    0
  0
ENDTAB
  0
ENDSEC
  0
SECTION
  2
BLOCKS
  0
BLOCK
  5
20
330
1F
100
AcDbEntity
  8
0
100
AcDbBlockBegin
  2
*Model_Space
 70
    0
 10
0
 20
0
 30
0
  3
*Model_Space
  1

  0
ENDBLK
  5
21
330
1F
100
AcDbEntity
  8
0
100
AcDbBlockEnd
  0
BLOCK
  5
1C
330
1B
100
AcDbEntity
  8
0
100
AcDbBlockBegin
  2
*Paper_Space
 70
    0
 10
0
 20
0
 30
0
  3
*Paper_Space
  1

  0
ENDBLK
  5
1D
330
1F
100
AcDbEntity
  8
0
100
AcDbBlockEnd
  0
BLOCK
  5
4F
330
4E
100
AcDbEntity
  8
0
100
AcDbBlockBegin
  2
*D1
 70
    1
 10
0
 20
0
  3
*D1
  1

  0
LINE
  5
51
100
AcDbEntity
  8
0
  6
ByBlock
 62
    0
370
   -2
100
AcDbLine
 10
2335.768989099039
 20
2842.209708691215
 11
2373.430426414537
 21
2879.871146006715
  0
LINE
  5
52
100
AcDbEntity
  8
0
  6
ByBlock
 62
    0
370
   -2
100
AcDbLine
 10
2385.768989099039
 20
2792.209708691218
 11
2423.430426414537
 21
2829.871146006718
  0
LINE
  5
53
100
AcDbEntity
  8
0
  6
ByBlock
 62
    0
370
   -2
100
AcDbLine
 10
2369.011009032121
 20
2875.451728624299
 11
2419.011009032121
 21
2825.451728624302
  0
SOLID
  5
54
100
AcDbEntity
  8
0
  6
ByBlock
 62
    0
370
   -2
100
AcDbTrace
 10
2369.011009032121
 20
2875.451728624299
 30
0
 11
2379.321632319029
 21
2868.084682381543
 31
0
 12
2376.378055274878
 22
2865.141105337392
 32
0
 13
2376.378055274878
 23
2865.141105337392
 33
0
  0
SOLID
  5
55
100
AcDbEntity
  8
0
  6
ByBlock
 62
    0
370
   -2
100
AcDbTrace
 10
2419.011009032121
 20
2825.451728624302
 30
0
 11
2408.700385745213
 21
2832.818774867058
 31
0
 12
2411.643962789364
 22
2835.762351911209
 32
0
 13
2411.643962789364
 23
2835.762351911209
 33
0
  0
MTEXT
  5
56
100
AcDbEntity
  8
0
  6
CONTINUOUS
 62
    0
370
   -2
100
AcDbMText
 10
2400.640135105745
 20
2857.080854697925
 30
0
 40
12.5
 41
55.55555555555556
 71
    5
 72
    1
  1
70.7107
  7
standard
210
0
220
0
230
1
 50
315.0000000000018
 73
    2
 44
1
  0
ENDBLK
  5
50
330
4E
100
AcDbEntity
  8
0
100
AcDbBlockEnd
  0
ENDSEC
  0
SECTION
  2
ENTITIES
  0
CIRCLE
  5
57
100
AcDbEntity
  8
0
  6
ByLayer
 62
  256
370
   -1
100
AcDbCircle
 10
0
 20
3000
 40
150
  0
CIRCLE
  5
58
100
AcDbEntity
  8
0
  6
ByLayer
 62
  256
370
   -1
100
AcDbCircle
 10
0
 20
3000
 40
160
  0
CIRCLE
  5
59
100
AcDbEntity
  8
0
  6
ByLayer
 62
  256
370
   -1
100
AcDbCircle
 10
420
 20
3000
 40
160
  0
CIRCLE
  5
5A
100
AcDbEntity
  8
0
  6
ByLayer
 62
  256
370
   -1
100
AcDbCircle
 10
420
 20
3000
 40
150
  0
CIRCLE
  5
5B
100
AcDbEntity
  8
0
  6
ByLayer
 62
  256
370
   -1
100
AcDbCircle
 10
0
 20
2580
 40
150
  0
CIRCLE
  5
5C
100
AcDbEntity
  8
0
  6
ByLayer
 62
  256
370
   -1
100
AcDbCircle
 10
0
 20
2580
 40
160
  0
CIRCLE
  5
5D
100
AcDbEntity
  8
0
  6
ByLayer
 62
  256
370
   -1
100
AcDbCircle
 10
420
 20
2580
 40
160
  0
CIRCLE
  5
5E
100
AcDbEntity
  8
0
  6
ByLayer
 62
  256
370
   -1
100
AcDbCircle
 10
420
 20
2580
 40
150
  0
CIRCLE
  5
5F
100
AcDbEntity
  8
0
  6
ByLayer
 62
  256
370
   -1
100
AcDbCircle
 10
2123.559280407831
 20
3000
 40
150
  0
CIRCLE
  5
60
100
AcDbEntity
  8
0
  6
ByLayer
 62
  256
370
   -1
100
AcDbCircle
 10
2123.559280407831
 20
3000
 40
160
  0
LINE
  5
61
100
AcDbEntity
  8
0
  6
ByLayer
 62
  256
370
   -1
100
AcDbLine
 10
2123.559280407831
 20
3000
 11
2543.559280407831
 21
3000
  0
CIRCLE
  5
62
100
AcDbEntity
  8
0
  6
ByLayer
 62
  256
370
   -1
100
AcDbCircle
 10
2543.559280407831
 20
3000
 40
160
  0
CIRCLE
  5
63
100
AcDbEntity
  8
0
  6
ByLayer
 62
  256
370
   -1
100
AcDbCircle
 10
2543.559280407831
 20
3000
 40
150
  0
LINE
  5
64
100
AcDbEntity
  8
0
  6
ByLayer
 62
  256
370
   -1
100
AcDbLine
 10
2123.559280407831
 20
3000
 11
2123.559280407831
 21
2580
  0
CIRCLE
  5
65
100
AcDbEntity
  8
0
  6
ByLayer
 62
  256
370
   -1
100
AcDbCircle
 10
2123.559280407831
 20
2580
 40
150
  0
CIRCLE
  5
66
100
AcDbEntity
  8
0
  6
ByLayer
 62
  256
370
   -1
100
AcDbCircle
 10
2123.559280407831
 20
2580
 40
160
  0
LINE
  5
67
100
AcDbEntity
  8
0
  6
ByLayer
 62
  256
370
   -1
100
AcDbLine
 10
2123.559280407831
 20
2580
 11
2543.559280407831
 21
2580
  0
CIRCLE
  5
68
100
AcDbEntity
  8
0
  6
ByLayer
 62
  256
370
   -1
100
AcDbCircle
 10
2543.559280407831
 20
2580
 40
160
  0
CIRCLE
  5
69
100
AcDbEntity
  8
0
  6
ByLayer
 62
  256
370
   -1
100
AcDbCircle
 10
2543.559280407831
 20
2580
 40
150
  0
LINE
  5
6A
100
AcDbEntity
  8
0
  6
ByLayer
 62
  256
370
   -1
100
AcDbLine
 10
2543.559280407831
 20
2580
 11
2543.559280407831
 21
3000
  0
LINE
  5
6B
100
AcDbEntity
  8
0
  6
ByLayer
 62
  256
370
   -1
100
AcDbLine
 10
2123.559280407831
 20
2580
 11
2543.559280407831
 21
3000
  0
LINE
  5
6C
100
AcDbEntity
  8
0
  6
ByLayer
 62
  256
370
   -1
100
AcDbLine
 10
2123.559280407831
 20
3000
 11
2543.559280407831
 21
2580
  0
CIRCLE
  5
6D
100
AcDbEntity
  8
0
  6
ByLayer
 62
  256
370
   -1
100
AcDbCircle
 10
2333.559280407831
 20
2790
 40
50
  0
LINE
  5
6E
100
AcDbEntity
  8
0
  6
ByLayer
 62
  256
370
   -1
100
AcDbLine
 10
2703.559280407831
 20
3160
 11
2702.635400875319
 21
3159.617316567635
  0
LINE
  5
6F
100
AcDbEntity
  8
0
  6
ByLayer
 62
  256
370
   -1
100
AcDbLine
 10
2333.559280407831
 20
2420
 11
2333.559280407831
 21
3160
  0
LINE
  5
70
100
AcDbEntity
  8
0
  6
ByLayer
 62
  256
370
   -1
100
AcDbLine
 10
1963.55928040783
 20
2790
 11
2703.559280407831
 21
2790
  0
ARC
  5
71
100
AcDbEntity
  8
0
  6
ByLayer
 62
  256
370
   -1
100
AcDbCircle
 10
2123.559280407836
 20
2558.999999999965
 40
281.0000000000326
100
AcDbArc
 50
55.29195072748043
 51
124.7080492725196
  0
ARC
  5
72
100
AcDbEntity
  8
0
  6
ByLayer
 62
  256
370
   -1
100
AcDbCircle
 10
2564.559280407827
 20
3000.000000000004
 40
280.9999999999952
100
AcDbArc
 50
145.2919507274776
 51
214.7080492725224
  0
ARC
  5
73
100
AcDbEntity
  8
0
  6
ByLayer
 62
  256
370
   -1
100
AcDbCircle
 10
2102.559280407831
 20
2999.999999999997
 40
280.9999999999991
100
AcDbArc
 50
325.2919507274773
 51
34.70804927252354
  0
ARC
  5
74
100
AcDbEntity
  8
0
  6
ByLayer
 62
  256
370
   -1
100
AcDbCircle
 10
2543.559280407824
 20
2558.999999999979
 40
281.0000000000211
100
AcDbArc
 50
55.29195072747868
 51
124.7080492725213
  0
ARC
  5
75
100
AcDbEntity
  8
0
  6
ByLayer
 62
  256
370
   -1
100
AcDbCircle
 10
2543.559280407823
 20
3021.000000000038
 40
281.0000000000356
100
AcDbArc
 50
235.2919507274804
 51
304.7080492725194
  0
ARC
  5
76
100
AcDbEntity
  8
0
  6
ByLayer
 62
  256
370
   -1
100
AcDbCircle
 10
2102.559280407752
 20
2580
 40
281.0000000000641
100
AcDbArc
 50
325.2919507274864
 51
34.70804927251359
  0
ARC
  5
77
100
AcDbEntity
  8
0
  6
ByLayer
 62
  256
370
   -1
100
AcDbCircle
 10
2564.559280407818
 20
2579.999999999996
 40
280.9999999999878
100
AcDbArc
 50
145.2919507274765
 51
214.7080492725234
  0
ARC
  5
78
100
AcDbEntity
  8
0
  6
ByLayer
 62
  256
370
   -1
100
AcDbCircle
 10
2123.559280407832
 20
3020.999999999998
 40
280.9999999999969
100
AcDbArc
 50
235.2919507274763
 51
304.7080492725225
  0
DIMENSION
  5
79
100
AcDbEntity
  8
0
  6
ByLayer
 62
  256
370
   -1
100
AcDbDimension
  2
*D1
 10
2419.011009032121
 20
2825.451728624302
 30
0
 11
2400.640135105745
 21
2857.080854697925
 31
0
 70
   33
 71
    5
 72
    0
  3
Standard
 53
0
210
0
220
0
230
1
100
AcDbAlignedDimension
 13
2333.559280407831
 23
2840.000000000007
 33
0
 14
2383.559280407831
 24
2790.00000000001
 34
0
  0
ARC
  5
7A
100
AcDbEntity
  8
0
  6
ByLayer
 62
  256
370
   -1
100
AcDbCircle
 10
-20.99999999999915
 20
2999.999999999997
 40
280.9999999999991
100
AcDbArc
 50
325.2919507274773
 51
5.597776239375789e-13
  0
ARC
  5
7B
100
AcDbEntity
  8
0
  6
ByLayer
 62
  256
370
   -1
100
AcDbCircle
 10
440.9999999999968
 20
3000.000000000004
 40
280.9999999999952
100
AcDbArc
 50
180.0000000000007
 51
214.7080492725224
  0
ARC
  5
7C
100
AcDbEntity
  8
0
  6
ByLayer
 62
  256
370
   -1
100
AcDbCircle
 10
6.252776074688882e-12
 20
2558.999999999965
 40
281.0000000000326
100
AcDbArc
 50
55.29195072748043
 51
90.00000000000126
  0
ARC
  5
7D
100
AcDbEntity
  8
0
  6
ByLayer
 62
  256
370
   -1
100
AcDbCircle
 10
2.302158463862725e-12
 20
3020.999999999998
 40
280.9999999999969
100
AcDbArc
 50
269.9999999999995
 51
304.7080492725225
  0
ARC
  5
7E
100
AcDbEntity
  8
0
  6
ByLayer
 62
  256
370
   -1
100
AcDbCircle
 10
440.9999999999878
 20
2579.999999999996
 40
280.9999999999878
100
AcDbArc
 50
145.2919507274765
 51
179.9999999999993
  0
ARC
  5
7F
100
AcDbEntity
  8
0
  6
ByLayer
 62
  256
370
   -1
100
AcDbCircle
 10
-21.00000000007793
 20
2580
 40
281.0000000000641
100
AcDbArc
 50
0
 51
34.70804927251359
  0
ARC
  5
80
100
AcDbEntity
  8
0
  6
ByLayer
 62
  256
370
   -1
100
AcDbCircle
 10
419.9999999999928
 20
3021.000000000038
 40
281.0000000000356
100
AcDbArc
 50
235.2919507274804
 51
270.0000000000015
  0
ARC
  5
81
100
AcDbEntity
  8
0
  6
ByLayer
 62
  256
370
   -1
100
AcDbCircle
 10
419.9999999999934
 20
2558.999999999979
 40
281.0000000000211
100
AcDbArc
 50
89.99999999999866
 51
124.7080492725213
  0
CIRCLE
  5
82
100
AcDbEntity
  8
0
  6
ByLayer
 62
  256
370
   -1
100
AcDbCircle
 10
210
 20
2790
 40
131.5563970380448
  0
CIRCLE
  5
83
100
AcDbEntity
  8
0
  6
ByLayer
 62
  256
370
   -1
100
AcDbCircle
 10
-2204.730284271644
 20
4197.514196321718
 40
150
  0
CIRCLE
  5
84
100
AcDbEntity
  8
0
  6
ByLayer
 62
  256
370
   -1
100
AcDbCircle
 10
-1784.730284271644
 20
4197.514196321718
 40
150
  0
CIRCLE
  5
85
100
AcDbEntity
  8
0
  6
ByLayer
 62
  256
370
   -1
100
AcDbCircle
 10
-2204.730284271644
 20
3777.514196321718
 40
150
  0
CIRCLE
  5
86
100
AcDbEntity
  8
0
  6
ByLayer
 62
  256
370
   -1
100
AcDbCircle
 10
-1784.730284271644
 20
3777.514196321718
 40
150
  0
ARC
  5
87
100
AcDbEntity
  8
0
  6
ByLayer
 62
  256
370
   -1
100
AcDbCircle
 10
-2204.730284271644
 20
4197.514196321718
 40
160
100
AcDbArc
 50
3.307776868722058e-13
 51
269.9999999999989
  0
ARC
  5
88
100
AcDbEntity
  8
0
  6
ByLayer
 62
  256
370
   -1
100
AcDbCircle
 10
-1784.730284271644
 20
4197.514196321718
 40
160
100
AcDbArc
 50
269.9999999999998
 51
179.999999999995
  0
ARC
  5
89
100
AcDbEntity
  8
0
  6
ByLayer
 62
  256
370
   -1
100
AcDbCircle
 10
-1784.730284271644
 20
3777.514196321718
 40
160
100
AcDbArc
 50
179.9999999999995
 51
90.00000000000172
  0
ARC
  5
8A
100
AcDbEntity
  8
0
  6
ByLayer
 62
  256
370
   -1
100
AcDbCircle
 10
-2204.730284271644
 20
3777.514196321718
 40
160
100
AcDbArc
 50
89.99999999999731
 51
3.307776868722058e-13
  0
POINT
  5
8B
100
AcDbEntity
  8
0
  6
ByLayer
 62
  256
370
   -1
100
AcDbPoint
 10
-1994.730284271641
 20
3987.514196321718
  0
ARC
  5
8C
100
AcDbEntity
  8
0
  6
ByLayer
 62
  256
370
   -1
100
AcDbCircle
 10
-2225.730284271643
 20
4197.514196321717
 40
280.9999999999991
100
AcDbArc
 50
336.185885727444
 51
5.597776239375789e-13
  0
ARC
  5
8D
100
AcDbEntity
  8
0
  6
ByLayer
 62
  256
370
   -1
100
AcDbCircle
 10
-1763.730284271646
 20
4197.514196321723
 40
280.9999999999952
100
AcDbArc
 50
180.0000000000007
 51
203.8141142725584
  0
ARC
  5
8E
100
AcDbEntity
  8
0
  6
ByLayer
 62
  256
370
   -1
100
AcDbCircle
 10
-2204.730284271636
 20
3756.514196321683
 40
281.0000000000326
100
AcDbArc
 50
66.18588572744729
 51
90.00000000000126
  0
ARC
  5
8F
100
AcDbEntity
  8
0
  6
ByLayer
 62
  256
370
   -1
100
AcDbCircle
 10
-2204.73028427164
 20
4218.514196321717
 40
280.9999999999969
100
AcDbArc
 50
269.9999999999995
 51
293.8141142725566
  0
ARC
  5
90
100
AcDbEntity
  8
0
  6
ByLayer
 62
  256
370
   -1
100
AcDbCircle
 10
-1763.730284271655
 20
3777.514196321716
 40
280.9999999999878
100
AcDbArc
 50
156.185885727442
 51
179.9999999999993
  0
ARC
  5
91
100
AcDbEntity
  8
0
  6
ByLayer
 62
  256
370
   -1
100
AcDbCircle
 10
-2225.730284271722
 20
3777.514196321718
 40
281.0000000000641
100
AcDbArc
 50
0
 51
23.8141142725501
  0
ARC
  5
92
100
AcDbEntity
  8
0
  6
ByLayer
 62
  256
370
   -1
100
AcDbCircle
 10
-1784.730284271649
 20
3756.514196321697
 40
281.0000000000211
100
AcDbArc
 50
89.99999999999866
 51
113.8141142725534
  0
ARC
  5
93
100
AcDbEntity
  8
0
  6
ByLayer
 62
  256
370
   -1
100
AcDbCircle
 10
-1784.73028427165
 20
4218.514196321757
 40
281.0000000000356
100
AcDbArc
 50
246.1858857274486
 51
270.0000000000015
  0
ARC
  5
94
100
AcDbEntity
  8
0
  6
ByLayer
 62
  256
370
   -1
100
AcDbCircle
 10
-1994.730284271641
 20
3987.514196321718
 40
99.99999999999785
100
AcDbArc
 50
74.88500071647904
 51
105.1149992835212
  0
ARC
  5
95
100
AcDbEntity
  8
0
  6
ByLayer
 62
  256
370
   -1
100
AcDbCircle
 10
-1994.730284271641
 20
3987.514196321718
 40
100.0000000000006
100
AcDbArc
 50
164.8850007164765
 51
195.1149992835212
  0
ARC
  5
96
100
AcDbEntity
  8
0
  6
ByLayer
 62
  256
370
   -1
100
AcDbCircle
 10
-1994.730284271641
 20
3987.514196321718
 40
100.0000000000013
100
AcDbArc
 50
254.8850007164776
 51
285.1149992835163
  0
ARC
  5
97
100
AcDbEntity
  8
0
  6
ByLayer
 62
  256
370
   -1
100
AcDbCircle
 10
-1994.730284271641
 20
3987.514196321718
 40
100.0000000000001
100
AcDbArc
 50
344.8850007164756
 51
15.11499928352512
  0
CIRCLE
  5
98
100
AcDbEntity
  8
0
  6
ByLayer
 62
  256
370
   -1
100
AcDbCircle
 10
-1175.284684089783
 20
4192.168684946541
 40
150
  0
CIRCLE
  5
99
100
AcDbEntity
  8
0
  6
ByLayer
 62
  256
370
   -1
100
AcDbCircle
 10
-755.2846840897826
 20
4192.168684946541
 40
150
  0
CIRCLE
  5
9A
100
AcDbEntity
  8
0
  6
ByLayer
 62
  256
370
   -1
100
AcDbCircle
 10
-1175.284684089783
 20
3772.168684946541
 40
150
  0
CIRCLE
  5
9B
100
AcDbEntity
  8
0
  6
ByLayer
 62
  256
370
   -1
100
AcDbCircle
 10
-755.2846840897826
 20
3772.168684946541
 40
150
  0
ARC
  5
9C
100
AcDbEntity
  8
0
  6
ByLayer
 62
  256
370
   -1
100
AcDbCircle
 10
-1196.284684089781
 20
4192.16868494654
 40
280.9999999999991
100
AcDbArc
 50
325.2919507274773
 51
5.597776239375789e-13
  0
ARC
  5
9D
100
AcDbEntity
  8
0
  6
ByLayer
 62
  256
370
   -1
100
AcDbCircle
 10
-734.2846840897855
 20
4192.168684946546
 40
280.9999999999952
100
AcDbArc
 50
180.0000000000007
 51
214.7080492725224
  0
ARC
  5
9E
100
AcDbEntity
  8
0
  6
ByLayer
 62
  256
370
   -1
100
AcDbCircle
 10
-1175.284684089776
 20
3751.168684946506
 40
281.0000000000326
100
AcDbArc
 50
55.29195072748043
 51
90.00000000000126
  0
ARC
  5
9F
100
AcDbEntity
  8
0
  6
ByLayer
 62
  256
370
   -1
100
AcDbCircle
 10
-1175.284684089779
 20
4213.16868494654
 40
280.9999999999969
100
AcDbArc
 50
269.9999999999995
 51
304.7080492725225
  0
ARC
  5
A0
100
AcDbEntity
  8
0
  6
ByLayer
 62
  256
370
   -1
100
AcDbCircle
 10
-734.2846840897944
 20
3772.168684946539
 40
280.9999999999878
100
AcDbArc
 50
145.2919507274765
 51
179.9999999999993
  0
ARC
  5
A1
100
AcDbEntity
  8
0
  6
ByLayer
 62
  256
370
   -1
100
AcDbCircle
 10
-1196.284684089861
 20
3772.168684946541
 40
281.0000000000641
100
AcDbArc
 50
0
 51
34.70804927251359
  0
ARC
  5
A2
100
AcDbEntity
  8
0
  6
ByLayer
 62
  256
370
   -1
100
AcDbCircle
 10
-755.2846840897894
 20
4213.16868494658
 40
281.0000000000356
100
AcDbArc
 50
235.2919507274804
 51
270.0000000000015
  0
ARC
  5
A3
100
AcDbEntity
  8
0
  6
ByLayer
 62
  256
370
   -1
100
AcDbCircle
 10
-755.2846840897885
 20
3751.16868494652
 40
281.0000000000211
100
AcDbArc
 50
89.99999999999866
 51
124.7080492725213
  0
ARC
  5
A4
100
AcDbEntity
  8
0
  6
ByLayer
 62
  256
370
   -1
100
AcDbCircle
 10
-1175.284684089783
 20
4192.168684946541
 40
160
100
AcDbArc
 50
3.307776868722058e-13
 51
269.9999999999989
  0
ARC
  5
A5
100
AcDbEntity
  8
0
  6
ByLayer
 62
  256
370
   -1
100
AcDbCircle
 10
-755.2846840897826
 20
4192.168684946541
 40
160
100
AcDbArc
 50
269.9999999999998
 51
179.999999999995
  0
ARC
  5
A6
100
AcDbEntity
  8
0
  6
ByLayer
 62
  256
370
   -1
100
AcDbCircle
 10
-755.2846840897826
 20
3772.168684946541
 40
160
100
AcDbArc
 50
179.9999999999995
 51
90.00000000000172
  0
ARC
  5
A7
100
AcDbEntity
  8
0
  6
ByLayer
 62
  256
370
   -1
100
AcDbCircle
 10
-1175.284684089783
 20
3772.168684946541
 40
160
100
AcDbArc
 50
89.99999999999731
 51
3.307776868722058e-13
  0
CIRCLE
  5
A8
100
AcDbEntity
  8
0
  6
ByLayer
 62
  256
370
   -1
100
AcDbCircle
 10
-3217.973156581463
 20
4150.526687920414
 40
150
  0
CIRCLE
  5
A9
100
AcDbEntity
  8
0
  6
ByLayer
 62
  256
370
   -1
100
AcDbCircle
 10
-2797.973156581463
 20
4150.526687920414
 40
150
  0
CIRCLE
  5
AA
100
AcDbEntity
  8
0
  6
ByLayer
 62
  256
370
   -1
100
AcDbCircle
 10
-3217.973156581463
 20
3730.526687920413
 40
150
  0
CIRCLE
  5
AB
100
AcDbEntity
  8
0
  6
ByLayer
 62
  256
370
   -1
100
AcDbCircle
 10
-2797.973156581463
 20
3730.526687920413
 40
150
  0
ARC
  5
AC
100
AcDbEntity
  8
0
  6
ByLayer
 62
  256
370
   -1
100
AcDbCircle
 10
-3217.973156581463
 20
4150.526687920414
 40
160
100
AcDbArc
 50
3.307776868722058e-13
 51
269.9999999999989
  0
ARC
  5
AD
100
AcDbEntity
  8
0
  6
ByLayer
 62
  256
370
   -1
100
AcDbCircle
 10
-2797.973156581463
 20
4150.526687920414
 40
160
100
AcDbArc
 50
269.9999999999998
 51
179.999999999995
  0
ARC
  5
AE
100
AcDbEntity
  8
0
  6
ByLayer
 62
  256
370
   -1
100
AcDbCircle
 10
-2797.973156581463
 20
3730.526687920413
 40
160
100
AcDbArc
 50
179.9999999999995
 51
90.00000000000172
  0
ARC
  5
AF
100
AcDbEntity
  8
0
  6
ByLayer
 62
  256
370
   -1
100
AcDbCircle
 10
-3217.973156581463
 20
3730.526687920413
 40
160
100
AcDbArc
 50
89.99999999999731
 51
3.307776868722058e-13
  0
ARC
  5
B0
100
AcDbEntity
  8
0
  6
ByLayer
 62
  256
370
   -1
100
AcDbCircle
 10
-2797.973156581469
 20
3709.526687920392
 40
281.0000000000211
100
AcDbArc
 50
89.99999999999866
 51
120.1279300055529
  0
ARC
  5
B1
100
AcDbEntity
  8
0
  6
ByLayer
 62
  256
370
   -1
100
AcDbCircle
 10
-2797.97315658147
 20
4171.526687920452
 40
281.0000000000356
100
AcDbArc
 50
239.8720699944491
 51
270.0000000000015
  0
ARC
  5
B2
100
AcDbEntity
  8
0
  6
ByLayer
 62
  256
370
   -1
100
AcDbCircle
 10
-3238.973156581461
 20
4150.526687920412
 40
280.9999999999991
100
AcDbArc
 50
329.872069994444
 51
5.597776239375789e-13
  0
ARC
  5
B3
100
AcDbEntity
  8
0
  6
ByLayer
 62
  256
370
   -1
100
AcDbCircle
 10
-2776.973156581466
 20
4150.526687920417
 40
280.9999999999952
100
AcDbArc
 50
180.0000000000007
 51
210.1279300055557
  0
ARC
  5
B4
100
AcDbEntity
  8
0
  6
ByLayer
 62
  256
370
   -1
100
AcDbCircle
 10
-3217.973156581456
 20
3709.526687920378
 40
281.0000000000326
100
AcDbArc
 50
59.87206999444963
 51
90.00000000000126
  0
ARC
  5
B5
100
AcDbEntity
  8
0
  6
ByLayer
 62
  256
370
   -1
100
AcDbCircle
 10
-3217.97315658146
 20
4171.526687920412
 40
280.9999999999969
100
AcDbArc
 50
269.9999999999995
 51
300.1279300055538
  0
ARC
  5
B6
100
AcDbEntity
  8
0
  6
ByLayer
 62
  256
370
   -1
100
AcDbCircle
 10
-2776.973156581475
 20
3730.52668792041
 40
280.9999999999878
100
AcDbArc
 50
149.8720699944416
 51
179.9999999999993
  0
ARC
  5
B7
100
AcDbEntity
  8
0
  6
ByLayer
 62
  256
370
   -1
100
AcDbCircle
 10
-3238.97315658154
 20
3730.526687920413
 40
281.0000000000641
100
AcDbArc
 50
0
 51
30.12793000554868
  0
POINT
  5
B8
100
AcDbEntity
  8
0
  6
ByLayer
 62
  256
370
   -1
100
AcDbPoint
 10
-3007.973156581466
 20
3940.526687920415
  0
ARC
  5
B9
100
AcDbEntity
  8
0
  6
ByLayer
 62
  256
370
   -1
100
AcDbCircle
 10
-3007.973156581466
 20
3940.526687920415
 40
69.99999999999933
100
AcDbArc
 50
260.0968536567025
 51
279.9031463433029
  0
ARC
  5
BA
100
AcDbEntity
  8
0
  6
ByLayer
 62
  256
370
   -1
100
AcDbCircle
 10
-3007.973156581466
 20
3940.526687920415
 40
70.00000000000138
100
AcDbArc
 50
350.0968536566908
 51
9.903146343306393
  0
ARC
  5
BB
100
AcDbEntity
  8
0
  6
ByLayer
 62
  256
370
   -1
100
AcDbCircle
 10
-3007.973156581466
 20
3940.526687920415
 40
69.99999999999689
100
AcDbArc
 50
80.09685365669237
 51
99.90314634330079
  0
ARC
  5
BC
100
AcDbEntity
  8
0
  6
ByLayer
 62
  256
370
   -1
100
AcDbCircle
 10
-3007.973156581466
 20
3940.526687920415
 40
69.99999999999838
100
AcDbArc
 50
170.0968536566918
 51
189.903146343309
  0
CIRCLE
  5
BD
100
AcDbEntity
  8
top
  6
ByLayer
 62
  256
370
   -1
100
AcDbCircle
 10
-2210.000000000003
 20
5210
 40
150
  0
CIRCLE
  5
BE
100
AcDbEntity
  8
top
  6
ByLayer
 62
  256
370
   -1
100
AcDbCircle
 10
-1790.000000000003
 20
5210
 40
150
  0
CIRCLE
  5
BF
100
AcDbEntity
  8
top
  6
ByLayer
 62
  256
370
   -1
100
AcDbCircle
 10
-2210.000000000003
 20
4790
 40
150
  0
CIRCLE
  5
C0
100
AcDbEntity
  8
top
  6
ByLayer
 62
  256
370
   -1
100
AcDbCircle
 10
-1790.000000000003
 20
4790
 40
150
  0
ARC
  5
C1
100
AcDbEntity
  8
top
  6
ByLayer
 62
  256
370
   -1
100
AcDbCircle
 10
-2210.000000000003
 20
5210
 40
160
100
AcDbArc
 50
3.307776868722058e-13
 51
269.9999999999989
  0
ARC
  5
C2
100
AcDbEntity
  8
top
  6
ByLayer
 62
  256
370
   -1
100
AcDbCircle
 10
-1790.000000000003
 20
5210
 40
160
100
AcDbArc
 50
269.9999999999998
 51
179.999999999995
  0
ARC
  5
C3
100
AcDbEntity
  8
top
  6
ByLayer
 62
  256
370
   -1
100
AcDbCircle
 10
-1790.000000000003
 20
4790
 40
160
100
AcDbArc
 50
179.9999999999995
 51
90.00000000000172
  0
ARC
  5
C4
100
AcDbEntity
  8
top
  6
ByLayer
 62
  256
370
   -1
100
AcDbCircle
 10
-2210.000000000003
 20
4790
 40
160
100
AcDbArc
 50
89.99999999999731
 51
3.307776868722058e-13
  0
POINT
  5
C5
100
AcDbEntity
  8
top
  6
ByLayer
 62
  256
370
   -1
100
AcDbPoint
 10
-2000
 20
5000
  0
ARC
  5
C6
100
AcDbEntity
  8
top
  6
ByLayer
 62
  256
370
   -1
100
AcDbCircle
 10
-2231.000000000002
 20
5209.999999999998
 40
280.9999999999991
100
AcDbArc
 50
336.185885727444
 51
5.597776239375789e-13
  0
ARC
  5
C7
100
AcDbEntity
  8
top
  6
ByLayer
 62
  256
370
   -1
100
AcDbCircle
 10
-1769.000000000006
 20
5210.000000000005
 40
280.9999999999952
100
AcDbArc
 50
180.0000000000007
 51
203.8141142725584
  0
ARC
  5
C8
100
AcDbEntity
  8
top
  6
ByLayer
 62
  256
370
   -1
100
AcDbCircle
 10
-2209.999999999995
 20
4768.999999999965
 40
281.0000000000326
100
AcDbArc
 50
66.18588572744729
 51
90.00000000000126
  0
ARC
  5
C9
100
AcDbEntity
  8
top
  6
ByLayer
 62
  256
370
   -1
100
AcDbCircle
 10
-2210
 20
5230.999999999998
 40
280.9999999999969
100
AcDbArc
 50
269.9999999999995
 51
293.8141142725566
  0
ARC
  5
CA
100
AcDbEntity
  8
top
  6
ByLayer
 62
  256
370
   -1
100
AcDbCircle
 10
-1769.000000000015
 20
4789.999999999997
 40
280.9999999999878
100
AcDbArc
 50
156.185885727442
 51
179.9999999999993
  0
ARC
  5
CB
100
AcDbEntity
  8
top
  6
ByLayer
 62
  256
370
   -1
100
AcDbCircle
 10
-2231.000000000081
 20
4790
 40
281.0000000000641
100
AcDbArc
 50
0
 51
23.8141142725501
  0
ARC
  5
CC
100
AcDbEntity
  8
top
  6
ByLayer
 62
  256
370
   -1
100
AcDbCircle
 10
-1790.000000000009
 20
4768.999999999979
 40
281.0000000000211
100
AcDbArc
 50
89.99999999999866
 51
113.8141142725534
  0
ARC
  5
CD
100
AcDbEntity
  8
top
  6
ByLayer
 62
  256
370
   -1
100
AcDbCircle
 10
-1790.00000000001
 20
5231.000000000039
 40
281.0000000000356
100
AcDbArc
 50
246.1858857274486
 51
270.0000000000015
  0
ARC
  5
CE
100
AcDbEntity
  8
top
  6
ByLayer
 62
  256
370
   -1
100
AcDbCircle
 10
-2000
 20
5000
 40
99.99999999999785
100
AcDbArc
 50
74.88500071647904
 51
105.1149992835212
  0
ARC
  5
CF
100
AcDbEntity
  8
top
  6
ByLayer
 62
  256
370
   -1
100
AcDbCircle
 10
-2000
 20
5000
 40
100.0000000000006
100
AcDbArc
 50
164.8850007164765
 51
195.1149992835212
  0
ARC
  5
D0
100
AcDbEntity
  8
top
  6
ByLayer
 62
  256
370
   -1
100
AcDbCircle
 10
-2000
 20
5000
 40
100.0000000000013
100
AcDbArc
 50
254.8850007164776
 51
285.1149992835163
  0
ARC
  5
D1
100
AcDbEntity
  8
top
  6
ByLayer
 62
  256
370
   -1
100
AcDbCircle
 10
-2000
 20
5000
 40
100.0000000000001
100
AcDbArc
 50
344.8850007164756
 51
15.11499928352512
  0
POINT
  5
D2
100
AcDbEntity
  8
top
  6
ByLayer
 62
  256
370
   -1
100
AcDbPoint
 10
-1790.000000000003
 20
4790
  0
POINT
  5
D3
100
AcDbEntity
  8
top
  6
ByLayer
 62
  256
370
   -1
100
AcDbPoint
 10
-2210.000000000003
 20
4790
  0
POINT
  5
D4
100
AcDbEntity
  8
top
  6
ByLayer
 62
  256
370
   -1
100
AcDbPoint
 10
-1790.000000000003
 20
5210
  0
POINT
  5
D5
100
AcDbEntity
  8
top
  6
ByLayer
 62
  256
370
   -1
100
AcDbPoint
 10
-2210.000000000003
 20
5210
  0
ARC
  5
D6
100
AcDbEntity
  8
0
  6
ByLayer
 62
  256
370
   -1
100
AcDbCircle
 10
-1
 20
1.224646799147353e-16
 40
1
100
AcDbArc
 50
0
 51
111.9175628864932
  0
ARC
  5
D7
100
AcDbEntity
  8
0
  6
ByLayer
 62
  256
370
   -1
100
AcDbCircle
 10
-1831.378149888446
 20
4537.874471617295
 40
414.1975403511279
100
AcDbArc
 50
118.0381723825117
 51
142.503828543078
  0
ARC
  5
D8
100
AcDbEntity
  8
0
  6
ByLayer
 62
  256
370
   -1
100
AcDbCircle
 10
-2462.125528383077
 20
5168.62185011162
 40
414.1975403514867
100
AcDbArc
 50
307.4961714569483
 51
331.9618276175044
  0
ARC
  5
D9
100
AcDbEntity
  8
0
  6
ByLayer
 62
  256
370
   -1
100
AcDbCircle
 10
-2462.125528383162
 20
4831.378149888321
 40
414.197540351592
100
AcDbArc
 50
28.03817238249769
 51
52.50382854304815
  0
ARC
  5
DA
100
AcDbEntity
  8
0
  6
ByLayer
 62
  256
370
   -1
100
AcDbCircle
 10
-1831.378149888522
 20
5462.125528382625
 40
414.197540351021
100
AcDbArc
 50
217.4961714569195
 51
241.9618276174925
  0
ARC
  5
DB
100
AcDbEntity
  8
0
  6
ByLayer
 62
  256
370
   -1
100
AcDbCircle
 10
-2168.621850111575
 20
5462.125528382908
 40
414.1975403513168
100
AcDbArc
 50
298.0381723825012
 51
322.5038285430626
  0
ARC
  5
DC
100
AcDbEntity
  8
0
  6
ByLayer
 62
  256
370
   -1
100
AcDbCircle
 10
-1537.874471616577
 20
4831.378149888288
 40
414.1975403518396
100
AcDbArc
 50
127.4961714569721
 51
151.961827617515
  0
ARC
  5
DD
100
AcDbEntity
  8
0
  6
ByLayer
 62
  256
370
   -1
100
AcDbCircle
 10
-1537.874471616723
 20
5168.621850111673
 40
414.1975403516919
100
AcDbArc
 50
208.0381723824895
 51
232.5038285430374
  0
ARC
  5
DE
100
AcDbEntity
  8
0
  6
ByLayer
 62
  256
370
   -1
100
AcDbCircle
 10
-2168.621850111566
 20
4537.87447161715
 40
414.1975403512549
100
AcDbArc
 50
37.49617145693371
 51
61.96182761749725
  0
ARC
  5
DF
100
AcDbEntity
  8
0
  6
ByLayer
 62
  256
370
   -1
100
AcDbCircle
 10
-1790.000000000003
 20
4790
 40
50
100
AcDbArc
 50
179.999999999975
 51
90.00000000019178
  0
ARC
  5
E0
100
AcDbEntity
  8
0
  6
ByLayer
 62
  256
370
   -1
100
AcDbCircle
 10
-1790.000000000003
 20
5210
 40
50
100
AcDbArc
 50
269.9999999999518
 51
179.9999999998645
  0
ARC
  5
E1
100
AcDbEntity
  8
0
  6
ByLayer
 62
  256
370
   -1
100
AcDbCircle
 10
-2210.000000000003
 20
5210
 40
50
100
AcDbArc
 50
359.999999999802
 51
270.0000000000683
  0
ARC
  5
E2
100
AcDbEntity
  8
0
  6
ByLayer
 62
  256
370
   -1
100
AcDbCircle
 10
-2210.000000000003
 20
4790
 40
50
100
AcDbArc
 50
90.00000000001928
 51
1.010907499956364e-10
  0
POINT
  5
E3
100
AcDbEntity
  8
0
  6
ByLayer
 62
  256
370
   -1
100
AcDbPoint
 10
-2210.000000000003
 20
5210
  0
POINT
  5
E4
100
AcDbEntity
  8
0
  6
ByLayer
 62
  256
370
   -1
100
AcDbPoint
 10
-2210.000000000003
 20
4790
  0
POINT
  5
E5
100
AcDbEntity
  8
0
  6
ByLayer
 62
  256
370
   -1
100
AcDbPoint
 10
-1790.000000000003
 20
4790
  0
POINT
  5
E6
100
AcDbEntity
  8
0
  6
ByLayer
 62
  256
370
   -1
100
AcDbPoint
 10
-1790.000000000003
 20
5210
  0
POINT
  5
E7
100
AcDbEntity
  8
0
  6
ByLayer
 62
  256
370
   -1
100
AcDbPoint
 10
-2000
 20
5000
  0
POINT
  5
E8
100
AcDbEntity
  8
0
  6
ByLayer
 62
  256
370
   -1
100
AcDbPoint
 10
-1784.730284271644
 20
3777.514196321718
  0
POINT
  5
E9
100
AcDbEntity
  8
0
  6
ByLayer
 62
  256
370
   -1
100
AcDbPoint
 10
-2204.730284271644
 20
3777.514196321718
  0
POINT
  5
EA
100
AcDbEntity
  8
0
  6
ByLayer
 62
  256
370
   -1
100
AcDbPoint
 10
-2204.730284271644
 20
4197.514196321718
  0
POINT
  5
EB
100
AcDbEntity
  8
0
  6
ByLayer
 62
  256
370
   -1
100
AcDbPoint
 10
-1784.730284271644
 20
4197.514196321718
  0
ARC
  5
EC
100
AcDbEntity
  8
0
  6
ByLayer
 62
  256
370
   -1
100
AcDbCircle
 10
-2000
 20
5000
 40
99.99999999999461
100
AcDbArc
 50
164.8850007164867
 51
195.1149992835176
  0
ARC
  5
ED
100
AcDbEntity
  8
0
  6
ByLayer
 62
  256
370
   -1
100
AcDbCircle
 10
-2000
 20
5000
 40
99.99999999999959
100
AcDbArc
 50
254.8850007164781
 51
285.1149992835162
  0
ARC
  5
EE
100
AcDbEntity
  8
0
  6
ByLayer
 62
  256
370
   -1
100
AcDbCircle
 10
-2000
 20
5000
 40
99.99999999999858
100
AcDbArc
 50
344.8850007164803
 51
15.11499928352543
  0
ARC
  5
EF
100
AcDbEntity
  8
0
  6
ByLayer
 62
  256
370
   -1
100
AcDbCircle
 10
-2000
 20
5000
 40
99.99999999999632
100
AcDbArc
 50
74.88500071648505
 51
105.1149992835215
  0
ENDSEC
  0
SECTION
  2
OBJECTS
  0
DICTIONARY
  5
C
330
0
100
AcDbDictionary
281
    1
  3
ACAD_GROUP
350
D
  0
DICTIONARY
  5
D
330
C
100
AcDbDictionary
281
    1
  0
ENDSEC
  0
EOF
