999
dxfrw 0.6.3
  0
SECTION
  2
HEADER
  9
$ACADVER
  1
AC1021
  9
$DWGCODEPAGE
  3
ANSI_1252
  9
$INSBASE
 10
0
 20
0
 30
0
  9
$EXTMIN
 10
728.0230661329811
 20
-447.0527475163326
 30
0
  9
$EXTMAX
 10
2379.007709836136
 20
292.9472524836674
 30
0
  9
$LIMMIN
 10
0
 20
0
  9
$LIMMAX
 10
420
 20
297
  9
$ORTHOMODE
 70
    0
  9
$REGENMODE
 70
    1
  9
$FILLMODE
 70
    1
  9
$QTEXTMODE
 70
    0
  9
$MIRRTEXT
 70
    0
  9
$LTSCALE
 40
1
  9
$ATTMODE
 70
    0
  9
$TEXTSIZE
 40
2.5
  9
$TRACEWID
 40
15.68
  9
$TEXTSTYLE
  7
STANDARD
  9
$CLAYER
  8
0
  9
$CELTYPE
  6
BYLAYER
  9
$CECOLOR
 62
  256
  9
$CELTSCALE
 40
1
  9
$DISPSILH
 70
    0
  9
$DIMSCALE
 40
5
  9
$DIMASZ
 40
2.5
  9
$DIMEXO
 40
0.625
  9
$DIMDLI
 40
3.75
  9
$DIMRND
 40
0
  9
$DIMDLE
 40
0
  9
$DIMEXE
 40
1.25
  9
$DIMTP
 40
0
  9
$DIMTM
 40
0
  9
$DIMTXT
 40
2.5
  9
$DIMCEN
 40
2.5
  9
$DIMTSZ
 40
0
  9
$DIMTOL
 70
    0
  9
$DIMLIM
 70
    0
  9
$DIMTIH
 70
    0
  9
$DIMTOH
 70
    0
  9
$DIMSE1
 70
    0
  9
$DIMSE2
 70
    0
  9
$DIMTAD
 70
    1
  9
$DIMZIN
 70
    8
  9
$DIMBLK
  1

  9
$DIMASO
 70
    1
  9
$DIMSHO
 70
    1
  9
$DIMPOST
  1

  9
$DIMAPOST
  1

  9
$DIMALT
 70
    0
  9
$DIMALTD
 70
    3
  9
$DIMALTF
 40
0.03937
  9
$DIMLFAC
 40
1
  9
$DIMTOFL
 70
    1
  9
$DIMTVP
 40
0
  9
$DIMTIX
 70
    0
  9
$DIMSOXD
 70
    0
  9
$DIMSAH
 70
    0
  9
$DIMBLK1
  1

  9
$DIMBLK2
  1

  9
$DIMSTYLE
  2
STANDARD
  9
$DIMCLRD
 70
    0
  9
$DIMCLRE
 70
    0
  9
$DIMCLRT
 70
    0
  9
$DIMTFAC
 40
1
  9
$DIMGAP
 40
0.625
  9
$DIMJUST
 70
    0
  9
$DIMSD1
 70
    0
  9
$DIMSD2
 70
    0
  9
$DIMTOLJ
 70
    0
  9
$DIMTZIN
 70
    8
  9
$DIMALTZ
 70
    0
  9
$DIMALTTZ
 70
    0
  9
$DIMUPT
 70
    0
  9
$DIMDEC
 70
    4
  9
$DIMTDEC
 70
    2
  9
$DIMALTU
 70
    2
  9
$DIMALTTD
 70
    3
  9
$DIMTXSTY
  7
standard
  9
$DIMAUNIT
 70
    0
  9
$DIMADEC
 70
    2
  9
$DIMALTRND
 40
0
  9
$DIMAZIN
 70
    0
  9
$DIMDSEP
 70
    0
  9
$DIMATFIT
 70
    3
  9
$DIMFRAC
 70
    0
  9
$DIMLDRBLK
  1
STANDARD
  9
$DIMLUNIT
 70
    2
  9
$DIMLWD
 70
   -2
  9
$DIMLWE
 70
   -2
  9
$DIMTMOVE
 70
    0
  9
$DIMFXL
 40
1
  9
$DIMFXLON
 70
    0
  9
$DIMJOGANG
 40
0.7854
  9
$DIMTFILL
 70
    0
  9
$DIMTFILLCLR
 70
    0
  9
$DIMARCSYM
 70
    0
  9
$DIMLTYPE
  6

  9
$DIMLTEX1
  6

  9
$DIMLTEX2
  6

  9
$LUNITS
 70
    2
  9
$LUPREC
 70
    4
  9
$SKETCHINC
 40
1
  9
$FILLETRAD
 40
0
  9
$AUNITS
 70
    0
  9
$AUPREC
 70
    2
  9
$MENU
  1
.
  9
$ELEVATION
 40
0
  9
$PELEVATION
 40
0
  9
$THICKNESS
 40
0
  9
$LIMCHECK
 70
    0
  9
$CHAMFERA
 40
0
  9
$CHAMFERB
 40
0
  9
$CHAMFERC
 40
0
  9
$CHAMFERD
 40
0
  9
$SKPOLY
 70
    0
  9
$USRTIMER
 70
    1
  9
$ANGBASE
 50
0
  9
$ANGDIR
 70
    0
  9
$PDMODE
 70
   34
  9
$PDSIZE
 40
0
  9
$PLINEWID
 40
0
  9
$SPLFRAME
 70
    0
  9
$SPLINETYPE
 70
    2
  9
$SPLINESEGS
 70
    8
  9
$HANDSEED
  5
20000
  9
$SURFTAB1
 70
    6
  9
$SURFTAB2
 70
    6
  9
$SURFTYPE
 70
    6
  9
$SURFU
 70
    6
  9
$SURFV
 70
    6
  9
$UCSBASE
  2

  9
$UCSNAME
  2

  9
$UCSORG
 10
0
 20
0
 30
0
  9
$UCSXDIR
 10
1
 20
0
 30
0
  9
$UCSYDIR
 10
0
 20
1
 30
0
  9
$UCSORTHOREF
  2

  9
$UCSORTHOVIEW
 70
    0
  9
$UCSORGTOP
 10
0
 20
0
 30
0
  9
$UCSORGBOTTOM
 10
0
 20
0
 30
0
  9
$UCSORGLEFT
 10
0
 20
0
 30
0
  9
$UCSORGRIGHT
 10
0
 20
0
 30
0
  9
$UCSORGFRONT
 10
0
 20
0
 30
0
  9
$UCSORGBACK
 10
0
 20
0
 30
0
  9
$PUCSBASE
  2

  9
$PUCSNAME
  2

  9
$PUCSORG
 10
0
 20
0
 30
0
  9
$PUCSXDIR
 10
1
 20
0
 30
0
  9
$PUCSYDIR
 10
0
 20
1
 30
0
  9
$PUCSORTHOREF
  2

  9
$PUCSORTHOVIEW
 70
    0
  9
$PUCSORGTOP
 10
0
 20
0
 30
0
  9
$PUCSORGBOTTOM
 10
0
 20
0
 30
0
  9
$PUCSORGLEFT
 10
0
 20
0
 30
0
  9
$PUCSORGRIGHT
 10
0
 20
0
 30
0
  9
$PUCSORGFRONT
 10
0
 20
0
 30
0
  9
$PUCSORGBACK
 10
0
 20
0
 30
0
  9
$USERI1
 70
    0
  9
$USERI2
 70
    0
  9
$USERI3
 70
    0
  9
$USERI4
 70
    0
  9
$USERI5
 70
    0
  9
$USERR1
 40
0
  9
$USERR2
 40
0
  9
$USERR3
 40
0
  9
$USERR4
 40
0
  9
$USERR5
 40
0
  9
$WORLDVIEW
 70
    1
  9
$SHADEDGE
 70
    3
  9
$SHADEDIF
 70
   70
  9
$TILEMODE
 70
    1
  9
$MAXACTVP
 70
   64
  9
$PINSBASE
 10
-388.3018582138768
 20
166.7334894224519
 30
0
  9
$PLIMCHECK
 70
    0
  9
$PEXTMIN
 10
0
 20
0
 30
0
  9
$PEXTMAX
 10
0
 20
0
 30
0
  9
$GRIDMODE
 70
    0
  9
$SNAPSTYLE
 70
    0
  9
$GRIDUNIT
 10
0
 20
0
  9
$PLIMMIN
 10
0
 20
0
  9
$PLIMMAX
 10
210
 20
297
  9
$UNITMODE
 70
    0
  9
$VISRETAIN
 70
    1
  9
$PLINEGEN
 70
    0
  9
$PSLTSCALE
 70
    1
  9
$TREEDEPTH
 70
 3020
  9
$CMLSTYLE
  2
Standard
  9
$CMLJUST
 70
    0
  9
$CMLSCALE
 40
20
  9
$PROXYGRAPHICS
 70
    1
  9
$MEASUREMENT
 70
    1
  9
$CELWEIGHT
370
   -1
  9
$ENDCAPS
280
    0
  9
$JOINSTYLE
280
    0
  9
$LWDISPLAY
290
    0
  9
$INSUNITS
 70
    4
  9
$HYPERLINKBASE
  1

  9
$STYLESHEET
  1

  9
$XEDIT
290
    1
  9
$CEPSNTYPE
380
    0
  9
$PSTYLEMODE
290
    1
  9
$EXTNAMES
290
    1
  9
$PSVPSCALE
 40
0.2457123200157256
  9
$OLESTARTUP
290
    0
  9
$SORTENTS
280
  127
  9
$INDEXCTL
280
    0
  9
$HIDETEXT
280
    1
  9
$XCLIPFRAME
290
    0
  9
$HALOGAP
280
    0
  9
$OBSCOLOR
 70
  257
  9
$OBSLTYPE
280
    0
  9
$INTERSECTIONDISPLAY
280
    0
  9
$INTERSECTIONCOLOR
 70
  257
  9
$DIMASSOC
280
    1
  9
$PROJECTNAME
  1

  9
$CAMERADISPLAY
290
    0
  9
$LENSLENGTH
 40
50
  9
$CAMERAHEIGHT
 40
0
  9
$STEPSPERSEC
 40
2
  9
$STEPSIZE
 40
50
  9
$3DDWFPREC
 40
2
  9
$PSOLWIDTH
 40
5
  9
$PSOLHEIGHT
 40
80
  9
$LOFTANG1
 40
1.570796326794897
  9
$LOFTANG2
 40
1.570796326794897
  9
$LOFTMAG1
 40
0
  9
$LOFTMAG2
 40
0
  9
$LOFTPARAM
 70
    7
  9
$LOFTNORMALS
280
    1
  9
$LATITUDE
 40
1
  9
$LONGITUDE
 40
1
  9
$NORTHDIRECTION
 40
0
  9
$TIMEZONE
 70
-8000
  9
$LIGHTGLYPHDISPLAY
280
    1
  9
$TILEMODELIGHTSYNCH
280
    1
  9
$SOLIDHIST
280
    1
  9
$SHOWHIST
280
    1
  9
$DWFFRAME
280
    2
  9
$DGNFRAME
280
    0
  9
$REALWORLDSCALE
290
    1
  9
$INTERFERECOLOR
 62
    1
  9
$CSHADOW
280
    0
  9
$SHADOWPLANELOCATION
 40
0
  0
ENDSEC
  0
SECTION
  2
CLASSES
  0
ENDSEC
  0
SECTION
  2
TABLES
  0
TABLE
  2
VPORT
  5
8
330
0
100
AcDbSymbolTable
 70
    1
  0
VPORT
  5
31
330
2
100
AcDbSymbolTableRecord
100
AcDbViewportTableRecord
  2
*ACTIVE
 70
    0
 10
0
 20
0
 11
1
 21
1
 12
1662.590902752191
 22
619.6767381901292
 13
0
 23
0
 14
10
 24
10
 15
10
 25
10
 16
0
 26
0
 36
1
 17
0
 27
0
 37
0
 40
2103.686448380323
 41
1.702886247877759
 42
50
 43
0
 44
0
 50
0
 51
0
 71
    0
 72
  100
 73
    1
 74
    3
 75
    0
 76
    0
 77
    0
 78
    0
281
    0
 65
    1
110
0
120
0
130
0
111
1
121
0
131
0
112
0
122
1
132
0
 79
    0
146
0
348
10020
 60
    7
 61
    5
292
1
282
    1
141
0
142
0
 63
  250
421
3358443
  0
ENDTAB
  0
TABLE
  2
LTYPE
  5
5
330
0
100
AcDbSymbolTable
 70
    4
  0
LTYPE
  5
14
330
5
100
AcDbSymbolTableRecord
100
AcDbLinetypeTableRecord
  2
ByBlock
 70
    0
  3

 72
   65
 73
    0
 40
0
  0
LTYPE
  5
15
330
5
100
AcDbSymbolTableRecord
100
AcDbLinetypeTableRecord
  2
ByLayer
 70
    0
  3

 72
   65
 73
    0
 40
0
  0
LTYPE
  5
16
330
5
100
AcDbSymbolTableRecord
100
AcDbLinetypeTableRecord
  2
Continuous
 70
    0
  3
Solid line
 72
   65
 73
    0
 40
0
  0
LTYPE
  5
32
330
5
100
AcDbSymbolTableRecord
100
AcDbLinetypeTableRecord
  2
DOT
 70
    0
  3
Dot . . . . . . . . . . . . . . . . . . . . . .
 72
   65
 73
    2
 40
6.35
 49
0
 74
    0
 49
-6.35
 74
    0
  0
LTYPE
  5
33
330
5
100
AcDbSymbolTableRecord
100
AcDbLinetypeTableRecord
  2
DOTTINY
 70
    0
  3
Dot (.15x) .....................................
 72
   65
 73
    2
 40
0.9525
 49
0
 74
    0
 49
-0.9525
 74
    0
  0
LTYPE
  5
34
330
5
100
AcDbSymbolTableRecord
100
AcDbLinetypeTableRecord
  2
DOT2
 70
    0
  3
Dot (.5x) .....................................
 72
   65
 73
    2
 40
3.175
 49
0
 74
    0
 49
-3.175
 74
    0
  0
LTYPE
  5
35
330
5
100
AcDbSymbolTableRecord
100
AcDbLinetypeTableRecord
  2
DOTX2
 70
    0
  3
Dot (2x) .  .  .  .  .  .  .  .  .  .  .  .  .
 72
   65
 73
    2
 40
12.7
 49
0
 74
    0
 49
-12.7
 74
    0
  0
LTYPE
  5
36
330
5
100
AcDbSymbolTableRecord
100
AcDbLinetypeTableRecord
  2
DASHED
 70
    0
  3
Dashed _ _ _ _ _ _ _ _ _ _ _ _ _ _ _ _ _
 72
   65
 73
    2
 40
19.05
 49
12.7
 74
    0
 49
-6.35
 74
    0
  0
LTYPE
  5
37
330
5
100
AcDbSymbolTableRecord
100
AcDbLinetypeTableRecord
  2
DASHEDTINY
 70
    0
  3
Dashed (.15x) _ _ _ _ _ _ _ _ _ _ _ _ _ _ _ _ _
 72
   65
 73
    2
 40
2.8575
 49
1.905
 74
    0
 49
-0.9525
 74
    0
  0
LTYPE
  5
38
330
5
100
AcDbSymbolTableRecord
100
AcDbLinetypeTableRecord
  2
DASHED2
 70
    0
  3
Dashed (.5x) _ _ _ _ _ _ _ _ _ _ _ _ _ _ _ _ _
 72
   65
 73
    2
 40
9.524999999999999
 49
6.35
 74
    0
 49
-3.175
 74
    0
  0
LTYPE
  5
39
330
5
100
AcDbSymbolTableRecord
100
AcDbLinetypeTableRecord
  2
DASHEDX2
 70
    0
  3
Dashed (2x) ____  ____  ____  ____  ____  ___
 72
   65
 73
    2
 40
38.09999999999999
 49
25.4
 74
    0
 49
-12.7
 74
    0
  0
LTYPE
  5
3A
330
5
100
AcDbSymbolTableRecord
100
AcDbLinetypeTableRecord
  2
DASHDOT
 70
    0
  3
Dash dot __ . __ . __ . __ . __ . __ . __ . __
 72
   65
 73
    4
 40
25.4
 49
12.7
 74
    0
 49
-6.35
 74
    0
 49
0
 74
    0
 49
-6.35
 74
    0
  0
LTYPE
  5
3B
330
5
100
AcDbSymbolTableRecord
100
AcDbLinetypeTableRecord
  2
DASHDOTTINY
 70
    0
  3
Dash dot (.15x) _._._._._._._._._._._._._._._.
 72
   65
 73
    4
 40
3.81
 49
1.905
 74
    0
 49
-0.9525
 74
    0
 49
0
 74
    0
 49
-0.9525
 74
    0
  0
LTYPE
  5
3C
330
5
100
AcDbSymbolTableRecord
100
AcDbLinetypeTableRecord
  2
DASHDOT2
 70
    0
  3
Dash dot (.5x) _._._._._._._._._._._._._._._.
 72
   65
 73
    4
 40
12.7
 49
6.35
 74
    0
 49
-3.175
 74
    0
 49
0
 74
    0
 49
-3.175
 74
    0
  0
LTYPE
  5
3D
330
5
100
AcDbSymbolTableRecord
100
AcDbLinetypeTableRecord
  2
DASHDOTX2
 70
    0
  3
Dash dot (2x) ____  .  ____  .  ____  .  ___
 72
   65
 73
    4
 40
50.8
 49
25.4
 74
    0
 49
-12.7
 74
    0
 49
0
 74
    0
 49
-12.7
 74
    0
  0
LTYPE
  5
3E
330
5
100
AcDbSymbolTableRecord
100
AcDbLinetypeTableRecord
  2
DIVIDE
 70
    0
  3
Divide ____ . . ____ . . ____ . . ____ . . ____
 72
   65
 73
    6
 40
31.75
 49
12.7
 74
    0
 49
-6.35
 74
    0
 49
0
 74
    0
 49
-6.35
 74
    0
 49
0
 74
    0
 49
-6.35
 74
    0
  0
LTYPE
  5
3F
330
5
100
AcDbSymbolTableRecord
100
AcDbLinetypeTableRecord
  2
DIVIDETINY
 70
    0
  3
Divide (.15x) __..__..__..__..__..__..__..__.._
 72
   65
 73
    6
 40
4.7625
 49
1.905
 74
    0
 49
-0.9525
 74
    0
 49
0
 74
    0
 49
-0.9525
 74
    0
 49
0
 74
    0
 49
-0.9525
 74
    0
  0
LTYPE
  5
40
330
5
100
AcDbSymbolTableRecord
100
AcDbLinetypeTableRecord
  2
DIVIDE2
 70
    0
  3
Divide (.5x) __..__..__..__..__..__..__..__.._
 72
   65
 73
    6
 40
15.875
 49
6.35
 74
    0
 49
-3.175
 74
    0
 49
0
 74
    0
 49
-3.175
 74
    0
 49
0
 74
    0
 49
-3.175
 74
    0
  0
LTYPE
  5
41
330
5
100
AcDbSymbolTableRecord
100
AcDbLinetypeTableRecord
  2
DIVIDEX2
 70
    0
  3
Divide (2x) ________  .  .  ________  .  .  _
 72
   65
 73
    6
 40
63.5
 49
25.4
 74
    0
 49
-12.7
 74
    0
 49
0
 74
    0
 49
-12.7
 74
    0
 49
0
 74
    0
 49
-12.7
 74
    0
  0
LTYPE
  5
42
330
5
100
AcDbSymbolTableRecord
100
AcDbLinetypeTableRecord
  2
BORDER
 70
    0
  3
Border __ __ . __ __ . __ __ . __ __ . __ __ .
 72
   65
 73
    6
 40
44.45
 49
12.7
 74
    0
 49
-6.35
 74
    0
 49
12.7
 74
    0
 49
-6.35
 74
    0
 49
0
 74
    0
 49
-6.35
 74
    0
  0
LTYPE
  5
43
330
5
100
AcDbSymbolTableRecord
100
AcDbLinetypeTableRecord
  2
BORDERTINY
 70
    0
  3
Border (.15x) __.__.__.__.__.__.__.__.__.__.__.
 72
   65
 73
    6
 40
6.6675
 49
1.905
 74
    0
 49
-0.9525
 74
    0
 49
1.905
 74
    0
 49
-0.9525
 74
    0
 49
0
 74
    0
 49
-0.9525
 74
    0
  0
LTYPE
  5
44
330
5
100
AcDbSymbolTableRecord
100
AcDbLinetypeTableRecord
  2
BORDER2
 70
    0
  3
Border (.5x) __.__.__.__.__.__.__.__.__.__.__.
 72
   65
 73
    6
 40
22.225
 49
6.35
 74
    0
 49
-3.175
 74
    0
 49
6.35
 74
    0
 49
-3.175
 74
    0
 49
0
 74
    0
 49
-3.175
 74
    0
  0
LTYPE
  5
45
330
5
100
AcDbSymbolTableRecord
100
AcDbLinetypeTableRecord
  2
BORDERX2
 70
    0
  3
Border (2x) ____  ____  .  ____  ____  .  ___
 72
   65
 73
    6
 40
88.89999999999999
 49
25.4
 74
    0
 49
-12.7
 74
    0
 49
25.4
 74
    0
 49
-12.7
 74
    0
 49
0
 74
    0
 49
-12.7
 74
    0
  0
LTYPE
  5
46
330
5
100
AcDbSymbolTableRecord
100
AcDbLinetypeTableRecord
  2
CENTER
 70
    0
  3
Center ____ _ ____ _ ____ _ ____ _ ____ _ ____
 72
   65
 73
    4
 40
50.8
 49
31.75
 74
    0
 49
-6.35
 74
    0
 49
6.35
 74
    0
 49
-6.35
 74
    0
  0
LTYPE
  5
47
330
5
100
AcDbSymbolTableRecord
100
AcDbLinetypeTableRecord
  2
CENTERTINY
 70
    0
  3
Center (.15x) ___ _ ___ _ ___ _ ___ _ ___ _ ___
 72
   65
 73
    4
 40
7.619999999999999
 49
4.7625
 74
    0
 49
-0.9525
 74
    0
 49
0.9525
 74
    0
 49
-0.9525
 74
    0
  0
LTYPE
  5
48
330
5
100
AcDbSymbolTableRecord
100
AcDbLinetypeTableRecord
  2
CENTER2
 70
    0
  3
Center (.5x) ___ _ ___ _ ___ _ ___ _ ___ _ ___
 72
   65
 73
    4
 40
28.575
 49
19.05
 74
    0
 49
-3.175
 74
    0
 49
3.175
 74
    0
 49
-3.175
 74
    0
  0
LTYPE
  5
49
330
5
100
AcDbSymbolTableRecord
100
AcDbLinetypeTableRecord
  2
CENTERX2
 70
    0
  3
Center (2x) ________  __  ________  __  _____
 72
   65
 73
    4
 40
101.6
 49
63.5
 74
    0
 49
-12.7
 74
    0
 49
12.7
 74
    0
 49
-12.7
 74
    0
  0
ENDTAB
  0
TABLE
  2
LAYER
  5
2
330
0
100
AcDbSymbolTable
 70
    1
  0
LAYER
  5
10
330
2
100
AcDbSymbolTableRecord
100
AcDbLayerTableRecord
  2
0
 70
    0
 62
    7
  6
CONTINUOUS
370
   35
390
F
  0
ENDTAB
  0
TABLE
  2
STYLE
  5
3
330
0
100
AcDbSymbolTable
 70
    3
  0
STYLE
  5
4A
330
2
100
AcDbSymbolTableRecord
100
AcDbTextStyleTableRecord
  2
Standard
 70
    0
 40
0
 41
1
 50
0
 71
    0
 42
1
  3
txt
  4

  0
ENDTAB
  0
TABLE
  2
VIEW
  5
6
330
0
100
AcDbSymbolTable
 70
    0
  0
ENDTAB
  0
TABLE
  2
UCS
  5
7
330
0
100
AcDbSymbolTable
 70
    0
  0
ENDTAB
  0
TABLE
  2
APPID
  5
9
330
0
100
AcDbSymbolTable
 70
    1
  0
APPID
  5
12
330
9
100
AcDbSymbolTableRecord
100
AcDbRegAppTableRecord
  2
ACAD
 70
    0
  0
APPID
  5
4B
330
9
100
AcDbSymbolTableRecord
100
AcDbRegAppTableRecord
  2
LibreCad
 70
    0
  0
ENDTAB
  0
TABLE
  2
DIMSTYLE
  5
A
330
0
100
AcDbSymbolTable
 70
    1
100
AcDbDimStyleTable
 71
    1
  0
DIMSTYLE
105
4C
330
A
100
AcDbSymbolTableRecord
100
AcDbDimStyleTableRecord
  2
Standard
 70
    0
 40
5
 41
2.5
 42
0.625
 43
0.38
 44
1.25
 45
0
 46
0
 47
0
 48
0
 49
1
140
2.5
141
0.09
142
0
143
25.4
144
1
145
0
146
1
147
0.625
148
0
 71
    0
 72
    0
 73
    0
 74
    1
 75
    0
 76
    0
 77
    0
 78
    8
 79
    0
170
    0
171
    2
172
    0
173
    0
174
    0
175
    0
176
    0
177
    0
178
    0
179
    2
271
    4
272
    4
273
    2
274
    2
275
    0
276
    0
277
    2
278
    0
279
    0
280
    0
281
    0
282
    0
283
    1
284
    0
285
    0
286
    0
288
    0
289
    3
340
standard
341

371
   -2
372
   -2
  0
ENDTAB
  0
TABLE
  2
BLOCK_RECORD
  5
1
330
0
100
AcDbSymbolTable
 70
    2
  0
BLOCK_RECORD
  5
1F
330
1
100
AcDbSymbolTableRecord
100
AcDbBlockTableRecord
  2
*Model_Space
 70
    0
280
    1
281
    0
  0
BLOCK_RECORD
  5
1E
330
1
100
AcDbSymbolTableRecord
100
AcDbBlockTableRecord
  2
*Paper_Space
 70
    0
280
    1
281
    0
  0
ENDTAB
  0
ENDSEC
  0
SECTION
  2
BLOCKS
  0
BLOCK
  5
20
330
1F
100
AcDbEntity
  8
0
100
AcDbBlockBegin
  2
*Model_Space
 70
    0
 10
0
 20
0
 30
0
  3
*Model_Space
  1

  0
ENDBLK
  5
21
330
1F
100
AcDbEntity
  8
0
100
AcDbBlockEnd
  0
BLOCK
  5
1C
330
1B
100
AcDbEntity
  8
0
100
AcDbBlockBegin
  2
*Paper_Space
 70
    0
 10
0
 20
0
 30
0
  3
*Paper_Space
  1

  0
ENDBLK
  5
1D
330
1F
100
AcDbEntity
  8
0
100
AcDbBlockEnd
  0
ENDSEC
  0
SECTION
  2
ENTITIES
  0
ARC
  5
4D
100
AcDbEntity
  8
0
  6
ByLayer
 62
  256
370
   -1
100
AcDbCircle
 10
888.0230661329811
 20
132.9472524836674
 40
160
100
AcDbArc
 50
3.307776868722058e-13
 51
269.9999999999989
  0
ARC
  5
4E
100
AcDbEntity
  8
0
  6
ByLayer
 62
  256
370
   -1
100
AcDbCircle
 10
1308.023066132981
 20
132.9472524836674
 40
160
100
AcDbArc
 50
269.9999999999998
 51
179.999999999995
  0
ARC
  5
4F
100
AcDbEntity
  8
0
  6
ByLayer
 62
  256
370
   -1
100
AcDbCircle
 10
1308.023066132981
 20
-287.0527475163326
 40
160
100
AcDbArc
 50
179.9999999999995
 51
90.00000000000172
  0
ARC
  5
50
100
AcDbEntity
  8
0
  6
ByLayer
 62
  256
370
   -1
100
AcDbCircle
 10
888.0230661329811
 20
-287.0527475163326
 40
160
100
AcDbArc
 50
89.99999999999731
 51
3.307776868722058e-13
  0
POINT
  5
51
100
AcDbEntity
  8
0
  6
ByLayer
 62
  256
370
   -1
100
AcDbPoint
 10
1098.023066132984
 20
-77.0527475163326
  0
ARC
  5
52
100
AcDbEntity
  8
0
  6
ByLayer
 62
  256
370
   -1
100
AcDbCircle
 10
867.023066132982
 20
132.9472524836656
 40
280.9999999999991
100
AcDbArc
 50
336.185885727444
 51
5.597776239375789e-13
  0
ARC
  5
53
100
AcDbEntity
  8
0
  6
ByLayer
 62
  256
370
   -1
100
AcDbCircle
 10
1329.023066132979
 20
132.9472524836719
 40
280.9999999999952
100
AcDbArc
 50
180.0000000000007
 51
203.8141142725584
  0
ARC
  5
54
100
AcDbEntity
  8
0
  6
ByLayer
 62
  256
370
   -1
100
AcDbCircle
 10
888.0230661329888
 20
-308.0527475163672
 40
281.0000000000326
100
AcDbArc
 50
66.18588572744729
 51
90.00000000000126
  0
ARC
  5
55
100
AcDbEntity
  8
0
  6
ByLayer
 62
  256
370
   -1
100
AcDbCircle
 10
888.0230661329852
 20
153.9472524836656
 40
280.9999999999969
100
AcDbArc
 50
269.9999999999995
 51
293.8141142725566
  0
ARC
  5
56
100
AcDbEntity
  8
0
  6
ByLayer
 62
  256
370
   -1
100
AcDbCircle
 10
1329.02306613297
 20
-287.0527475163344
 40
280.9999999999878
100
AcDbArc
 50
156.185885727442
 51
179.9999999999993
  0
ARC
  5
57
100
AcDbEntity
  8
0
  6
ByLayer
 62
  256
370
   -1
100
AcDbCircle
 10
867.0230661329028
 20
-287.0527475163326
 40
281.0000000000641
100
AcDbArc
 50
0
 51
23.8141142725501
  0
ARC
  5
58
100
AcDbEntity
  8
0
  6
ByLayer
 62
  256
370
   -1
100
AcDbCircle
 10
1308.023066132976
 20
-308.0527475163544
 40
281.0000000000211
100
AcDbArc
 50
89.99999999999866
 51
113.8141142725534
  0
ARC
  5
59
100
AcDbEntity
  8
0
  6
ByLayer
 62
  256
370
   -1
100
AcDbCircle
 10
1308.023066132975
 20
153.9472524837056
 40
281.0000000000356
100
AcDbArc
 50
246.1858857274486
 51
270.0000000000015
  0
ARC
  5
5A
100
AcDbEntity
  8
0
  6
ByLayer
 62
  256
370
   -1
100
AcDbCircle
 10
1098.023066132984
 20
-77.0527475163326
 40
99.99999999999785
100
AcDbArc
 50
74.88500071647904
 51
105.1149992835212
  0
ARC
  5
5B
100
AcDbEntity
  8
0
  6
ByLayer
 62
  256
370
   -1
100
AcDbCircle
 10
1098.023066132984
 20
-77.0527475163326
 40
100.0000000000006
100
AcDbArc
 50
164.8850007164765
 51
195.1149992835212
  0
ARC
  5
5C
100
AcDbEntity
  8
0
  6
ByLayer
 62
  256
370
   -1
100
AcDbCircle
 10
1098.023066132984
 20
-77.0527475163326
 40
100.0000000000013
100
AcDbArc
 50
254.8850007164776
 51
285.1149992835163
  0
ARC
  5
5D
100
AcDbEntity
  8
0
  6
ByLayer
 62
  256
370
   -1
100
AcDbCircle
 10
1098.023066132984
 20
-77.0527475163326
 40
100.0000000000001
100
AcDbArc
 50
344.8850007164756
 51
15.11499928352512
  0
POINT
  5
5E
100
AcDbEntity
  8
0
  6
ByLayer
 62
  256
370
   -1
100
AcDbPoint
 10
1308.023066132981
 20
-287.0527475163326
  0
POINT
  5
5F
100
AcDbEntity
  8
0
  6
ByLayer
 62
  256
370
   -1
100
AcDbPoint
 10
888.0230661329811
 20
-287.0527475163326
  0
POINT
  5
60
100
AcDbEntity
  8
0
  6
ByLayer
 62
  256
370
   -1
100
AcDbPoint
 10
888.0230661329811
 20
132.9472524836674
  0
POINT
  5
61
100
AcDbEntity
  8
0
  6
ByLayer
 62
  256
370
   -1
100
AcDbPoint
 10
1308.023066132981
 20
132.9472524836674
  0
ARC
  5
62
100
AcDbEntity
  8
0
  6
ByLayer
 62
  256
370
   -1
100
AcDbCircle
 10
1734.260195321316
 20
1030.068119600621
 40
1208.276092609753
100
AcDbArc
 50
226.7064150172187
 51
233.6181797497886
  0
ARC
  5
63
100
AcDbEntity
  8
0
  6
ByLayer
 62
  256
370
   -1
100
AcDbCircle
 10
-9.097800983868183
 20
-713.2898767046254
 40
1208.276092609649
100
AcDbArc
 50
36.38182025021275
 51
43.29358498278344
  0
ARC
  5
64
100
AcDbEntity
  8
0
  6
ByLayer
 62
  256
370
   -1
100
AcDbCircle
 10
461.7859369452749
 20
1030.068119599549
 40
1208.276092608518
100
AcDbArc
 50
306.3818202502176
 51
313.2935849827945
  0
ARC
  5
65
100
AcDbEntity
  8
0
  6
ByLayer
 62
  256
370
   -1
100
AcDbCircle
 10
2205.143933249361
 20
-713.2898767044062
 40
1208.276092609132
100
AcDbArc
 50
136.7064150172091
 51
143.6181797497824
  0
ARC
  5
66
100
AcDbEntity
  8
0
  6
ByLayer
 62
  256
370
   -1
100
AcDbCircle
 10
2205.143933251476
 20
559.1843816729106
 40
1208.276092611542
100
AcDbArc
 50
216.3818202502027
 51
223.2935849827627
  0
ARC
  5
67
100
AcDbEntity
  8
0
  6
ByLayer
 62
  256
370
   -1
100
AcDbCircle
 10
461.7859369432299
 20
-1184.173614635526
 40
1208.276092612397
100
AcDbArc
 50
46.70641501724262
 51
53.61817974979747
  0
ARC
  5
68
100
AcDbEntity
  8
0
  6
ByLayer
 62
  256
370
   -1
100
AcDbCircle
 10
1734.260195322896
 20
-1184.173614636024
 40
1208.276092612908
100
AcDbArc
 50
126.3818202501948
 51
133.2935849827471
  0
ARC
  5
69
100
AcDbEntity
  8
0
  6
ByLayer
 62
  256
370
   -1
100
AcDbCircle
 10
-9.097800986925904
 20
559.1843816737774
 40
1208.276092613199
100
AcDbArc
 50
316.7064150172532
 51
323.618179749804
  0
ARC
  5
6A
100
AcDbEntity
  8
0
  6
ByLayer
 62
  256
370
   -1
100
AcDbCircle
 10
888.0230661329811
 20
-287.0527475163326
 40
150
100
AcDbArc
 50
59.71708479945245
 51
30.28291520054562
  0
ARC
  5
6B
100
AcDbEntity
  8
0
  6
ByLayer
 62
  256
370
   -1
100
AcDbCircle
 10
1308.023066132981
 20
-287.0527475163326
 40
150
100
AcDbArc
 50
149.7170847995342
 51
120.2829152004676
  0
ARC
  5
6C
100
AcDbEntity
  8
0
  6
ByLayer
 62
  256
370
   -1
100
AcDbCircle
 10
1308.023066132981
 20
132.9472524836674
 40
150
100
AcDbArc
 50
239.7170847994824
 51
210.2829152005199
  0
ARC
  5
6D
100
AcDbEntity
  8
0
  6
ByLayer
 62
  256
370
   -1
100
AcDbCircle
 10
888.0230661329811
 20
132.9472524836674
 40
150
100
AcDbArc
 50
329.7170847994483
 51
300.2829152005535
  0
ARC
  5
6E
100
AcDbEntity
  8
0
  6
ByLayer
 62
  256
370
   -1
100
AcDbCircle
 10
888.0230661329811
 20
-287.0527475163326
 40
25
100
AcDbArc
 50
134.9999999978503
 51
315.000000001807
  0
ARC
  5
6F
100
AcDbEntity
  8
0
  6
ByLayer
 62
  256
370
   -1
100
AcDbCircle
 10
1308.023066132981
 20
-287.0527475163326
 40
25
100
AcDbArc
 50
224.9999999999949
 51
45
  0
ARC
  5
70
100
AcDbEntity
  8
0
  6
ByLayer
 62
  256
370
   -1
100
AcDbCircle
 10
1308.023066132981
 20
132.9472524836674
 40
25
100
AcDbArc
 50
315.0000000060327
 51
135.0000000000004
  0
ARC
  5
71
100
AcDbEntity
  8
0
  6
ByLayer
 62
  256
370
   -1
100
AcDbCircle
 10
888.0230661329811
 20
132.9472524836674
 40
25
100
AcDbArc
 50
44.99999999999817
 51
224.999999999993
  0
CIRCLE
  5
72
100
AcDbEntity
  8
0
  6
ByLayer
 62
  256
370
   -1
100
AcDbCircle
 10
1048.023066132984
 20
-77.0527475163326
 40
20
  0
CIRCLE
  5
73
100
AcDbEntity
  8
0
  6
ByLayer
 62
  256
370
   -1
100
AcDbCircle
 10
1098.023066132984
 20
-127.0527475163326
 40
20
  0
CIRCLE
  5
74
100
AcDbEntity
  8
0
  6
ByLayer
 62
  256
370
   -1
100
AcDbCircle
 10
1148.023066132984
 20
-77.0527475163326
 40
20
  0
CIRCLE
  5
75
100
AcDbEntity
  8
0
  6
ByLayer
 62
  256
370
   -1
100
AcDbCircle
 10
1098.023066132984
 20
-27.0527475163326
 40
20
  0
CIRCLE
  5
76
100
AcDbEntity
  8
0
  6
ByLayer
 62
  256
370
   -1
100
AcDbCircle
 10
1324.523066132981
 20
-287.0527475163326
 40
1.5
  0
CIRCLE
  5
77
100
AcDbEntity
  8
0
  6
ByLayer
 62
  256
370
   -1
100
AcDbCircle
 10
1291.523066132981
 20
-287.0527475163326
 40
1.5
  0
CIRCLE
  5
78
100
AcDbEntity
  8
0
  6
ByLayer
 62
  256
370
   -1
100
AcDbCircle
 10
1308.023066132981
 20
-270.5527475163326
 40
1.5
  0
CIRCLE
  5
79
100
AcDbEntity
  8
0
  6
ByLayer
 62
  256
370
   -1
100
AcDbCircle
 10
1308.023066132981
 20
-303.5527475163326
 40
1.5
  0
CIRCLE
  5
7A
100
AcDbEntity
  8
0
  6
ByLayer
 62
  256
370
   -1
100
AcDbCircle
 10
904.5230661329811
 20
-287.0527475163326
 40
1.5
  0
CIRCLE
  5
7B
100
AcDbEntity
  8
0
  6
ByLayer
 62
  256
370
   -1
100
AcDbCircle
 10
871.5230661329811
 20
-287.0527475163326
 40
1.5
  0
CIRCLE
  5
7C
100
AcDbEntity
  8
0
  6
ByLayer
 62
  256
370
   -1
100
AcDbCircle
 10
888.0230661329811
 20
-270.5527475163326
 40
1.5
  0
CIRCLE
  5
7D
100
AcDbEntity
  8
0
  6
ByLayer
 62
  256
370
   -1
100
AcDbCircle
 10
888.0230661329811
 20
-303.5527475163326
 40
1.5
  0
CIRCLE
  5
7E
100
AcDbEntity
  8
0
  6
ByLayer
 62
  256
370
   -1
100
AcDbCircle
 10
904.5230661329811
 20
132.9472524836674
 40
1.5
  0
CIRCLE
  5
7F
100
AcDbEntity
  8
0
  6
ByLayer
 62
  256
370
   -1
100
AcDbCircle
 10
871.5230661329811
 20
132.9472524836674
 40
1.5
  0
CIRCLE
  5
80
100
AcDbEntity
  8
0
  6
ByLayer
 62
  256
370
   -1
100
AcDbCircle
 10
888.0230661329811
 20
149.4472524836674
 40
1.5
  0
CIRCLE
  5
81
100
AcDbEntity
  8
0
  6
ByLayer
 62
  256
370
   -1
100
AcDbCircle
 10
888.0230661329811
 20
116.4472524836674
 40
1.5
  0
CIRCLE
  5
82
100
AcDbEntity
  8
0
  6
ByLayer
 62
  256
370
   -1
100
AcDbCircle
 10
1324.523066132981
 20
132.9472524836674
 40
1.5
  0
CIRCLE
  5
83
100
AcDbEntity
  8
0
  6
ByLayer
 62
  256
370
   -1
100
AcDbCircle
 10
1291.523066132981
 20
132.9472524836674
 40
1.5
  0
CIRCLE
  5
84
100
AcDbEntity
  8
0
  6
ByLayer
 62
  256
370
   -1
100
AcDbCircle
 10
1308.023066132981
 20
149.4472524836674
 40
1.5
  0
CIRCLE
  5
85
100
AcDbEntity
  8
0
  6
ByLayer
 62
  256
370
   -1
100
AcDbCircle
 10
1308.023066132981
 20
116.4472524836674
 40
1.5
  0
LWPOLYLINE
  5
86
100
AcDbEntity
  8
0
  6
ByLayer
 62
  256
370
   -1
100
AcDbPolyline
 90
    4
 70
    1
 43
0
 10
1176.655264717927
 20
-1.248976056135689
 10
1190.797400341657
 20
12.89315956759492
 10
1187.968973216912
 20
15.72158669234068
 10
1173.826837593181
 20
1.579451068610069
  0
LWPOLYLINE
  5
87
100
AcDbEntity
  8
0
  6
ByLayer
 62
  256
370
   -1
100
AcDbPolyline
 90
    4
 70
    1
 43
0
 10
1019.390867548041
 20
-152.8565189765295
 10
1005.248731924311
 20
-166.9986546002601
 10
1008.077159049056
 20
-169.8270817250059
 10
1022.219294672787
 20
-155.6849461012753
  0
CIRCLE
  5
88
100
AcDbEntity
  8
0
  6
ByLayer
 62
  256
370
   -1
100
AcDbCircle
 10
1162.792613931422
 20
-187.149733833834
 40
10
  0
CIRCLE
  5
89
100
AcDbEntity
  8
0
  6
ByLayer
 62
  256
370
   -1
100
AcDbCircle
 10
1208.120052450458
 20
-141.8222953147952
 40
10
  0
LWPOLYLINE
  5
8A
100
AcDbEntity
  8
0
  6
ByLayer
 62
  256
370
   -1
100
AcDbPolyline
 90
    4
 70
    1
 43
0
 10
1214.684971016357
 20
-196.5430795244538
 10
1306.608852570608
 20
-288.466961078705
 10
1309.437279695354
 20
-285.6385339539584
 10
1217.513398141103
 20
-193.714652399708
  0
LWPOLYLINE
  5
8B
100
AcDbEntity
  8
0
  6
ByLayer
 62
  256
370
   -1
100
AcDbPolyline
 90
    4
 70
    1
 43
0
 10
1217.513398141105
 20
39.6091573670401
 10
1309.437279695356
 20
131.5330389212913
 10
1306.60885257061
 20
134.361466046038
 10
1214.684971016359
 20
42.43758449178677
  0
LWPOLYLINE
  5
8C
100
AcDbEntity
  8
0
  6
ByLayer
 62
  256
370
   -1
100
AcDbPolyline
 90
    4
 70
    1
 43
0
 10
981.3611612496115
 20
42.43758449178858
 10
889.4372796953603
 20
134.3614660460398
 10
886.6088525706136
 20
131.5330389212932
 10
978.5327341248649
 20
39.60915736704283
  0
LWPOLYLINE
  5
8D
100
AcDbEntity
  8
0
  6
ByLayer
 62
  256
370
   -1
100
AcDbPolyline
 90
    4
 70
    1
 43
0
 10
978.5327341248626
 20
-193.7146523997053
 10
886.6088525706118
 20
-285.6385339539565
 10
889.4372796953585
 20
-288.4669610787032
 10
981.3611612496084
 20
-196.543079524452
  0
CIRCLE
  5
8E
100
AcDbEntity
  8
0
  6
ByLayer
 62
  256
370
   -1
100
AcDbCircle
 10
1208.120052450482
 20
-12.28319971789188
 40
10
  0
CIRCLE
  5
8F
100
AcDbEntity
  8
0
  6
ByLayer
 62
  256
370
   -1
100
AcDbCircle
 10
1162.792613931444
 20
33.04423880114427
 40
10
  0
CIRCLE
  5
90
100
AcDbEntity
  8
0
  6
ByLayer
 62
  256
370
   -1
100
AcDbCircle
 10
1033.253518334543
 20
33.0442388011661
 40
10
  0
CIRCLE
  5
91
100
AcDbEntity
  8
0
  6
ByLayer
 62
  256
370
   -1
100
AcDbCircle
 10
987.9260798155074
 20
-12.28319971787278
 40
10
  0
CIRCLE
  5
92
100
AcDbEntity
  8
0
  6
ByLayer
 62
  256
370
   -1
100
AcDbCircle
 10
987.9260798154855
 20
-141.8222953147733
 40
10
  0
CIRCLE
  5
93
100
AcDbEntity
  8
0
  6
ByLayer
 62
  256
370
   -1
100
AcDbCircle
 10
1033.253518334524
 20
-187.1497338338095
 40
10
  0
CIRCLE
  5
94
100
AcDbEntity
  8
0
  6
ByLayer
 62
  256
370
   -1
100
AcDbCircle
 10
1799.007709836136
 20
132.9472524836674
 40
150
  0
CIRCLE
  5
95
100
AcDbEntity
  8
0
  6
ByLayer
 62
  256
370
   -1
100
AcDbCircle
 10
2219.007709836136
 20
132.9472524836674
 40
150
  0
CIRCLE
  5
96
100
AcDbEntity
  8
0
  6
ByLayer
 62
  256
370
   -1
100
AcDbCircle
 10
1799.007709836136
 20
-287.0527475163326
 40
150
  0
CIRCLE
  5
97
100
AcDbEntity
  8
0
  6
ByLayer
 62
  256
370
   -1
100
AcDbCircle
 10
2219.007709836136
 20
-287.0527475163326
 40
150
  0
ARC
  5
98
100
AcDbEntity
  8
0
  6
ByLayer
 62
  256
370
   -1
100
AcDbCircle
 10
1799.007709836136
 20
132.9472524836674
 40
160
100
AcDbArc
 50
3.307776868722058e-13
 51
269.9999999999989
  0
ARC
  5
99
100
AcDbEntity
  8
0
  6
ByLayer
 62
  256
370
   -1
100
AcDbCircle
 10
2219.007709836136
 20
132.9472524836674
 40
160
100
AcDbArc
 50
269.9999999999998
 51
179.999999999995
  0
ARC
  5
9A
100
AcDbEntity
  8
0
  6
ByLayer
 62
  256
370
   -1
100
AcDbCircle
 10
2219.007709836136
 20
-287.0527475163326
 40
160
100
AcDbArc
 50
179.9999999999995
 51
90.00000000000172
  0
ARC
  5
9B
100
AcDbEntity
  8
0
  6
ByLayer
 62
  256
370
   -1
100
AcDbCircle
 10
1799.007709836136
 20
-287.0527475163326
 40
160
100
AcDbArc
 50
89.99999999999731
 51
3.307776868722058e-13
  0
POINT
  5
9C
100
AcDbEntity
  8
0
  6
ByLayer
 62
  256
370
   -1
100
AcDbPoint
 10
2009.007709836139
 20
-77.0527475163326
  0
ARC
  5
9D
100
AcDbEntity
  8
0
  6
ByLayer
 62
  256
370
   -1
100
AcDbCircle
 10
1778.007709836136
 20
132.9472524836656
 40
280.9999999999991
100
AcDbArc
 50
336.185885727444
 51
5.597776239375789e-13
  0
ARC
  5
9E
100
AcDbEntity
  8
0
  6
ByLayer
 62
  256
370
   -1
100
AcDbCircle
 10
2240.007709836134
 20
132.9472524836719
 40
280.9999999999952
100
AcDbArc
 50
180.0000000000007
 51
203.8141142725584
  0
ARC
  5
9F
100
AcDbEntity
  8
0
  6
ByLayer
 62
  256
370
   -1
100
AcDbCircle
 10
1799.007709836144
 20
-308.0527475163681
 40
281.0000000000326
100
AcDbArc
 50
66.18588572744729
 51
90.00000000000126
  0
ARC
  5
A0
100
AcDbEntity
  8
0
  6
ByLayer
 62
  256
370
   -1
100
AcDbCircle
 10
1799.007709836141
 20
153.9472524836656
 40
280.9999999999969
100
AcDbArc
 50
269.9999999999995
 51
293.8141142725566
  0
ARC
  5
A1
100
AcDbEntity
  8
0
  6
ByLayer
 62
  256
370
   -1
100
AcDbCircle
 10
2240.007709836125
 20
-287.0527475163344
 40
280.9999999999878
100
AcDbArc
 50
156.185885727442
 51
179.9999999999993
  0
ARC
  5
A2
100
AcDbEntity
  8
0
  6
ByLayer
 62
  256
370
   -1
100
AcDbCircle
 10
1778.007709836058
 20
-287.0527475163326
 40
281.0000000000641
100
AcDbArc
 50
0
 51
23.8141142725501
  0
ARC
  5
A3
100
AcDbEntity
  8
0
  6
ByLayer
 62
  256
370
   -1
100
AcDbCircle
 10
2219.007709836131
 20
-308.0527475163535
 40
281.0000000000211
100
AcDbArc
 50
89.99999999999866
 51
113.8141142725534
  0
ARC
  5
A4
100
AcDbEntity
  8
0
  6
ByLayer
 62
  256
370
   -1
100
AcDbCircle
 10
2219.00770983613
 20
153.9472524837056
 40
281.0000000000356
100
AcDbArc
 50
246.1858857274486
 51
270.0000000000015
  0
ARC
  5
A5
100
AcDbEntity
  8
0
  6
ByLayer
 62
  256
370
   -1
100
AcDbCircle
 10
2009.007709836139
 20
-77.0527475163326
 40
99.99999999999785
100
AcDbArc
 50
74.88500071647904
 51
105.1149992835212
  0
ARC
  5
A6
100
AcDbEntity
  8
0
  6
ByLayer
 62
  256
370
   -1
100
AcDbCircle
 10
2009.007709836139
 20
-77.0527475163326
 40
100.0000000000006
100
AcDbArc
 50
164.8850007164765
 51
195.1149992835212
  0
ARC
  5
A7
100
AcDbEntity
  8
0
  6
ByLayer
 62
  256
370
   -1
100
AcDbCircle
 10
2009.007709836139
 20
-77.0527475163326
 40
100.0000000000013
100
AcDbArc
 50
254.8850007164776
 51
285.1149992835163
  0
ARC
  5
A8
100
AcDbEntity
  8
0
  6
ByLayer
 62
  256
370
   -1
100
AcDbCircle
 10
2009.007709836139
 20
-77.0527475163326
 40
100.0000000000001
100
AcDbArc
 50
344.8850007164756
 51
15.11499928352512
  0
POINT
  5
A9
100
AcDbEntity
  8
0
  6
ByLayer
 62
  256
370
   -1
100
AcDbPoint
 10
2219.007709836136
 20
-287.0527475163326
  0
POINT
  5
AA
100
AcDbEntity
  8
0
  6
ByLayer
 62
  256
370
   -1
100
AcDbPoint
 10
1799.007709836136
 20
-287.0527475163326
  0
POINT
  5
AB
100
AcDbEntity
  8
0
  6
ByLayer
 62
  256
370
   -1
100
AcDbPoint
 10
1799.007709836136
 20
132.9472524836674
  0
POINT
  5
AC
100
AcDbEntity
  8
0
  6
ByLayer
 62
  256
370
   -1
100
AcDbPoint
 10
2219.007709836136
 20
132.9472524836674
  0
CIRCLE
  5
AD
100
AcDbEntity
  8
0
  6
ByLayer
 62
  256
370
   -1
100
AcDbCircle
 10
1959.007709836139
 20
-77.0527475163326
 40
20
  0
CIRCLE
  5
AE
100
AcDbEntity
  8
0
  6
ByLayer
 62
  256
370
   -1
100
AcDbCircle
 10
2009.007709836139
 20
-127.0527475163326
 40
20
  0
CIRCLE
  5
AF
100
AcDbEntity
  8
0
  6
ByLayer
 62
  256
370
   -1
100
AcDbCircle
 10
2059.007709836139
 20
-77.0527475163326
 40
20
  0
CIRCLE
  5
B0
100
AcDbEntity
  8
0
  6
ByLayer
 62
  256
370
   -1
100
AcDbCircle
 10
2009.007709836139
 20
-27.0527475163326
 40
20
  0
LWPOLYLINE
  5
B1
100
AcDbEntity
  8
0
  6
ByLayer
 62
  256
370
   -1
100
AcDbPolyline
 90
    4
 70
    1
 43
0
 10
2087.639908421082
 20
-1.248976056135689
 10
2101.782044044812
 20
12.89315956759492
 10
2098.953616920066
 20
15.72158669234068
 10
2084.811481296336
 20
1.579451068610069
  0
LWPOLYLINE
  5
B2
100
AcDbEntity
  8
0
  6
ByLayer
 62
  256
370
   -1
100
AcDbPolyline
 90
    4
 70
    1
 43
0
 10
1930.375511251196
 20
-152.8565189765295
 10
1916.233375627466
 20
-166.9986546002601
 10
1919.061802752211
 20
-169.8270817250059
 10
1933.203938375942
 20
-155.6849461012753
  0
CIRCLE
  5
B3
100
AcDbEntity
  8
0
  6
ByLayer
 62
  256
370
   -1
100
AcDbCircle
 10
2073.77725763458
 20
-187.149733833834
 40
10
  0
CIRCLE
  5
B4
100
AcDbEntity
  8
0
  6
ByLayer
 62
  256
370
   -1
100
AcDbCircle
 10
2119.104696153616
 20
-141.8222953147952
 40
10
  0
CIRCLE
  5
B5
100
AcDbEntity
  8
0
  6
ByLayer
 62
  256
370
   -1
100
AcDbCircle
 10
2119.10469615364
 20
-12.28319971789188
 40
10
  0
CIRCLE
  5
B6
100
AcDbEntity
  8
0
  6
ByLayer
 62
  256
370
   -1
100
AcDbCircle
 10
2073.777257634601
 20
33.04423880114427
 40
10
  0
CIRCLE
  5
B7
100
AcDbEntity
  8
0
  6
ByLayer
 62
  256
370
   -1
100
AcDbCircle
 10
1944.238162037701
 20
33.0442388011661
 40
10
  0
CIRCLE
  5
B8
100
AcDbEntity
  8
0
  6
ByLayer
 62
  256
370
   -1
100
AcDbCircle
 10
1898.910723518665
 20
-12.28319971787278
 40
10
  0
CIRCLE
  5
B9
100
AcDbEntity
  8
0
  6
ByLayer
 62
  256
370
   -1
100
AcDbCircle
 10
1898.910723518643
 20
-141.8222953147733
 40
10
  0
CIRCLE
  5
BA
100
AcDbEntity
  8
0
  6
ByLayer
 62
  256
370
   -1
100
AcDbCircle
 10
1944.238162037682
 20
-187.1497338338095
 40
10
  0
CIRCLE
  5
BB
100
AcDbEntity
  8
0
  6
ByLayer
 62
  256
370
   -1
100
AcDbCircle
 10
1799.007709836136
 20
-287.0527475163326
 40
100.0000000000014
  0
CIRCLE
  5
BC
100
AcDbEntity
  8
0
  6
ByLayer
 62
  256
370
   -1
100
AcDbCircle
 10
1749.007709836136
 20
-287.0527475163326
 40
20
  0
CIRCLE
  5
BD
100
AcDbEntity
  8
0
  6
ByLayer
 62
  256
370
   -1
100
AcDbCircle
 10
1799.007709836136
 20
-337.0527475163326
 40
20
  0
CIRCLE
  5
BE
100
AcDbEntity
  8
0
  6
ByLayer
 62
  256
370
   -1
100
AcDbCircle
 10
1849.007709836136
 20
-287.0527475163326
 40
20
  0
CIRCLE
  5
BF
100
AcDbEntity
  8
0
  6
ByLayer
 62
  256
370
   -1
100
AcDbCircle
 10
1799.007709836136
 20
-237.0527475163326
 40
20
  0
ARC
  5
C0
100
AcDbEntity
  8
0
  6
ByBlock
 62
  256
370
   -1
100
AcDbCircle
 10
1119.023066132984
 20
-368.375986990035
 40
8
100
AcDbArc
 50
270
 51
360
  0
ARC
  5
C1
100
AcDbEntity
  8
0
  6
ByBlock
 62
  256
370
   -1
100
AcDbCircle
 10
1119.023066132984
 20
-234.375986990035
 40
8
100
AcDbArc
 50
360
 51
90
  0
LINE
  5
C2
100
AcDbEntity
  8
0
  6
ByBlock
 62
  256
370
   -1
100
AcDbLine
 10
1127.023066132984
 20
-368.375986990035
 11
1127.023066132984
 21
-234.375986990035
  0
LINE
  5
C3
100
AcDbEntity
  8
0
  6
ByBlock
 62
  256
370
   -1
100
AcDbLine
 10
1107.023066132984
 20
-376.375986990035
 11
1119.023066132984
 21
-376.375986990035
  0
LINE
  5
C4
100
AcDbEntity
  8
0
  6
ByBlock
 62
  256
370
   -1
100
AcDbLine
 10
1107.023066132984
 20
-226.375986990035
 11
1119.023066132984
 21
-226.375986990035
  0
LINE
  5
C5
100
AcDbEntity
  8
0
  6
ByBlock
 62
  256
370
   -1
100
AcDbLine
 10
1107.023066132984
 20
-376.375986990035
 11
1107.023066132984
 21
-366.375986990035
  0
LINE
  5
C6
100
AcDbEntity
  8
0
  6
ByBlock
 62
  256
370
   -1
100
AcDbLine
 10
1107.023066132984
 20
-236.375986990035
 11
1107.023066132984
 21
-226.375986990035
  0
LINE
  5
C7
100
AcDbEntity
  8
0
  6
ByBlock
 62
  256
370
   -1
100
AcDbLine
 10
1107.023066132984
 20
-366.375986990035
 11
1103.023066132984
 21
-366.375986990035
  0
LINE
  5
C8
100
AcDbEntity
  8
0
  6
ByBlock
 62
  256
370
   -1
100
AcDbLine
 10
1103.023066132984
 20
-366.375986990035
 11
1103.023066132984
 21
-236.375986990035
  0
LINE
  5
C9
100
AcDbEntity
  8
0
  6
ByBlock
 62
  256
370
   -1
100
AcDbLine
 10
1103.023066132984
 20
-236.375986990035
 11
1107.023066132984
 21
-236.375986990035
  0
ARC
  5
CA
100
AcDbEntity
  8
0
  6
ByBlock
 62
  256
370
   -1
100
AcDbCircle
 10
1077.023066132984
 20
-234.375986990035
 40
8
100
AcDbArc
 50
90
 51
180
  0
ARC
  5
CB
100
AcDbEntity
  8
0
  6
ByBlock
 62
  256
370
   -1
100
AcDbCircle
 10
1077.023066132984
 20
-368.375986990035
 40
8
100
AcDbArc
 50
180
 51
270
  0
LINE
  5
CC
100
AcDbEntity
  8
0
  6
ByBlock
 62
  256
370
   -1
100
AcDbLine
 10
1069.023066132984
 20
-234.375986990035
 11
1069.023066132984
 21
-368.375986990035
  0
LINE
  5
CD
100
AcDbEntity
  8
0
  6
ByBlock
 62
  256
370
   -1
100
AcDbLine
 10
1089.023066132984
 20
-226.375986990035
 11
1077.023066132984
 21
-226.375986990035
  0
LINE
  5
CE
100
AcDbEntity
  8
0
  6
ByBlock
 62
  256
370
   -1
100
AcDbLine
 10
1089.023066132984
 20
-376.375986990035
 11
1077.023066132984
 21
-376.375986990035
  0
LINE
  5
CF
100
AcDbEntity
  8
0
  6
ByBlock
 62
  256
370
   -1
100
AcDbLine
 10
1089.023066132984
 20
-226.375986990035
 11
1089.023066132984
 21
-236.375986990035
  0
LINE
  5
D0
100
AcDbEntity
  8
0
  6
ByBlock
 62
  256
370
   -1
100
AcDbLine
 10
1089.023066132984
 20
-366.375986990035
 11
1089.023066132984
 21
-376.375986990035
  0
LINE
  5
D1
100
AcDbEntity
  8
0
  6
ByBlock
 62
  256
370
   -1
100
AcDbLine
 10
1089.023066132984
 20
-236.375986990035
 11
1093.023066132984
 21
-236.375986990035
  0
LINE
  5
D2
100
AcDbEntity
  8
0
  6
ByBlock
 62
  256
370
   -1
100
AcDbLine
 10
1093.023066132984
 20
-236.375986990035
 11
1093.023066132984
 21
-366.375986990035
  0
LINE
  5
D3
100
AcDbEntity
  8
0
  6
ByBlock
 62
  256
370
   -1
100
AcDbLine
 10
1093.023066132984
 20
-366.375986990035
 11
1089.023066132984
 21
-366.375986990035
  0
ARC
  5
D4
100
AcDbEntity
  8
0
  6
ByBlock
 62
  256
370
   -1
100
AcDbCircle
 10
1389.346305606686
 20
-56.0527475163326
 40
8
100
AcDbArc
 50
360
 51
90
  0
ARC
  5
D5
100
AcDbEntity
  8
0
  6
ByBlock
 62
  256
370
   -1
100
AcDbCircle
 10
1255.346305606686
 20
-56.0527475163326
 40
8
100
AcDbArc
 50
90
 51
180
  0
LINE
  5
D6
100
AcDbEntity
  8
0
  6
ByBlock
 62
  256
370
   -1
100
AcDbLine
 10
1389.346305606686
 20
-48.0527475163326
 11
1255.346305606686
 21
-48.0527475163326
  0
LINE
  5
D7
100
AcDbEntity
  8
0
  6
ByBlock
 62
  256
370
   -1
100
AcDbLine
 10
1397.346305606686
 20
-68.0527475163326
 11
1397.346305606686
 21
-56.0527475163326
  0
LINE
  5
D8
100
AcDbEntity
  8
0
  6
ByBlock
 62
  256
370
   -1
100
AcDbLine
 10
1247.346305606686
 20
-68.0527475163326
 11
1247.346305606686
 21
-56.0527475163326
  0
LINE
  5
D9
100
AcDbEntity
  8
0
  6
ByBlock
 62
  256
370
   -1
100
AcDbLine
 10
1397.346305606686
 20
-68.0527475163326
 11
1387.346305606686
 21
-68.0527475163326
  0
LINE
  5
DA
100
AcDbEntity
  8
0
  6
ByBlock
 62
  256
370
   -1
100
AcDbLine
 10
1257.346305606686
 20
-68.0527475163326
 11
1247.346305606686
 21
-68.0527475163326
  0
LINE
  5
DB
100
AcDbEntity
  8
0
  6
ByBlock
 62
  256
370
   -1
100
AcDbLine
 10
1387.346305606686
 20
-68.0527475163326
 11
1387.346305606686
 21
-72.0527475163326
  0
LINE
  5
DC
100
AcDbEntity
  8
0
  6
ByBlock
 62
  256
370
   -1
100
AcDbLine
 10
1387.346305606686
 20
-72.0527475163326
 11
1257.346305606686
 21
-72.0527475163326
  0
LINE
  5
DD
100
AcDbEntity
  8
0
  6
ByBlock
 62
  256
370
   -1
100
AcDbLine
 10
1257.346305606686
 20
-72.0527475163326
 11
1257.346305606686
 21
-68.0527475163326
  0
ARC
  5
DE
100
AcDbEntity
  8
0
  6
ByBlock
 62
  256
370
   -1
100
AcDbCircle
 10
1255.346305606686
 20
-98.0527475163326
 40
8
100
AcDbArc
 50
180
 51
270
  0
ARC
  5
DF
100
AcDbEntity
  8
0
  6
ByBlock
 62
  256
370
   -1
100
AcDbCircle
 10
1389.346305606686
 20
-98.0527475163326
 40
8
100
AcDbArc
 50
270
 51
360
  0
LINE
  5
E0
100
AcDbEntity
  8
0
  6
ByBlock
 62
  256
370
   -1
100
AcDbLine
 10
1255.346305606686
 20
-106.0527475163326
 11
1389.346305606686
 21
-106.0527475163326
  0
LINE
  5
E1
100
AcDbEntity
  8
0
  6
ByBlock
 62
  256
370
   -1
100
AcDbLine
 10
1247.346305606686
 20
-86.0527475163326
 11
1247.346305606686
 21
-98.0527475163326
  0
LINE
  5
E2
100
AcDbEntity
  8
0
  6
ByBlock
 62
  256
370
   -1
100
AcDbLine
 10
1397.346305606686
 20
-86.0527475163326
 11
1397.346305606686
 21
-98.0527475163326
  0
LINE
  5
E3
100
AcDbEntity
  8
0
  6
ByBlock
 62
  256
370
   -1
100
AcDbLine
 10
1247.346305606686
 20
-86.0527475163326
 11
1257.346305606686
 21
-86.0527475163326
  0
LINE
  5
E4
100
AcDbEntity
  8
0
  6
ByBlock
 62
  256
370
   -1
100
AcDbLine
 10
1387.346305606686
 20
-86.0527475163326
 11
1397.346305606686
 21
-86.0527475163326
  0
LINE
  5
E5
100
AcDbEntity
  8
0
  6
ByBlock
 62
  256
370
   -1
100
AcDbLine
 10
1257.346305606686
 20
-86.0527475163326
 11
1257.346305606686
 21
-82.0527475163326
  0
LINE
  5
E6
100
AcDbEntity
  8
0
  6
ByBlock
 62
  256
370
   -1
100
AcDbLine
 10
1257.346305606686
 20
-82.0527475163326
 11
1387.346305606686
 21
-82.0527475163326
  0
LINE
  5
E7
100
AcDbEntity
  8
0
  6
ByBlock
 62
  256
370
   -1
100
AcDbLine
 10
1387.346305606686
 20
-82.0527475163326
 11
1387.346305606686
 21
-86.0527475163326
  0
ARC
  5
E8
100
AcDbEntity
  8
0
  6
ByBlock
 62
  256
370
   -1
100
AcDbCircle
 10
1077.023066132984
 20
214.2704919573698
 40
8
100
AcDbArc
 50
90
 51
180
  0
ARC
  5
E9
100
AcDbEntity
  8
0
  6
ByBlock
 62
  256
370
   -1
100
AcDbCircle
 10
1077.023066132984
 20
80.27049195736981
 40
8
100
AcDbArc
 50
180
 51
270
  0
LINE
  5
EA
100
AcDbEntity
  8
0
  6
ByBlock
 62
  256
370
   -1
100
AcDbLine
 10
1069.023066132984
 20
214.2704919573698
 11
1069.023066132984
 21
80.27049195736981
  0
LINE
  5
EB
100
AcDbEntity
  8
0
  6
ByBlock
 62
  256
370
   -1
100
AcDbLine
 10
1089.023066132984
 20
222.2704919573698
 11
1077.023066132984
 21
222.2704919573698
  0
LINE
  5
EC
100
AcDbEntity
  8
0
  6
ByBlock
 62
  256
370
   -1
100
AcDbLine
 10
1089.023066132984
 20
72.27049195736981
 11
1077.023066132984
 21
72.27049195736981
  0
LINE
  5
ED
100
AcDbEntity
  8
0
  6
ByBlock
 62
  256
370
   -1
100
AcDbLine
 10
1089.023066132984
 20
222.2704919573698
 11
1089.023066132984
 21
212.2704919573698
  0
LINE
  5
EE
100
AcDbEntity
  8
0
  6
ByBlock
 62
  256
370
   -1
100
AcDbLine
 10
1089.023066132984
 20
82.27049195736981
 11
1089.023066132984
 21
72.27049195736981
  0
LINE
  5
EF
100
AcDbEntity
  8
0
  6
ByBlock
 62
  256
370
   -1
100
AcDbLine
 10
1089.023066132984
 20
212.2704919573698
 11
1093.023066132984
 21
212.2704919573698
  0
LINE
  5
F0
100
AcDbEntity
  8
0
  6
ByBlock
 62
  256
370
   -1
100
AcDbLine
 10
1093.023066132984
 20
212.2704919573698
 11
1093.023066132984
 21
82.27049195736981
  0
LINE
  5
F1
100
AcDbEntity
  8
0
  6
ByBlock
 62
  256
370
   -1
100
AcDbLine
 10
1093.023066132984
 20
82.27049195736981
 11
1089.023066132984
 21
82.27049195736981
  0
ARC
  5
F2
100
AcDbEntity
  8
0
  6
ByBlock
 62
  256
370
   -1
100
AcDbCircle
 10
1119.023066132984
 20
80.27049195736981
 40
8
100
AcDbArc
 50
270
 51
360
  0
ARC
  5
F3
100
AcDbEntity
  8
0
  6
ByBlock
 62
  256
370
   -1
100
AcDbCircle
 10
1119.023066132984
 20
214.2704919573698
 40
8
100
AcDbArc
 50
360
 51
90
  0
LINE
  5
F4
100
AcDbEntity
  8
0
  6
ByBlock
 62
  256
370
   -1
100
AcDbLine
 10
1127.023066132984
 20
80.27049195736981
 11
1127.023066132984
 21
214.2704919573698
  0
LINE
  5
F5
100
AcDbEntity
  8
0
  6
ByBlock
 62
  256
370
   -1
100
AcDbLine
 10
1107.023066132984
 20
72.27049195736981
 11
1119.023066132984
 21
72.27049195736981
  0
LINE
  5
F6
100
AcDbEntity
  8
0
  6
ByBlock
 62
  256
370
   -1
100
AcDbLine
 10
1107.023066132984
 20
222.2704919573698
 11
1119.023066132984
 21
222.2704919573698
  0
LINE
  5
F7
100
AcDbEntity
  8
0
  6
ByBlock
 62
  256
370
   -1
100
AcDbLine
 10
1107.023066132984
 20
72.27049195736981
 11
1107.023066132984
 21
82.27049195736981
  0
LINE
  5
F8
100
AcDbEntity
  8
0
  6
ByBlock
 62
  256
370
   -1
100
AcDbLine
 10
1107.023066132984
 20
212.2704919573698
 11
1107.023066132984
 21
222.2704919573698
  0
LINE
  5
F9
100
AcDbEntity
  8
0
  6
ByBlock
 62
  256
370
   -1
100
AcDbLine
 10
1107.023066132984
 20
82.27049195736981
 11
1103.023066132984
 21
82.27049195736981
  0
LINE
  5
FA
100
AcDbEntity
  8
0
  6
ByBlock
 62
  256
370
   -1
100
AcDbLine
 10
1103.023066132984
 20
82.27049195736981
 11
1103.023066132984
 21
212.2704919573698
  0
LINE
  5
FB
100
AcDbEntity
  8
0
  6
ByBlock
 62
  256
370
   -1
100
AcDbLine
 10
1103.023066132984
 20
212.2704919573698
 11
1107.023066132984
 21
212.2704919573698
  0
LINE
  5
FC
100
AcDbEntity
  8
0
  6
ByLayer
 62
  256
370
   -1
100
AcDbLine
 10
779.6220787136181
 20
-289.5279067792735
 11
779.6220787136181
 21
-294.5279067792735
  0
LINE
  5
FD
100
AcDbEntity
  8
0
  6
ByLayer
 62
  256
370
   -1
100
AcDbLine
 10
779.6220787136181
 20
-294.5279067792735
 11
775.6220787136181
 21
-294.5279067792735
  0
LINE
  5
FE
100
AcDbEntity
  8
0
  6
ByLayer
 62
  256
370
   -1
100
AcDbLine
 10
775.6220787136181
 20
-294.5279067792735
 11
775.6220787136181
 21
-314.5279067792735
  0
LINE
  5
FF
100
AcDbEntity
  8
0
  6
ByLayer
 62
  256
370
   -1
100
AcDbLine
 10
775.6220787136181
 20
-314.5279067792735
 11
779.6220787136181
 21
-314.5279067792735
  0
LINE
  5
100
100
AcDbEntity
  8
0
  6
ByLayer
 62
  256
370
   -1
100
AcDbLine
 10
779.6220787136181
 20
-314.5279067792735
 11
779.6220787136181
 21
-319.5279067792735
  0
LINE
  5
101
100
AcDbEntity
  8
0
  6
ByLayer
 62
  256
370
   -1
100
AcDbLine
 10
779.6220787136181
 20
-319.5279067792735
 11
839.6220787136181
 21
-319.5279067792735
  0
LINE
  5
102
100
AcDbEntity
  8
0
  6
ByLayer
 62
  256
370
   -1
100
AcDbLine
 10
779.6220787136181
 20
-289.5279067792735
 11
839.6220787136181
 21
-289.5279067792735
  0
LINE
  5
103
100
AcDbEntity
  8
0
  6
ByLayer
 62
  256
370
   -1
100
AcDbLine
 10
839.6220787136181
 20
-319.5279067792735
 11
839.6220787136181
 21
-314.5279067792735
  0
LINE
  5
104
100
AcDbEntity
  8
0
  6
ByLayer
 62
  256
370
   -1
100
AcDbLine
 10
839.6220787136181
 20
-314.5279067792735
 11
843.6220787136181
 21
-314.5279067792735
  0
LINE
  5
105
100
AcDbEntity
  8
0
  6
ByLayer
 62
  256
370
   -1
100
AcDbLine
 10
843.6220787136181
 20
-314.5279067792735
 11
843.6220787136181
 21
-294.5279067792735
  0
LINE
  5
106
100
AcDbEntity
  8
0
  6
ByLayer
 62
  256
370
   -1
100
AcDbLine
 10
843.6220787136181
 20
-294.5279067792735
 11
839.6220787136181
 21
-294.5279067792735
  0
LINE
  5
107
100
AcDbEntity
  8
0
  6
ByLayer
 62
  256
370
   -1
100
AcDbLine
 10
839.6220787136181
 20
-294.5279067792735
 11
839.6220787136181
 21
-289.5279067792735
  0
LINE
  5
108
100
AcDbEntity
  8
0
  6
ByLayer
 62
  256
370
   -1
100
AcDbLine
 10
780.2331634298071
 20
-249.0053630568782
 11
780.2331634298071
 21
-254.0053630568782
  0
LINE
  5
109
100
AcDbEntity
  8
0
  6
ByLayer
 62
  256
370
   -1
100
AcDbLine
 10
780.2331634298071
 20
-254.0053630568782
 11
776.2331634298071
 21
-254.0053630568782
  0
LINE
  5
10A
100
AcDbEntity
  8
0
  6
ByLayer
 62
  256
370
   -1
100
AcDbLine
 10
776.2331634298071
 20
-254.0053630568782
 11
776.2331634298071
 21
-274.0053630568782
  0
LINE
  5
10B
100
AcDbEntity
  8
0
  6
ByLayer
 62
  256
370
   -1
100
AcDbLine
 10
776.2331634298071
 20
-274.0053630568782
 11
780.2331634298071
 21
-274.0053630568782
  0
LINE
  5
10C
100
AcDbEntity
  8
0
  6
ByLayer
 62
  256
370
   -1
100
AcDbLine
 10
780.2331634298071
 20
-274.0053630568782
 11
780.2331634298071
 21
-279.0053630568782
  0
LINE
  5
10D
100
AcDbEntity
  8
0
  6
ByLayer
 62
  256
370
   -1
100
AcDbLine
 10
780.2331634298071
 20
-279.0053630568782
 11
840.2331634298071
 21
-279.0053630568791
  0
LINE
  5
10E
100
AcDbEntity
  8
0
  6
ByLayer
 62
  256
370
   -1
100
AcDbLine
 10
780.2331634298071
 20
-249.0053630568782
 11
840.2331634298071
 21
-249.0053630568782
  0
LINE
  5
10F
100
AcDbEntity
  8
0
  6
ByLayer
 62
  256
370
   -1
100
AcDbLine
 10
840.2331634298071
 20
-279.0053630568791
 11
840.2331634298071
 21
-274.0053630568791
  0
LINE
  5
110
100
AcDbEntity
  8
0
  6
ByLayer
 62
  256
370
   -1
100
AcDbLine
 10
840.2331634298071
 20
-274.0053630568791
 11
844.2331634298071
 21
-274.0053630568791
  0
LINE
  5
111
100
AcDbEntity
  8
0
  6
ByLayer
 62
  256
370
   -1
100
AcDbLine
 10
844.2331634298071
 20
-274.0053630568791
 11
844.2331634298071
 21
-254.0053630568782
  0
LINE
  5
112
100
AcDbEntity
  8
0
  6
ByLayer
 62
  256
370
   -1
100
AcDbLine
 10
844.2331634298071
 20
-254.0053630568782
 11
840.2331634298071
 21
-254.0053630568782
  0
LINE
  5
113
100
AcDbEntity
  8
0
  6
ByLayer
 62
  256
370
   -1
100
AcDbLine
 10
840.2331634298071
 20
-254.0053630568782
 11
840.2331634298071
 21
-249.0053630568782
  0
LINE
  5
114
100
AcDbEntity
  8
0
  6
ByLayer
 62
  256
370
   -1
100
AcDbLine
 10
780.2331634298071
 20
-209.0053630568782
 11
780.2331634298071
 21
-214.0053630568782
  0
LINE
  5
115
100
AcDbEntity
  8
0
  6
ByLayer
 62
  256
370
   -1
100
AcDbLine
 10
780.2331634298071
 20
-214.0053630568782
 11
776.2331634298071
 21
-214.0053630568782
  0
LINE
  5
116
100
AcDbEntity
  8
0
  6
ByLayer
 62
  256
370
   -1
100
AcDbLine
 10
776.2331634298071
 20
-214.0053630568782
 11
776.2331634298071
 21
-234.0053630568782
  0
LINE
  5
117
100
AcDbEntity
  8
0
  6
ByLayer
 62
  256
370
   -1
100
AcDbLine
 10
776.2331634298071
 20
-234.0053630568782
 11
780.2331634298071
 21
-234.0053630568782
  0
LINE
  5
118
100
AcDbEntity
  8
0
  6
ByLayer
 62
  256
370
   -1
100
AcDbLine
 10
780.2331634298071
 20
-234.0053630568782
 11
780.2331634298071
 21
-239.0053630568782
  0
LINE
  5
119
100
AcDbEntity
  8
0
  6
ByLayer
 62
  256
370
   -1
100
AcDbLine
 10
780.2331634298071
 20
-239.0053630568782
 11
840.2331634298071
 21
-239.0053630568782
  0
LINE
  5
11A
100
AcDbEntity
  8
0
  6
ByLayer
 62
  256
370
   -1
100
AcDbLine
 10
780.2331634298071
 20
-209.0053630568782
 11
840.2331634298071
 21
-209.0053630568782
  0
LINE
  5
11B
100
AcDbEntity
  8
0
  6
ByLayer
 62
  256
370
   -1
100
AcDbLine
 10
840.2331634298071
 20
-239.0053630568782
 11
840.2331634298071
 21
-234.0053630568782
  0
LINE
  5
11C
100
AcDbEntity
  8
0
  6
ByLayer
 62
  256
370
   -1
100
AcDbLine
 10
840.2331634298071
 20
-234.0053630568782
 11
844.2331634298071
 21
-234.0053630568782
  0
LINE
  5
11D
100
AcDbEntity
  8
0
  6
ByLayer
 62
  256
370
   -1
100
AcDbLine
 10
844.2331634298071
 20
-234.0053630568782
 11
844.2331634298071
 21
-214.0053630568782
  0
LINE
  5
11E
100
AcDbEntity
  8
0
  6
ByLayer
 62
  256
370
   -1
100
AcDbLine
 10
844.2331634298071
 20
-214.0053630568782
 11
840.2331634298071
 21
-214.0053630568782
  0
LINE
  5
11F
100
AcDbEntity
  8
0
  6
ByLayer
 62
  256
370
   -1
100
AcDbLine
 10
840.2331634298071
 20
-214.0053630568782
 11
840.2331634298071
 21
-209.0053630568782
  0
LINE
  5
120
100
AcDbEntity
  8
0
  6
ByLayer
 62
  256
370
   -1
100
AcDbLine
 10
883.6821908375114
 20
-340.3760045904683
 11
878.6821908375114
 21
-340.3760045904683
  0
LINE
  5
121
100
AcDbEntity
  8
0
  6
ByLayer
 62
  256
370
   -1
100
AcDbLine
 10
878.6821908375114
 20
-340.3760045904683
 11
878.6821908375114
 21
-336.3760045904683
  0
LINE
  5
122
100
AcDbEntity
  8
0
  6
ByLayer
 62
  256
370
   -1
100
AcDbLine
 10
878.6821908375114
 20
-336.3760045904683
 11
858.6821908375114
 21
-336.3760045904683
  0
LINE
  5
123
100
AcDbEntity
  8
0
  6
ByLayer
 62
  256
370
   -1
100
AcDbLine
 10
858.6821908375114
 20
-336.3760045904683
 11
858.6821908375114
 21
-340.3760045904683
  0
LINE
  5
124
100
AcDbEntity
  8
0
  6
ByLayer
 62
  256
370
   -1
100
AcDbLine
 10
858.6821908375114
 20
-340.3760045904683
 11
853.6821908375114
 21
-340.3760045904683
  0
LINE
  5
125
100
AcDbEntity
  8
0
  6
ByLayer
 62
  256
370
   -1
100
AcDbLine
 10
853.6821908375114
 20
-340.3760045904683
 11
853.6821908375114
 21
-400.3760045904683
  0
LINE
  5
126
100
AcDbEntity
  8
0
  6
ByLayer
 62
  256
370
   -1
100
AcDbLine
 10
883.6821908375114
 20
-340.3760045904683
 11
883.6821908375114
 21
-400.3760045904683
  0
LINE
  5
127
100
AcDbEntity
  8
0
  6
ByLayer
 62
  256
370
   -1
100
AcDbLine
 10
853.6821908375114
 20
-400.3760045904683
 11
858.6821908375114
 21
-400.3760045904683
  0
LINE
  5
128
100
AcDbEntity
  8
0
  6
ByLayer
 62
  256
370
   -1
100
AcDbLine
 10
858.6821908375114
 20
-400.3760045904683
 11
858.6821908375114
 21
-404.3760045904683
  0
LINE
  5
129
100
AcDbEntity
  8
0
  6
ByLayer
 62
  256
370
   -1
100
AcDbLine
 10
858.6821908375114
 20
-404.3760045904683
 11
878.6821908375114
 21
-404.3760045904683
  0
LINE
  5
12A
100
AcDbEntity
  8
0
  6
ByLayer
 62
  256
370
   -1
100
AcDbLine
 10
878.6821908375114
 20
-404.3760045904683
 11
878.6821908375114
 21
-400.3760045904683
  0
LINE
  5
12B
100
AcDbEntity
  8
0
  6
ByLayer
 62
  256
370
   -1
100
AcDbLine
 10
878.6821908375114
 20
-400.3760045904683
 11
883.6821908375114
 21
-400.3760045904683
  0
LINE
  5
12C
100
AcDbEntity
  8
0
  6
ByLayer
 62
  256
370
   -1
100
AcDbLine
 10
924.2047345599062
 20
-340.9870893066573
 11
919.2047345599062
 21
-340.9870893066573
  0
LINE
  5
12D
100
AcDbEntity
  8
0
  6
ByLayer
 62
  256
370
   -1
100
AcDbLine
 10
919.2047345599062
 20
-340.9870893066573
 11
919.2047345599062
 21
-336.9870893066573
  0
LINE
  5
12E
100
AcDbEntity
  8
0
  6
ByLayer
 62
  256
370
   -1
100
AcDbLine
 10
919.2047345599062
 20
-336.9870893066573
 11
899.2047345599062
 21
-336.9870893066573
  0
LINE
  5
12F
100
AcDbEntity
  8
0
  6
ByLayer
 62
  256
370
   -1
100
AcDbLine
 10
899.2047345599062
 20
-336.9870893066573
 11
899.2047345599062
 21
-340.9870893066573
  0
LINE
  5
130
100
AcDbEntity
  8
0
  6
ByLayer
 62
  256
370
   -1
100
AcDbLine
 10
899.2047345599062
 20
-340.9870893066573
 11
894.2047345599062
 21
-340.9870893066573
  0
LINE
  5
131
100
AcDbEntity
  8
0
  6
ByLayer
 62
  256
370
   -1
100
AcDbLine
 10
894.2047345599062
 20
-340.9870893066573
 11
894.2047345599062
 21
-400.9870893066573
  0
LINE
  5
132
100
AcDbEntity
  8
0
  6
ByLayer
 62
  256
370
   -1
100
AcDbLine
 10
924.2047345599062
 20
-340.9870893066573
 11
924.2047345599062
 21
-400.9870893066573
  0
LINE
  5
133
100
AcDbEntity
  8
0
  6
ByLayer
 62
  256
370
   -1
100
AcDbLine
 10
894.2047345599062
 20
-400.9870893066573
 11
899.2047345599062
 21
-400.9870893066573
  0
LINE
  5
134
100
AcDbEntity
  8
0
  6
ByLayer
 62
  256
370
   -1
100
AcDbLine
 10
899.2047345599062
 20
-400.9870893066573
 11
899.2047345599062
 21
-404.9870893066573
  0
LINE
  5
135
100
AcDbEntity
  8
0
  6
ByLayer
 62
  256
370
   -1
100
AcDbLine
 10
899.2047345599062
 20
-404.9870893066573
 11
919.2047345599062
 21
-404.9870893066573
  0
LINE
  5
136
100
AcDbEntity
  8
0
  6
ByLayer
 62
  256
370
   -1
100
AcDbLine
 10
919.2047345599062
 20
-404.9870893066573
 11
919.2047345599062
 21
-400.9870893066573
  0
LINE
  5
137
100
AcDbEntity
  8
0
  6
ByLayer
 62
  256
370
   -1
100
AcDbLine
 10
919.2047345599062
 20
-400.9870893066573
 11
924.2047345599062
 21
-400.9870893066573
  0
LINE
  5
138
100
AcDbEntity
  8
0
  6
ByLayer
 62
  256
370
   -1
100
AcDbLine
 10
964.2047345599062
 20
-340.9870893066573
 11
959.2047345599062
 21
-340.9870893066573
  0
LINE
  5
139
100
AcDbEntity
  8
0
  6
ByLayer
 62
  256
370
   -1
100
AcDbLine
 10
959.2047345599062
 20
-340.9870893066573
 11
959.2047345599062
 21
-336.9870893066573
  0
LINE
  5
13A
100
AcDbEntity
  8
0
  6
ByLayer
 62
  256
370
   -1
100
AcDbLine
 10
959.2047345599062
 20
-336.9870893066573
 11
939.2047345599062
 21
-336.9870893066573
  0
LINE
  5
13B
100
AcDbEntity
  8
0
  6
ByLayer
 62
  256
370
   -1
100
AcDbLine
 10
939.2047345599062
 20
-336.9870893066573
 11
939.2047345599062
 21
-340.9870893066573
  0
LINE
  5
13C
100
AcDbEntity
  8
0
  6
ByLayer
 62
  256
370
   -1
100
AcDbLine
 10
939.2047345599062
 20
-340.9870893066573
 11
934.2047345599062
 21
-340.9870893066573
  0
LINE
  5
13D
100
AcDbEntity
  8
0
  6
ByLayer
 62
  256
370
   -1
100
AcDbLine
 10
934.2047345599062
 20
-340.9870893066573
 11
934.2047345599062
 21
-400.9870893066573
  0
LINE
  5
13E
100
AcDbEntity
  8
0
  6
ByLayer
 62
  256
370
   -1
100
AcDbLine
 10
964.2047345599062
 20
-340.9870893066573
 11
964.2047345599062
 21
-400.9870893066573
  0
LINE
  5
13F
100
AcDbEntity
  8
0
  6
ByLayer
 62
  256
370
   -1
100
AcDbLine
 10
934.2047345599062
 20
-400.9870893066573
 11
939.2047345599062
 21
-400.9870893066573
  0
LINE
  5
140
100
AcDbEntity
  8
0
  6
ByLayer
 62
  256
370
   -1
100
AcDbLine
 10
939.2047345599062
 20
-400.9870893066573
 11
939.2047345599062
 21
-404.9870893066573
  0
LINE
  5
141
100
AcDbEntity
  8
0
  6
ByLayer
 62
  256
370
   -1
100
AcDbLine
 10
939.2047345599062
 20
-404.9870893066573
 11
959.2047345599062
 21
-404.9870893066573
  0
LINE
  5
142
100
AcDbEntity
  8
0
  6
ByLayer
 62
  256
370
   -1
100
AcDbLine
 10
959.2047345599062
 20
-404.9870893066573
 11
959.2047345599062
 21
-400.9870893066573
  0
LINE
  5
143
100
AcDbEntity
  8
0
  6
ByLayer
 62
  256
370
   -1
100
AcDbLine
 10
959.2047345599062
 20
-400.9870893066573
 11
964.2047345599062
 21
-400.9870893066573
  0
LWPOLYLINE
  5
144
100
AcDbEntity
  8
0
  6
ByLayer
 62
  256
370
   -1
100
AcDbPolyline
 90
    4
 70
    1
 43
0
 10
1173.381867850833
 20
-301.1189222148705
 10
1180.452935662699
 20
-308.1899900267363
 10
1222.879342533891
 20
-265.7635831555435
 10
1215.808274722026
 20
-258.6925153436778
  0
LWPOLYLINE
  5
145
100
AcDbEntity
  8
0
  6
ByLayer
 62
  256
370
   -1
100
AcDbPolyline
 90
    4
 70
    1
 43
0
 10
1183.988469568631
 20
-311.7255239326687
 10
1191.059537380497
 20
-318.7965917445345
 10
1233.485944251689
 20
-276.3701848733417
 10
1226.414876439824
 20
-269.299117061476
  0
LWPOLYLINE
  5
146
100
AcDbEntity
  8
0
  6
ByLayer
 62
  256
370
   -1
100
AcDbPolyline
 90
    4
 70
    1
 43
0
 10
1194.59507128643
 20
-322.3321256504669
 10
1201.666139098295
 20
-329.4031934623326
 10
1244.092545969488
 20
-286.9767865911399
 10
1237.021478157622
 20
-279.9057187792741
  0
LWPOLYLINE
  5
147
100
AcDbEntity
  8
0
  6
ByLayer
 62
  256
370
   -1
100
AcDbPolyline
 90
    4
 70
    1
 43
0
 10
1205.201673004228
 20
-332.9387273682651
 10
1212.272740816093
 20
-340.0097951801308
 10
1254.699147687286
 20
-297.5833883089381
 10
1247.628079875421
 20
-290.5123204970723
  0
LWPOLYLINE
  5
148
100
AcDbEntity
  8
0
  6
ByLayer
 62
  256
370
   -1
100
AcDbPolyline
 90
    4
 70
    1
 43
0
 10
1215.808274722026
 20
-343.5453290860632
 10
1222.879342533891
 20
-350.616396897929
 10
1265.305749405084
 20
-308.1899900267363
 10
1258.234681593219
 20
-301.1189222148705
  0
LWPOLYLINE
  5
149
100
AcDbEntity
  8
0
  6
ByLayer
 62
  256
370
   -1
100
AcDbPolyline
 90
    4
 70
    1
 43
0
 10
1226.414876439824
 20
-354.1519308038614
 10
1233.485944251689
 20
-361.2229986157272
 10
1275.912351122882
 20
-318.7965917445345
 10
1268.841283311017
 20
-311.7255239326687
  0
LWPOLYLINE
  5
14A
100
AcDbEntity
  8
0
  6
ByLayer
 62
  256
370
   -1
100
AcDbPolyline
 90
    4
 70
    1
 43
0
 10
1237.021478157622
 20
-364.7585325216596
 10
1244.092545969488
 20
-371.8296003335254
 10
1286.518952840681
 20
-329.4031934623326
 10
1279.447885028815
 20
-322.3321256504669
  0
LWPOLYLINE
  5
14B
100
AcDbEntity
  8
0
  6
ByLayer
 62
  256
370
   -1
100
AcDbPolyline
 90
    4
 70
    1
 43
0
 10
1247.628079875421
 20
-375.3651342394578
 10
1254.699147687286
 20
-382.4362020513236
 10
1297.125554558479
 20
-340.0097951801308
 10
1290.054486746614
 20
-332.9387273682651
  0
LWPOLYLINE
  5
14C
100
AcDbEntity
  8
0
  6
ByLayer
 62
  256
370
   -1
100
AcDbPolyline
 90
    4
 70
    1
 43
0
 10
1258.234681593219
 20
-385.971735957256
 10
1265.305749405084
 20
-393.0428037691217
 10
1307.732156276277
 20
-350.616396897929
 10
1300.661088464412
 20
-343.5453290860632
  0
LWPOLYLINE
  5
14D
100
AcDbEntity
  8
0
  6
ByLayer
 62
  256
370
   -1
100
AcDbPolyline
 90
    4
 70
    1
 43
0
 10
1268.841283311017
 20
-396.5783376750542
 10
1275.912351122882
 20
-403.6494054869199
 10
1318.338757994075
 20
-361.2229986157272
 10
1311.26769018221
 20
-354.1519308038614
  0
LWPOLYLINE
  5
14E
100
AcDbEntity
  8
0
  6
ByLayer
 62
  256
370
   -1
100
AcDbPolyline
 90
    4
 70
    1
 43
0
 10
1279.447885028815
 20
-407.1849393928524
 10
1286.518952840681
 20
-414.2560072047181
 10
1328.945359711874
 20
-371.8296003335254
 10
1321.874291900008
 20
-364.7585325216596
  0
LWPOLYLINE
  5
14F
100
AcDbEntity
  8
0
  6
ByLayer
 62
  256
370
   -1
100
AcDbPolyline
 90
    4
 70
    1
 43
0
 10
1290.054486746614
 20
-417.7915411106505
 10
1297.125554558479
 20
-424.8626089225163
 10
1339.551961429672
 20
-382.4362020513236
 10
1332.480893617806
 20
-375.3651342394578
  0
LWPOLYLINE
  5
150
100
AcDbEntity
  8
0
  6
ByLayer
 62
  256
370
   -1
100
AcDbPolyline
 90
    4
 70
    1
 43
0
 10
1277.668316847068
 20
-196.832473218632
 10
1284.739384658934
 20
-203.9035410304978
 10
1327.165791530126
 20
-161.477134159305
 10
1320.094723718261
 20
-154.4060663474393
  0
LWPOLYLINE
  5
151
100
AcDbEntity
  8
0
  6
ByLayer
 62
  256
370
   -1
100
AcDbPolyline
 90
    4
 70
    1
 43
0
 10
1288.274918564867
 20
-207.4390749364302
 10
1295.345986376732
 20
-214.5101427482959
 10
1337.772393247925
 20
-172.0837358771032
 10
1330.701325436059
 20
-165.0126680652374
  0
LWPOLYLINE
  5
152
100
AcDbEntity
  8
0
  6
ByLayer
 62
  256
370
   -1
100
AcDbPolyline
 90
    4
 70
    1
 43
0
 10
1298.881520282665
 20
-218.0456766542284
 10
1305.95258809453
 20
-225.1167444660941
 10
1348.378994965723
 20
-182.6903375949014
 10
1341.307927153857
 20
-175.6192697830356
  0
LWPOLYLINE
  5
153
100
AcDbEntity
  8
0
  6
ByLayer
 62
  256
370
   -1
100
AcDbPolyline
 90
    4
 70
    1
 43
0
 10
1309.488122000463
 20
-228.6522783720266
 10
1316.559189812328
 20
-235.7233461838923
 10
1358.985596683521
 20
-193.2969393126996
 10
1351.914528871656
 20
-186.2258715008338
  0
LWPOLYLINE
  5
154
100
AcDbEntity
  8
0
  6
ByLayer
 62
  256
370
   -1
100
AcDbPolyline
 90
    4
 70
    1
 43
0
 10
1320.094723718261
 20
-239.2588800898247
 10
1327.165791530126
 20
-246.3299479016905
 10
1369.592198401319
 20
-203.9035410304978
 10
1362.521130589454
 20
-196.832473218632
  0
LWPOLYLINE
  5
155
100
AcDbEntity
  8
0
  6
ByLayer
 62
  256
370
   -1
100
AcDbPolyline
 90
    4
 70
    1
 43
0
 10
1330.701325436059
 20
-249.8654818076229
 10
1337.772393247925
 20
-256.9365496194887
 10
1380.198800119118
 20
-214.5101427482959
 10
1373.127732307252
 20
-207.4390749364302
  0
LWPOLYLINE
  5
156
100
AcDbEntity
  8
0
  6
ByLayer
 62
  256
370
   -1
100
AcDbPolyline
 90
    4
 70
    1
 43
0
 10
1341.307927153857
 20
-260.4720835254211
 10
1348.378994965723
 20
-267.5431513372869
 10
1390.805401836916
 20
-225.1167444660941
 10
1383.73433402505
 20
-218.0456766542284
  0
LWPOLYLINE
  5
157
100
AcDbEntity
  8
0
  6
ByLayer
 62
  256
370
   -1
100
AcDbPolyline
 90
    4
 70
    1
 43
0
 10
1351.914528871656
 20
-271.0786852432193
 10
1358.985596683521
 20
-278.1497530550851
 10
1401.412003554714
 20
-235.7233461838923
 10
1394.340935742849
 20
-228.6522783720266
  0
LWPOLYLINE
  5
158
100
AcDbEntity
  8
0
  6
ByLayer
 62
  256
370
   -1
100
AcDbPolyline
 90
    4
 70
    1
 43
0
 10
1362.521130589454
 20
-281.6852869610175
 10
1369.592198401319
 20
-288.7563547728832
 10
1412.018605272512
 20
-246.3299479016905
 10
1404.947537460647
 20
-239.2588800898247
  0
LWPOLYLINE
  5
159
100
AcDbEntity
  8
0
  6
ByLayer
 62
  256
370
   -1
100
AcDbPolyline
 90
    4
 70
    1
 43
0
 10
1373.127732307252
 20
-292.2918886788157
 10
1380.198800119118
 20
-299.3629564906814
 10
1422.625206990311
 20
-256.9365496194887
 10
1415.554139178445
 20
-249.8654818076229
  0
LWPOLYLINE
  5
15A
100
AcDbEntity
  8
0
  6
ByLayer
 62
  256
370
   -1
100
AcDbPolyline
 90
    4
 70
    1
 43
0
 10
1383.73433402505
 20
-302.8984903966139
 10
1390.805401836916
 20
-309.9695582084796
 10
1433.231808708109
 20
-267.5431513372869
 10
1426.160740896243
 20
-260.4720835254211
  0
LWPOLYLINE
  5
15B
100
AcDbEntity
  8
0
  6
ByLayer
 62
  256
370
   -1
100
AcDbPolyline
 90
    4
 70
    1
 43
0
 10
1394.340935742849
 20
-313.505092114412
 10
1401.412003554714
 20
-320.5761599262778
 10
1443.838410425907
 20
-278.1497530550851
 10
1436.767342614041
 20
-271.0786852432193
  0
LWPOLYLINE
  5
15C
100
AcDbEntity
  8
0
  6
ByLayer
 62
  256
370
   -1
100
AcDbPolyline
 90
    4
 70
    1
 43
0
 10
1315.058814446325
 20
-338.7010377707005
 10
1322.12988225819
 20
-345.7721055825662
 10
1364.556289129383
 20
-303.3456987113735
 10
1357.485221317517
 20
-296.2746308995077
  0
LWPOLYLINE
  5
15D
100
AcDbEntity
  8
0
  6
ByLayer
 62
  256
370
   -1
100
AcDbPolyline
 90
    4
 70
    1
 43
0
 10
1325.665416164123
 20
-349.3076394884986
 10
1332.736483975988
 20
-356.3787073003644
 10
1375.162890847181
 20
-313.9523004291717
 10
1368.091823035316
 20
-306.8812326173059
  0
LWPOLYLINE
  5
15E
100
AcDbEntity
  8
0
  6
ByLayer
 62
  256
370
   -1
100
AcDbPolyline
 90
    4
 70
    1
 43
0
 10
1336.272017881921
 20
-359.9142412062968
 10
1343.343085693786
 20
-366.9853090181626
 10
1385.769492564979
 20
-324.5589021469698
 10
1378.698424753114
 20
-317.4878343351041
  0
LWPOLYLINE
  5
15F
100
AcDbEntity
  8
0
  6
ByLayer
 62
  256
370
   -1
100
AcDbPolyline
 90
    4
 70
    1
 43
0
 10
1346.878619599719
 20
-370.520842924095
 10
1353.949687411585
 20
-377.5919107359608
 10
1396.376094282778
 20
-335.165503864768
 10
1389.305026470912
 20
-328.0944360529023
  0
LWPOLYLINE
  5
160
100
AcDbEntity
  8
0
  6
ByLayer
 62
  256
370
   -1
100
AcDbPolyline
 90
    4
 70
    1
 43
0
 10
1357.485221317517
 20
-381.1274446418932
 10
1364.556289129383
 20
-388.198512453759
 10
1406.982696000576
 20
-345.7721055825662
 10
1399.91162818871
 20
-338.7010377707005
  0
LWPOLYLINE
  5
161
100
AcDbEntity
  8
0
  6
ByLayer
 62
  256
370
   -1
100
AcDbPolyline
 90
    4
 70
    1
 43
0
 10
1368.091823035316
 20
-391.7340463596914
 10
1375.162890847181
 20
-398.8051141715571
 10
1417.589297718374
 20
-356.3787073003644
 10
1410.518229906508
 20
-349.3076394884986
  0
LWPOLYLINE
  5
162
100
AcDbEntity
  8
0
  6
ByBlock
 62
  256
370
   -1
100
AcDbPolyline
 90
    4
 70
    1
 43
0
 10
2066.990465893441
 20
-21.89841858377667
 10
2074.061533705306
 20
-14.82735077191138
 10
2071.23310658056
 20
-11.9989236471647
 10
2064.162038768695
 20
-19.06999145903046
  0
LWPOLYLINE
  5
163
100
AcDbEntity
  8
0
  6
ByBlock
 62
  256
370
   -1
100
AcDbPolyline
 90
    4
 70
    1
 43
0
 10
1951.024953778837
 20
-132.2070764488885
 10
1943.953885966971
 20
-139.2781442607538
 10
1946.782313091718
 20
-142.1065713855005
 10
1953.853380903583
 20
-135.0355035736347
  0
LWPOLYLINE
  5
164
100
AcDbEntity
  8
0
  6
ByBlock
 62
  256
370
   -1
100
AcDbPolyline
 90
    4
 70
    1
 43
0
 10
1856.990465893439
 20
-231.8984185837767
 10
1864.061533705304
 20
-224.8273507719114
 10
1861.233106580558
 20
-221.9989236471647
 10
1854.162038768692
 20
-229.0699914590305
  0
LWPOLYLINE
  5
165
100
AcDbEntity
  8
0
  6
ByBlock
 62
  256
370
   -1
100
AcDbPolyline
 90
    4
 70
    1
 43
0
 10
1741.024953778834
 20
-342.2070764488885
 10
1733.953885966969
 20
-349.2781442607538
 10
1736.782313091715
 20
-352.1065713855005
 10
1743.853380903581
 20
-345.0355035736347
  0
LWPOLYLINE
  5
166
100
AcDbEntity
  8
0
  6
ByLayer
 62
  256
370
   -1
100
AcDbPolyline
 90
    4
 70
    1
 43
0
 10
1176.655264717925
 20
-169.8270817250063
 10
1190.797400341656
 20
-155.6849461012752
 10
1187.96897321691
 20
-152.8565189765293
 10
1173.82683759318
 20
-166.9986546002601
  0
LWPOLYLINE
  5
167
100
AcDbEntity
  8
0
  6
ByLayer
 62
  256
370
   -1
100
AcDbPolyline
 90
    4
 70
    1
 43
0
 10
1019.390867548043
 20
15.72158669234112
 10
1005.248731924312
 20
1.579451068610055
 10
1008.077159049058
 20
-1.24897605613593
 10
1022.219294672788
 20
12.89315956759491
  0
LWPOLYLINE
  5
168
100
AcDbEntity
  8
0
  6
ByLayer
 62
  256
370
   -1
100
AcDbPolyline
 90
    4
 70
    1
 43
0
 10
2087.63990842108
 20
-169.8270817250063
 10
2101.782044044811
 20
-155.6849461012752
 10
2098.953616920065
 20
-152.8565189765293
 10
2084.811481296334
 20
-166.9986546002601
  0
LWPOLYLINE
  5
169
100
AcDbEntity
  8
0
  6
ByLayer
 62
  256
370
   -1
100
AcDbPolyline
 90
    4
 70
    1
 43
0
 10
1930.375511251198
 20
15.72158669234112
 10
1916.233375627467
 20
1.579451068610055
 10
1919.061802752213
 20
-1.24897605613593
 10
1933.203938375943
 20
12.89315956759491
  0
LWPOLYLINE
  5
16A
100
AcDbEntity
  8
0
  6
ByBlock
 62
  256
370
   -1
100
AcDbPolyline
 90
    4
 70
    1
 43
0
 10
2066.99046589344
 20
-142.1065713855002
 10
2074.061533705305
 20
-135.0355035736349
 10
2071.233106580559
 20
-132.2070764488883
 10
2064.162038768693
 20
-139.278144260754
  0
LWPOLYLINE
  5
16B
100
AcDbEntity
  8
0
  6
ByBlock
 62
  256
370
   -1
100
AcDbPolyline
 90
    4
 70
    1
 43
0
 10
1951.024953778838
 20
-11.99892364716496
 10
1943.953885966972
 20
-19.06999145903026
 10
1946.782313091719
 20
-21.89841858377692
 10
1953.853380903584
 20
-14.82735077191116
  0
LWPOLYLINE
  5
16C
100
AcDbEntity
  8
0
  6
ByBlock
 62
  256
370
   -1
100
AcDbPolyline
 90
    4
 70
    1
 43
0
 10
1856.990465893437
 20
-352.1065713855003
 10
1864.061533705303
 20
-345.035503573635
 10
1861.233106580557
 20
-342.2070764488883
 10
1854.162038768691
 20
-349.2781442607541
  0
LWPOLYLINE
  5
16D
100
AcDbEntity
  8
0
  6
ByBlock
 62
  256
370
   -1
100
AcDbPolyline
 90
    4
 70
    1
 43
0
 10
1741.024953778836
 20
-221.998923647165
 10
1733.95388596697
 20
-229.0699914590303
 10
1736.782313091716
 20
-231.8984185837769
 10
1743.853380903582
 20
-224.8273507719112
  0
ENDSEC
  0
SECTION
  2
OBJECTS
  0
DICTIONARY
  5
C
330
0
100
AcDbDictionary
281
    1
  3
ACAD_GROUP
350
D
  0
DICTIONARY
  5
D
330
C
100
AcDbDictionary
281
    1
  0
ENDSEC
  0
EOF
